<?xml version="1.0" encoding="utf-8"?>
<!-- Generator: Adobe Illustrator 18.0.0, SVG Export Plug-In . SVG Version: 6.00 Build 0)  -->
<!DOCTYPE svg PUBLIC "-//W3C//DTD SVG 1.1//EN" "http://www.w3.org/Graphics/SVG/1.1/DTD/svg11.dtd">
<svg version="1.1" id="Layer_1" xmlns="http://www.w3.org/2000/svg" xmlns:xlink="http://www.w3.org/1999/xlink" x="0px" y="0px"
	 width="212.6px" height="77.2px" viewBox="190.6 382.2 212.6 77.2" enable-background="new 190.6 382.2 212.6 77.2"
	 xml:space="preserve">
<g>
	<path id="ma439893ff4_2_" fill="#B1DFF9" d="M403.2,451.5v0.4h-2.1H399h-2.1h-2.2h-2.1h-2.1h-2.1h-2.1h-2.1h-2.2h-2.1h-2.1h-2.2
		h-2.1H371h-2.1h-2.1h-2.2h-2.1h-2.2h-2.1H356h-2.1h-2.1h-2.1h-2.1h-2.2h-2.1H341h-2.2h-2.2h-2.1h-2.1h-2.1h-2.1h-2.1h-2.2h-2.1
		h-2.1h-2.1h-2.2H313h-2.1h-2.2h-2.1h-2.1h-2.2h-2.1H298h-2.1h-2.2h-2.1h-2.1h-2.2h-2.2H283h-2.1h-2.1h-2.1h-2.2h-2.1h-2.1H268h-2.2
		h-2.1h-2.1h-2.1h-2.1h-2.2h-2.1h-2.2h-2.1h-2.1h-2.2h-2.1H240h-2.1h-2.2h-2.1h-2.1h-2.2h-2.1H225h-2.1h-2.1h-2.1h-2.1h-2.2h-2.1
		H210h-2.1h-2.2h-2.1h-2.1h-2.1h-2.1h-2.2h-2.1h-2.1v-0.2l0,0l2.1,0h2.1l2.2,0l2.1,0l2.1-0.1l2.1-0.1l2.1-0.1l2.2-0.1l2.1-0.2
		l2.1-0.1l2.1-0.2l2.2-0.2l2.1-0.2l2.1-0.2l2.1-0.3l2.1-0.4l2.2-0.5l2.1-0.6l2.2-0.8l2.1-0.9l2.1-1.1l2.2-1.2l2.1-1.3l2.1-1.4
		l2.1-1.5l2.2-1.7l2.1-1.9l2.1-2l2.2-2.1l2.1-2.1l2.2-2.2l2.1-2.4l2.1-2.7l2.1-3l2.1-3.1l2.2-3l2.1-2.7l2.1-2.4l2.1-2.1l2.2-1.9
		l2.1-1.8l2.1-1.8l2.1-1.9l2.1-2.2l2.2-2.5l2.2-2.8l2.1-2.9l2.1-2.7l2.2-2.2l2.1-1.4l2.1-0.6l2.1,0.3l2.2,0.9l2.1,1.2l2.1,1.4
		l2.2,1.4l2.1,1.4l2.1,1.6l2.2,1.8l2.1,2.2l2.1,2.5l2.1,2.7l2.2,3l2.1,3.1l2.1,3.1l2.1,3.1l2.1,3l2.1,2.8l2.2,2.6l2.2,2.4l2.1,2.3
		l2.1,2.2l2.2,2.1l2.1,2l2.1,1.9l2.1,1.9l2.1,1.8l2.2,1.8l2.1,1.7l2.2,1.6l2.1,1.4l2.2,1.3l2.1,1.1l2.1,0.9l2.2,0.8l2.1,0.6l2.2,0.5
		l2.1,0.4l2.1,0.3l2.2,0.3l2.1,0.3l2.1,0.3l2.1,0.3l2.1,0.3l2.1,0.2l2.2,0.2l2.1,0.2l2.1,0.1L403.2,451.5z"/>

		<path fill="none" stroke="#000000" stroke-width="1.4173" stroke-linecap="round" stroke-linejoin="round" stroke-miterlimit="10" d="
		M362.7,451.9H244.2"/>
	<path id="mff3b34de01_5_" fill="#FFFFFF" stroke="#000000" stroke-width="1.4173" stroke-miterlimit="10" d="M309.4,451.9
		c0-1.8-0.7-3.6-2-4.8c-1.3-1.3-3-2-4.8-2c-1.8,0-3.5,0.7-4.8,2c-1.3,1.3-2,3-2,4.8c0,1.8,0.7,3.6,2,4.8c1.3,1.3,3,2,4.8,2
		c1.8,0,3.5-0.7,4.8-2C308.6,455.4,309.4,453.7,309.4,451.9z"/>
</g>
</svg>
