<?xml version="1.0" encoding="utf-8"?>
<!-- Generator: Adobe Illustrator 28.0.0, SVG Export Plug-In . SVG Version: 6.00 Build 0)  -->
<svg version="1.1" id="Layer_1" xmlns="http://www.w3.org/2000/svg" xmlns:xlink="http://www.w3.org/1999/xlink" x="0px" y="0px"
	 viewBox="0 0 595.28 841.89" style="enable-background:new 0 0 595.28 841.89; transform: scale(3);" xml:space="preserve">
<style type="text/css">
	.st0{enable-background:new    ;}
	.st1{fill:#774E4B;}
</style>
<g id="Layer_1_00000026165227192707972460000000602016422381727140_">
</g>
<g id="WebApp">
</g>
<g id="dabestr">
</g>
<g id="DABEST_x5F_">
	<g>
		<g class="st0">
			<path class="st1" d="M215.93,410.24c0-0.99,0.83-1.82,1.82-1.82h7.29c5.01,0,9.11,4.1,9.11,9.11v4.86c0,5.01-4.1,9.11-9.11,9.11
				h-7.29c-0.99,0-1.82-0.83-1.82-1.82V410.24z M219.58,412.06v15.79h5.47c3.04,0,5.47-2.43,5.47-5.47v-4.86
				c0-3.04-2.43-5.47-5.47-5.47L219.58,412.06L219.58,412.06z"/>
			<path class="st1" d="M240.23,422.23c0-0.3,0.19-0.72,0.38-0.99l9.72-12.15c0.3-0.38,0.83-0.65,1.44-0.68h4.86
				c0.99,0,1.82,0.83,1.82,1.82v19.44c0,0.99-0.83,1.82-1.82,1.82s-1.82-0.83-1.82-1.82v-5.47h-10.93v5.47
				c0,0.99-0.83,1.82-1.82,1.82s-1.82-0.83-1.82-1.82L240.23,422.23L240.23,422.23z M245.85,420.56h8.96v-8.5h-2.16L245.85,420.56z"
				/>
			<path class="st1" d="M266.35,431.5c-0.99,0-1.82-0.83-1.82-1.82v-19.44c0-0.99,0.83-1.82,1.82-1.82h9.72c3.68,0,6.68,3,6.68,6.68
				c0,1.94-0.83,3.64-2.13,4.86c1.29,1.21,2.13,2.96,2.13,4.86c0,3.68-3,6.68-6.68,6.68L266.35,431.5L266.35,431.5z M276.07,418.13
				c1.67,0,3.04-1.37,3.04-3.04s-1.37-3.04-3.04-3.04h-7.9v6.07h7.9V418.13z M268.17,421.78v6.07h7.9c1.67,0,3.04-1.37,3.04-3.04
				c0-1.63-1.29-2.96-2.92-3.04h-0.11h-7.91V421.78z"/>
			<path class="st1" d="M292.47,421.78v6.07h12.76c0.99,0,1.82,0.83,1.82,1.82s-0.83,1.82-1.82,1.82h-14.58
				c-0.99,0-1.82-0.83-1.82-1.82v-19.44c0-0.99,0.84-1.82,1.82-1.82h14.58c0.99,0,1.82,0.83,1.82,1.82s-0.83,1.82-1.82,1.82h-12.76
				v6.07h12.76c0.99,0,1.82,0.83,1.82,1.82s-0.83,1.82-1.82,1.82h-12.76V421.78z"/>
			<path class="st1" d="M324.66,431.5h-9.72c-0.99,0-1.82-0.83-1.82-1.82s0.84-1.82,1.82-1.82h9.72c1.67,0,3.04-1.37,3.04-3.04
				s-1.37-3.04-3.04-3.04h-4.86c-3.68,0-6.68-3-6.68-6.68s3-6.68,6.68-6.68h9.72c0.99,0,1.82,0.83,1.82,1.82s-0.83,1.82-1.82,1.82
				h-9.72c-1.67,0-3.04,1.37-3.04,3.04s1.37,3.04,3.04,3.04h4.86c3.68,0,6.68,3,6.68,6.68S328.34,431.5,324.66,431.5z"/>
			<path class="st1" d="M353.82,408.42c0.99,0,1.82,0.83,1.82,1.82s-0.83,1.82-1.82,1.82h-5.47v17.61c0,0.99-0.83,1.82-1.82,1.82
				c-0.99,0-1.82-0.83-1.82-1.82v-17.61h-5.47c-0.99,0-1.82-0.83-1.82-1.82s0.84-1.82,1.82-1.82L353.82,408.42L353.82,408.42z"/>
		</g>
	</g>
</g>
</svg>
