<?xml version="1.0" encoding="utf-8"?>
<!-- Generator: Adobe Illustrator 28.0.0, SVG Export Plug-In . SVG Version: 6.00 Build 0)  -->
<svg version="1.1" id="Layer_1" xmlns="http://www.w3.org/2000/svg" xmlns:xlink="http://www.w3.org/1999/xlink" x="0px" y="0px"
	 viewBox="0 0 595.28 841.89" style="enable-background:new 0 0 595.28 841.89; transform: scale(3);" xml:space="preserve">
<style type="text/css">
	.st0{enable-background:new    ;}
	.st1{fill:#3A6838;}
</style>
<g id="Layer_1_00000083089854137792740200000002404851439247556016_">
</g>
<g id="WebApp">
</g>
<g id="dabestr">
	<g class="st0">
		<path class="st1" d="M220.18,431.5h-7.29c-5.01,0-9.11-4.1-9.11-9.11c0-5.01,4.1-9.11,9.11-9.11h5.47v-5.47
			c0-0.99,0.83-1.82,1.82-1.82s1.82,0.83,1.82,1.82v21.87C222.01,430.66,221.17,431.5,220.18,431.5z M212.9,427.85h5.47v-10.93
			h-5.47c-3.04,0-5.47,2.43-5.47,5.47C207.43,425.42,209.86,427.85,212.9,427.85z"/>
		<path class="st1" d="M233.55,431.5c-3,0-5.47-2.47-5.47-5.47s2.47-5.47,5.47-5.47h9.11v-0.61c0-1.67-1.37-3.04-3.04-3.04h-9.72
			c-0.99,0-1.82-0.83-1.82-1.82s0.83-1.82,1.82-1.82h9.72c3.68,0,6.68,3,6.68,6.68v9.72c0,0.99-0.83,1.82-1.82,1.82h-10.93V431.5z
			 M242.66,427.85v-3.64h-9.11c-1.02,0-1.82,0.8-1.82,1.82s0.8,1.82,1.82,1.82H242.66z"/>
		<path class="st1" d="M256.02,413.28h5.47c5.01,0,9.11,4.1,9.11,9.11c0,5.01-4.1,9.11-9.11,9.11h-7.29c-0.99,0-1.82-0.83-1.82-1.82
			v-21.87c0-0.99,0.83-1.82,1.82-1.82s1.82,0.83,1.82,1.82V413.28z M256.02,416.92v10.93h5.47c3.04,0,5.47-2.43,5.47-5.47
			s-2.43-5.47-5.47-5.47h-5.47V416.92z"/>
		<path class="st1" d="M294.9,422.39c0,0.99-0.84,1.82-1.82,1.82h-12.76v0.61c0,1.67,1.37,3.04,3.04,3.04h9.72
			c0.99,0,1.82,0.83,1.82,1.82s-0.84,1.82-1.82,1.82h-9.72c-3.68,0-6.68-3-6.68-6.68v-4.86c0-3.68,3-6.68,6.68-6.68h4.86
			c3.68,0,6.68,3,6.68,6.68L294.9,422.39L294.9,422.39z M280.32,420.56h10.93v-0.61c0-1.67-1.37-3.04-3.04-3.04h-4.86
			c-1.67,0-3.04,1.37-3.04,3.04v0.61H280.32z"/>
		<path class="st1" d="M306.44,424.21c-3,0-5.47-2.47-5.47-5.47s2.47-5.47,5.47-5.47h10.93c0.99,0,1.82,0.83,1.82,1.82
			s-0.83,1.82-1.82,1.82h-10.93c-1.02,0-1.82,0.8-1.82,1.82s0.8,1.82,1.82,1.82h7.29c3,0,5.47,2.47,5.47,5.47s-2.47,5.47-5.47,5.47
			H302.8c-0.99,0-1.82-0.83-1.82-1.82s0.84-1.82,1.82-1.82h10.93c1.03,0,1.82-0.8,1.82-1.82s-0.8-1.82-1.82-1.82H306.44z"/>
		<path class="st1" d="M341.67,427.85c0.99,0,1.82,0.83,1.82,1.82s-0.83,1.82-1.82,1.82h-4.86c-3.68,0-6.68-3-6.68-6.68v-7.9h-3.04
			c-0.99,0-1.82-0.83-1.82-1.82s0.84-1.82,1.82-1.82h3.04v-5.47c0-0.99,0.84-1.82,1.82-1.82c0.99,0,1.82,0.83,1.82,1.82v5.47h7.9
			c0.99,0,1.82,0.83,1.82,1.82s-0.83,1.82-1.82,1.82h-7.9v7.9c0,1.67,1.37,3.04,3.04,3.04L341.67,427.85L341.67,427.85z"/>
		<path class="st1" d="M367.79,419.96c0,0.99-0.83,1.82-1.82,1.82c-0.99,0-1.82-0.83-1.82-1.82v-3.04h-6.07v10.93h3.04
			c0.99,0,1.82,0.83,1.82,1.82s-0.83,1.82-1.82,1.82h-9.72c-0.99,0-1.82-0.83-1.82-1.82s0.84-1.82,1.82-1.82h3.04v-10.93h-3.04
			c-0.99,0-1.82-0.83-1.82-1.82s0.84-1.82,1.82-1.82h14.58c0.99,0,1.82,0.83,1.82,1.82L367.79,419.96L367.79,419.96z"/>
	</g>
</g>
</svg>
