<?xml version="1.0" encoding="utf-8"?>
<!-- Generator: Adobe Illustrator 18.0.0, SVG Export Plug-In . SVG Version: 6.00 Build 0)  -->
<!DOCTYPE svg PUBLIC "-//W3C//DTD SVG 1.1//EN" "http://www.w3.org/Graphics/SVG/1.1/DTD/svg11.dtd">
<svg version="1.1" id="Layer_1" xmlns="http://www.w3.org/2000/svg" xmlns:xlink="http://www.w3.org/1999/xlink" x="0px" y="0px"
	 width="141.7px" height="138.1px" viewBox="0 0 141.7 138.1" enable-background="new 0 0 141.7 138.1" xml:space="preserve">
<g>
	<g>
		<path fill="#1156A2" d="M29.4,19.2H17.9v8h10.3v3.3H17.9v9.2h11.9v3.2H14.1V16h15.3L29.4,19.2L29.4,19.2z"/>
		<path fill="#1156A2" d="M37.3,37.6c1.9,1.5,4.3,2.6,7.3,2.6c3.6,0,4.9-1.9,4.9-4.1c0-2.2-1.3-3.4-4.8-5.4
			c-5.3-3.1-7.5-4.6-7.5-8.3c0-3.4,2.7-7.1,8.4-7.1c2.9,0,5.6,1.1,7.1,2.3l-0.9,3.2c-1.7-1.3-4-2.3-6.2-2.3c-3.4,0-4.8,1.4-4.8,3.5
			c0,1.8,1.1,2.9,5.5,5.3c5.1,2.7,7,5.3,7,8.5c0,5.1-3.6,7.6-8.8,7.6c-3.7,0-6.9-1.3-8.2-2.5L37.3,37.6z"/>
		<path fill="#1156A2" d="M70.6,19.2v23.7h-3.7V19.2h-8.7V16h21.2v3.3H70.6z"/>
		<path fill="#1156A2" d="M90,42.9h-3.7V16H90V42.9z"/>
		<path fill="#1156A2" d="M122.4,25.9l-8.6,17.4h-0.4l-8.6-17.4h-0.3l-2.1,17h-3.8l4-27.4h0.8l10.2,20.6h0.2l10-20.6h0.8l4,27.4
			h-3.8l-2.1-17H122.4z"/>
		<path fill="#1156A2" d="M29.6,75.5H18.2l-2.9,7h-4l12.1-27.7h0.8l12.2,27.7h-4L29.6,75.5z M19.6,72.3h8.6L24,62.3h-0.3L19.6,72.3z
			"/>
		<path fill="#1156A2" d="M48.4,58.8v23.7h-3.7V58.8h-8.7v-3.2h21.2v3.2H48.4z"/>
		<path fill="#1156A2" d="M65.8,82.5h-3.7V55.6h3.7V82.5z"/>
		<path fill="#1156A2" d="M85.4,83.1c-7.5,0-13.4-5.9-13.4-13.9C72,60.6,78.4,55,85.4,55c7.1,0,13.3,5.5,13.3,14.3
			C98.7,76.8,93.1,83.1,85.4,83.1z M85.2,58.4c-4.8,0-9.3,4-9.3,10.8c0,5.4,3.6,10.6,9.6,10.6c5.6,0,9.4-5,9.4-10.6
			C94.8,62.8,90.7,58.4,85.2,58.4z"/>
		<path fill="#1156A2" d="M124,74.9h0.3V55.6h3.7v27.3h-1.2l-18.3-19.7h-0.3v19.3h-3.7V55.2h1.2L124,74.9z"/>
		<path fill="#1156A2" d="M13.5,116.8c1.9,1.5,4.3,2.6,7.3,2.6c3.6,0,4.9-1.9,4.9-4.1c0-2.2-1.3-3.4-4.8-5.4
			c-5.3-3.1-7.5-4.6-7.5-8.3c0-3.4,2.7-7.1,8.4-7.1c2.9,0,5.6,1.2,7.1,2.3l-0.9,3.2c-1.7-1.3-4-2.3-6.2-2.3c-3.4,0-4.8,1.4-4.8,3.5
			c0,1.8,1.1,2.9,5.5,5.3c5.1,2.7,7,5.3,7,8.5c0,5.1-3.6,7.6-8.8,7.6c-3.7,0-6.9-1.3-8.2-2.5L13.5,116.8z"/>
		<path fill="#1156A2" d="M47,98.5v23.7h-3.7V98.5h-8.7v-3.2h21.2v3.2H47z"/>
		<path fill="#1156A2" d="M75.5,115.2H64.2l-2.9,7h-4l12.1-27.7h0.8l12.2,27.7h-4L75.5,115.2z M65.5,111.9h8.6L70,102h-0.3
			L65.5,111.9z"/>
		<path fill="#1156A2" d="M96.5,98.5v23.7h-3.7V98.5h-8.7v-3.2h21.2v3.2H96.5z"/>
		<path fill="#1156A2" d="M111.4,116.8c1.9,1.5,4.3,2.6,7.3,2.6c3.6,0,4.9-1.9,4.9-4.1c0-2.2-1.3-3.4-4.8-5.4
			c-5.3-3.1-7.5-4.6-7.5-8.3c0-3.4,2.7-7.1,8.4-7.1c2.9,0,5.6,1.2,7.1,2.3l-0.9,3.2c-1.7-1.3-4-2.3-6.2-2.3c-3.4,0-4.8,1.4-4.8,3.5
			c0,1.8,1.1,2.9,5.5,5.3c5.1,2.7,7,5.3,7,8.5c0,5.1-3.6,7.6-8.8,7.6c-3.7,0-6.9-1.3-8.2-2.5L111.4,116.8z"/>
	</g>
</g>
<path fill="#1156A2" d="M0,0v138.1h141.7V0H0z M138.3,134.7H3.4V3.3h134.9V134.7z"/>
</svg>
