<?xml version="1.0" encoding="UTF-8" standalone="no"?>
<!DOCTYPE svg PUBLIC "-//W3C//DTD SVG 1.1//EN" "http://www.w3.org/Graphics/SVG/1.1/DTD/svg11.dtd">
<svg width="100%" height="100%" viewBox="0 0 1290 1097" version="1.1" xmlns="http://www.w3.org/2000/svg" xmlns:xlink="http://www.w3.org/1999/xlink" xml:space="preserve" xmlns:serif="http://www.serif.com/" style="fill-rule:evenodd;clip-rule:evenodd;">
    <g id="Artboard1" transform="matrix(1.79703,0,0,1.85443,43.9662,26.964)">
        <rect x="-24.466" y="-14.54" width="717.727" height="591.547" style="fill:none;"/>
        <g id="figure_1" transform="matrix(1.11295,0,0,1.0785,-23.6061,-12.786)">
            <rect id="patch_1" x="0" y="0" width="643.341" height="543.224" style="fill:none;"/>
            <g id="axes_1">
                <g id="matplotlib.axis_1">
                    <g id="xtick_1">
                        <g id="mbe433b6863" transform="matrix(1,0,0,1,130.927,208.278)">
                            <path d="M0,0L0,12" style="fill:rgb(38,38,38);fill-rule:nonzero;stroke:rgb(38,38,38);stroke-width:1.25px;"/>
                        </g>
                        <g id="text_1">
                            <g transform="matrix(1,0,0,1,94.1353,238.759)">
                                <text x="0px" y="0px" style="font-family:'Karla-Regular', 'Karla';font-size:22px;fill:rgb(38,38,38);">Control</text>
                            </g>
                            <g transform="matrix(1,0,0,1,99.8742,261.906)">
                                <text x="0px" y="0px" style="font-family:'Karla-Regular', 'Karla';font-size:22px;fill:rgb(38,38,38);">N = 20</text>
                            </g>
                        </g>
                    </g>
                    <g id="xtick_2">
                        <g id="mbe433b68631" serif:id="mbe433b6863" transform="matrix(1,0,0,1,228.577,208.278)">
                            <path d="M0,0L0,12" style="fill:rgb(38,38,38);fill-rule:nonzero;stroke:rgb(38,38,38);stroke-width:1.25px;"/>
                        </g>
                        <g id="text_2">
                            <g transform="matrix(1,0,0,1,201.223,238.759)">
                                <text x="0px" y="0px" style="font-family:'Karla-Regular', 'Karla';font-size:22px;fill:rgb(38,38,38);">T<tspan x="9.372px " y="0px ">e</tspan>st 1</text>
                            </g>
                            <g transform="matrix(1,0,0,1,197.524,261.906)">
                                <text x="0px" y="0px" style="font-family:'Karla-Regular', 'Karla';font-size:22px;fill:rgb(38,38,38);">N = 20</text>
                            </g>
                        </g>
                    </g>
                    <g id="xtick_3">
                        <g id="mbe433b68632" serif:id="mbe433b6863" transform="matrix(1,0,0,1,326.227,208.278)">
                            <path d="M0,0L0,12" style="fill:rgb(38,38,38);fill-rule:nonzero;stroke:rgb(38,38,38);stroke-width:1.25px;"/>
                        </g>
                        <g id="text_3">
                            <g transform="matrix(1,0,0,1,280.438,238.759)">
                                <text x="0px" y="0px" style="font-family:'Karla-Regular', 'Karla';font-size:22px;fill:rgb(38,38,38);">Control 2</text>
                            </g>
                            <g transform="matrix(1,0,0,1,295.174,261.906)">
                                <text x="0px" y="0px" style="font-family:'Karla-Regular', 'Karla';font-size:22px;fill:rgb(38,38,38);">N = 20</text>
                            </g>
                        </g>
                    </g>
                    <g id="xtick_4">
                        <g id="mbe433b68633" serif:id="mbe433b6863" transform="matrix(1,0,0,1,423.877,208.278)">
                            <path d="M0,0L0,12" style="fill:rgb(38,38,38);fill-rule:nonzero;stroke:rgb(38,38,38);stroke-width:1.25px;"/>
                        </g>
                        <g id="text_4">
                            <g transform="matrix(1,0,0,1,393.783,238.759)">
                                <text x="0px" y="0px" style="font-family:'Karla-Regular', 'Karla';font-size:22px;fill:rgb(38,38,38);">T<tspan x="9.372px " y="0px ">e</tspan>st 2</text>
                            </g>
                            <g transform="matrix(1,0,0,1,392.824,261.906)">
                                <text x="0px" y="0px" style="font-family:'Karla-Regular', 'Karla';font-size:22px;fill:rgb(38,38,38);">N = 20</text>
                            </g>
                        </g>
                    </g>
                </g>
                <g id="matplotlib.axis_2">
                    <g id="ytick_1">
                        <g id="me12a93f204" transform="matrix(1,0,0,1,82.1019,154.83)">
                            <path d="M0,0L-12,0" style="fill:rgb(38,38,38);fill-rule:nonzero;stroke:rgb(38,38,38);stroke-width:1.25px;"/>
                        </g>
                        <g id="text_5" transform="matrix(1,0,0,1,66.6019,162.32)">
                            <text x="-26.598px" y="0px" style="font-family:'Karla-Regular', 'Karla';font-size:22px;fill:rgb(38,38,38);">80</text>
                        </g>
                    </g>
                    <g id="ytick_2">
                        <g id="me12a93f2041" serif:id="me12a93f204" transform="matrix(1,0,0,1,82.1019,85.3847)">
                            <path d="M0,0L-12,0" style="fill:rgb(38,38,38);fill-rule:nonzero;stroke:rgb(38,38,38);stroke-width:1.25px;"/>
                        </g>
                        <g id="text_6" transform="matrix(1,0,0,1,66.6019,92.875)">
                            <text x="-33.418px" y="0px" style="font-family:'Karla-Regular', 'Karla';font-size:22px;fill:rgb(38,38,38);">100</text>
                        </g>
                    </g>
                    <g id="text_7" transform="matrix(-3.82857e-16,-1,1,-3.82857e-16,23.5425,113.739)">
                        <text x="-29.568px" y="0px" style="font-family:'Karla-Regular', 'Karla';font-size:24px;fill:rgb(38,38,38);">value</text>
                    </g>
                </g>
                <g id="PathCollection_1">
                    <g id="C0_0_aa0bf1a05d" transform="matrix(1,0,0,1,130.927,142.868)">
                        <path d="M0,3C0.796,3 1.559,2.684 2.121,2.121C2.684,1.559 3,0.796 3,0C3,-0.796 2.684,-1.559 2.121,-2.121C1.559,-2.684 0.796,-3 0,-3C-0.796,-3 -1.559,-2.684 -2.121,-2.121C-2.684,-1.559 -3,-0.796 -3,0C-3,0.796 -2.684,1.559 -2.121,2.121C-1.559,2.684 -0.796,3 0,3Z" style="fill:rgb(76,114,176);fill-rule:nonzero;"/>
                    </g>
                    <g id="C0_0_aa0bf1a05d1" serif:id="C0_0_aa0bf1a05d" transform="matrix(1,0,0,1,130.927,124.644)">
                        <path d="M0,3C0.796,3 1.559,2.684 2.121,2.121C2.684,1.559 3,0.796 3,0C3,-0.796 2.684,-1.559 2.121,-2.121C1.559,-2.684 0.796,-3 0,-3C-0.796,-3 -1.559,-2.684 -2.121,-2.121C-2.684,-1.559 -3,-0.796 -3,0C-3,0.796 -2.684,1.559 -2.121,2.121C-1.559,2.684 -0.796,3 0,3Z" style="fill:rgb(76,114,176);fill-rule:nonzero;"/>
                    </g>
                    <g id="C0_0_aa0bf1a05d2" serif:id="C0_0_aa0bf1a05d" transform="matrix(1,0,0,1,130.927,113.7)">
                        <path d="M0,3C0.796,3 1.559,2.684 2.121,2.121C2.684,1.559 3,0.796 3,0C3,-0.796 2.684,-1.559 2.121,-2.121C1.559,-2.684 0.796,-3 0,-3C-0.796,-3 -1.559,-2.684 -2.121,-2.121C-2.684,-1.559 -3,-0.796 -3,0C-3,0.796 -2.684,1.559 -2.121,2.121C-1.559,2.684 -0.796,3 0,3Z" style="fill:rgb(221,132,82);fill-rule:nonzero;"/>
                    </g>
                    <g id="C0_0_aa0bf1a05d3" serif:id="C0_0_aa0bf1a05d" transform="matrix(1,0,0,1,130.927,100.417)">
                        <path d="M0,3C0.796,3 1.559,2.684 2.121,2.121C2.684,1.559 3,0.796 3,0C3,-0.796 2.684,-1.559 2.121,-2.121C1.559,-2.684 0.796,-3 0,-3C-0.796,-3 -1.559,-2.684 -2.121,-2.121C-2.684,-1.559 -3,-0.796 -3,0C-3,0.796 -2.684,1.559 -2.121,2.121C-1.559,2.684 -0.796,3 0,3Z" style="fill:rgb(76,114,176);fill-rule:nonzero;"/>
                    </g>
                    <g id="C0_0_aa0bf1a05d4" serif:id="C0_0_aa0bf1a05d" transform="matrix(1,0,0,1,125.157,98.0085)">
                        <path d="M0,3C0.796,3 1.559,2.684 2.121,2.121C2.684,1.559 3,0.796 3,0C3,-0.796 2.684,-1.559 2.121,-2.121C1.559,-2.684 0.796,-3 0,-3C-0.796,-3 -1.559,-2.684 -2.121,-2.121C-2.684,-1.559 -3,-0.796 -3,0C-3,0.796 -2.684,1.559 -2.121,2.121C-1.559,2.684 -0.796,3 0,3Z" style="fill:rgb(221,132,82);fill-rule:nonzero;"/>
                    </g>
                    <g id="C0_0_aa0bf1a05d5" serif:id="C0_0_aa0bf1a05d" transform="matrix(1,0,0,1,136.562,97.7344)">
                        <path d="M0,3C0.796,3 1.559,2.684 2.121,2.121C2.684,1.559 3,0.796 3,0C3,-0.796 2.684,-1.559 2.121,-2.121C1.559,-2.684 0.796,-3 0,-3C-0.796,-3 -1.559,-2.684 -2.121,-2.121C-2.684,-1.559 -3,-0.796 -3,0C-3,0.796 -2.684,1.559 -2.121,2.121C-1.559,2.684 -0.796,3 0,3Z" style="fill:rgb(221,132,82);fill-rule:nonzero;"/>
                    </g>
                    <g id="C0_0_aa0bf1a05d6" serif:id="C0_0_aa0bf1a05d" transform="matrix(1,0,0,1,130.927,94.3637)">
                        <path d="M0,3C0.796,3 1.559,2.684 2.121,2.121C2.684,1.559 3,0.796 3,0C3,-0.796 2.684,-1.559 2.121,-2.121C1.559,-2.684 0.796,-3 0,-3C-0.796,-3 -1.559,-2.684 -2.121,-2.121C-2.684,-1.559 -3,-0.796 -3,0C-3,0.796 -2.684,1.559 -2.121,2.121C-1.559,2.684 -0.796,3 0,3Z" style="fill:rgb(76,114,176);fill-rule:nonzero;"/>
                    </g>
                    <g id="C0_0_aa0bf1a05d7" serif:id="C0_0_aa0bf1a05d" transform="matrix(1,0,0,1,120.998,93.5016)">
                        <path d="M0,3C0.796,3 1.559,2.684 2.121,2.121C2.684,1.559 3,0.796 3,0C3,-0.796 2.684,-1.559 2.121,-2.121C1.559,-2.684 0.796,-3 0,-3C-0.796,-3 -1.559,-2.684 -2.121,-2.121C-2.684,-1.559 -3,-0.796 -3,0C-3,0.796 -2.684,1.559 -2.121,2.121C-1.559,2.684 -0.796,3 0,3Z" style="fill:rgb(76,114,176);fill-rule:nonzero;"/>
                    </g>
                    <g id="C0_0_aa0bf1a05d8" serif:id="C0_0_aa0bf1a05d" transform="matrix(1,0,0,1,127.006,89.6672)">
                        <path d="M0,3C0.796,3 1.559,2.684 2.121,2.121C2.684,1.559 3,0.796 3,0C3,-0.796 2.684,-1.559 2.121,-2.121C1.559,-2.684 0.796,-3 0,-3C-0.796,-3 -1.559,-2.684 -2.121,-2.121C-2.684,-1.559 -3,-0.796 -3,0C-3,0.796 -2.684,1.559 -2.121,2.121C-1.559,2.684 -0.796,3 0,3Z" style="fill:rgb(76,114,176);fill-rule:nonzero;"/>
                    </g>
                    <g id="C0_0_aa0bf1a05d9" serif:id="C0_0_aa0bf1a05d" transform="matrix(1,0,0,1,130.927,82.2899)">
                        <path d="M0,3C0.796,3 1.559,2.684 2.121,2.121C2.684,1.559 3,0.796 3,0C3,-0.796 2.684,-1.559 2.121,-2.121C1.559,-2.684 0.796,-3 0,-3C-0.796,-3 -1.559,-2.684 -2.121,-2.121C-2.684,-1.559 -3,-0.796 -3,0C-3,0.796 -2.684,1.559 -2.121,2.121C-1.559,2.684 -0.796,3 0,3Z" style="fill:rgb(76,114,176);fill-rule:nonzero;"/>
                    </g>
                    <g id="C0_0_aa0bf1a05d10" serif:id="C0_0_aa0bf1a05d" transform="matrix(1,0,0,1,124.634,82.0043)">
                        <path d="M0,3C0.796,3 1.559,2.684 2.121,2.121C2.684,1.559 3,0.796 3,0C3,-0.796 2.684,-1.559 2.121,-2.121C1.559,-2.684 0.796,-3 0,-3C-0.796,-3 -1.559,-2.684 -2.121,-2.121C-2.684,-1.559 -3,-0.796 -3,0C-3,0.796 -2.684,1.559 -2.121,2.121C-1.559,2.684 -0.796,3 0,3Z" style="fill:rgb(221,132,82);fill-rule:nonzero;"/>
                    </g>
                    <g id="C0_0_aa0bf1a05d11" serif:id="C0_0_aa0bf1a05d" transform="matrix(1,0,0,1,136.957,80.5514)">
                        <path d="M0,3C0.796,3 1.559,2.684 2.121,2.121C2.684,1.559 3,0.796 3,0C3,-0.796 2.684,-1.559 2.121,-2.121C1.559,-2.684 0.796,-3 0,-3C-0.796,-3 -1.559,-2.684 -2.121,-2.121C-2.684,-1.559 -3,-0.796 -3,0C-3,0.796 -2.684,1.559 -2.121,2.121C-1.559,2.684 -0.796,3 0,3Z" style="fill:rgb(221,132,82);fill-rule:nonzero;"/>
                    </g>
                    <g id="C0_0_aa0bf1a05d12" serif:id="C0_0_aa0bf1a05d" transform="matrix(1,0,0,1,143.254,80.389)">
                        <path d="M0,3C0.796,3 1.559,2.684 2.121,2.121C2.684,1.559 3,0.796 3,0C3,-0.796 2.684,-1.559 2.121,-2.121C1.559,-2.684 0.796,-3 0,-3C-0.796,-3 -1.559,-2.684 -2.121,-2.121C-2.684,-1.559 -3,-0.796 -3,0C-3,0.796 -2.684,1.559 -2.121,2.121C-1.559,2.684 -0.796,3 0,3Z" style="fill:rgb(221,132,82);fill-rule:nonzero;"/>
                    </g>
                    <g id="C0_0_aa0bf1a05d13" serif:id="C0_0_aa0bf1a05d" transform="matrix(1,0,0,1,120.555,77.4315)">
                        <path d="M0,3C0.796,3 1.559,2.684 2.121,2.121C2.684,1.559 3,0.796 3,0C3,-0.796 2.684,-1.559 2.121,-2.121C1.559,-2.684 0.796,-3 0,-3C-0.796,-3 -1.559,-2.684 -2.121,-2.121C-2.684,-1.559 -3,-0.796 -3,0C-3,0.796 -2.684,1.559 -2.121,2.121C-1.559,2.684 -0.796,3 0,3Z" style="fill:rgb(221,132,82);fill-rule:nonzero;"/>
                    </g>
                    <g id="C0_0_aa0bf1a05d14" serif:id="C0_0_aa0bf1a05d" transform="matrix(1,0,0,1,130.927,71.2741)">
                        <path d="M0,3C0.796,3 1.559,2.684 2.121,2.121C2.684,1.559 3,0.796 3,0C3,-0.796 2.684,-1.559 2.121,-2.121C1.559,-2.684 0.796,-3 0,-3C-0.796,-3 -1.559,-2.684 -2.121,-2.121C-2.684,-1.559 -3,-0.796 -3,0C-3,0.796 -2.684,1.559 -2.121,2.121C-1.559,2.684 -0.796,3 0,3Z" style="fill:rgb(221,132,82);fill-rule:nonzero;"/>
                    </g>
                    <g id="C0_0_aa0bf1a05d15" serif:id="C0_0_aa0bf1a05d" transform="matrix(1,0,0,1,126.174,67.3353)">
                        <path d="M0,3C0.796,3 1.559,2.684 2.121,2.121C2.684,1.559 3,0.796 3,0C3,-0.796 2.684,-1.559 2.121,-2.121C1.559,-2.684 0.796,-3 0,-3C-0.796,-3 -1.559,-2.684 -2.121,-2.121C-2.684,-1.559 -3,-0.796 -3,0C-3,0.796 -2.684,1.559 -2.121,2.121C-1.559,2.684 -0.796,3 0,3Z" style="fill:rgb(76,114,176);fill-rule:nonzero;"/>
                    </g>
                    <g id="C0_0_aa0bf1a05d16" serif:id="C0_0_aa0bf1a05d" transform="matrix(1,0,0,1,133.84,65.9542)">
                        <path d="M0,3C0.796,3 1.559,2.684 2.121,2.121C2.684,1.559 3,0.796 3,0C3,-0.796 2.684,-1.559 2.121,-2.121C1.559,-2.684 0.796,-3 0,-3C-0.796,-3 -1.559,-2.684 -2.121,-2.121C-2.684,-1.559 -3,-0.796 -3,0C-3,0.796 -2.684,1.559 -2.121,2.121C-1.559,2.684 -0.796,3 0,3Z" style="fill:rgb(76,114,176);fill-rule:nonzero;"/>
                    </g>
                    <g id="C0_0_aa0bf1a05d17" serif:id="C0_0_aa0bf1a05d" transform="matrix(1,0,0,1,129.559,61.5525)">
                        <path d="M0,3C0.796,3 1.559,2.684 2.121,2.121C2.684,1.559 3,0.796 3,0C3,-0.796 2.684,-1.559 2.121,-2.121C1.559,-2.684 0.796,-3 0,-3C-0.796,-3 -1.559,-2.684 -2.121,-2.121C-2.684,-1.559 -3,-0.796 -3,0C-3,0.796 -2.684,1.559 -2.121,2.121C-1.559,2.684 -0.796,3 0,3Z" style="fill:rgb(76,114,176);fill-rule:nonzero;"/>
                    </g>
                    <g id="C0_0_aa0bf1a05d18" serif:id="C0_0_aa0bf1a05d" transform="matrix(1,0,0,1,135.631,59.953)">
                        <path d="M0,3C0.796,3 1.559,2.684 2.121,2.121C2.684,1.559 3,0.796 3,0C3,-0.796 2.684,-1.559 2.121,-2.121C1.559,-2.684 0.796,-3 0,-3C-0.796,-3 -1.559,-2.684 -2.121,-2.121C-2.684,-1.559 -3,-0.796 -3,0C-3,0.796 -2.684,1.559 -2.121,2.121C-1.559,2.684 -0.796,3 0,3Z" style="fill:rgb(221,132,82);fill-rule:nonzero;"/>
                    </g>
                    <g id="C0_0_aa0bf1a05d19" serif:id="C0_0_aa0bf1a05d" transform="matrix(1,0,0,1,130.927,39.5973)">
                        <path d="M0,3C0.796,3 1.559,2.684 2.121,2.121C2.684,1.559 3,0.796 3,0C3,-0.796 2.684,-1.559 2.121,-2.121C1.559,-2.684 0.796,-3 0,-3C-0.796,-3 -1.559,-2.684 -2.121,-2.121C-2.684,-1.559 -3,-0.796 -3,0C-3,0.796 -2.684,1.559 -2.121,2.121C-1.559,2.684 -0.796,3 0,3Z" style="fill:rgb(221,132,82);fill-rule:nonzero;"/>
                    </g>
                </g>
                <g id="PathCollection_2">
                    <g id="C1_0_ca8e90e0f7" transform="matrix(1,0,0,1,228.577,92.7553)">
                        <path d="M0,3C0.796,3 1.559,2.684 2.121,2.121C2.684,1.559 3,0.796 3,0C3,-0.796 2.684,-1.559 2.121,-2.121C1.559,-2.684 0.796,-3 0,-3C-0.796,-3 -1.559,-2.684 -2.121,-2.121C-2.684,-1.559 -3,-0.796 -3,0C-3,0.796 -2.684,1.559 -2.121,2.121C-1.559,2.684 -0.796,3 0,3Z" style="fill:rgb(76,114,176);fill-rule:nonzero;"/>
                    </g>
                    <g id="C1_0_ca8e90e0f71" serif:id="C1_0_ca8e90e0f7" transform="matrix(1,0,0,1,225.342,87.6066)">
                        <path d="M0,3C0.796,3 1.559,2.684 2.121,2.121C2.684,1.559 3,0.796 3,0C3,-0.796 2.684,-1.559 2.121,-2.121C1.559,-2.684 0.796,-3 0,-3C-0.796,-3 -1.559,-2.684 -2.121,-2.121C-2.684,-1.559 -3,-0.796 -3,0C-3,0.796 -2.684,1.559 -2.121,2.121C-1.559,2.684 -0.796,3 0,3Z" style="fill:rgb(221,132,82);fill-rule:nonzero;"/>
                    </g>
                    <g id="C1_0_ca8e90e0f72" serif:id="C1_0_ca8e90e0f7" transform="matrix(1,0,0,1,231.233,85.4803)">
                        <path d="M0,3C0.796,3 1.559,2.684 2.121,2.121C2.684,1.559 3,0.796 3,0C3,-0.796 2.684,-1.559 2.121,-2.121C1.559,-2.684 0.796,-3 0,-3C-0.796,-3 -1.559,-2.684 -2.121,-2.121C-2.684,-1.559 -3,-0.796 -3,0C-3,0.796 -2.684,1.559 -2.121,2.121C-1.559,2.684 -0.796,3 0,3Z" style="fill:rgb(76,114,176);fill-rule:nonzero;"/>
                    </g>
                    <g id="C1_0_ca8e90e0f73" serif:id="C1_0_ca8e90e0f7" transform="matrix(1,0,0,1,228.577,79.3853)">
                        <path d="M0,3C0.796,3 1.559,2.684 2.121,2.121C2.684,1.559 3,0.796 3,0C3,-0.796 2.684,-1.559 2.121,-2.121C1.559,-2.684 0.796,-3 0,-3C-0.796,-3 -1.559,-2.684 -2.121,-2.121C-2.684,-1.559 -3,-0.796 -3,0C-3,0.796 -2.684,1.559 -2.121,2.121C-1.559,2.684 -0.796,3 0,3Z" style="fill:rgb(221,132,82);fill-rule:nonzero;"/>
                    </g>
                    <g id="C1_0_ca8e90e0f74" serif:id="C1_0_ca8e90e0f7" transform="matrix(1,0,0,1,222.649,77.3547)">
                        <path d="M0,3C0.796,3 1.559,2.684 2.121,2.121C2.684,1.559 3,0.796 3,0C3,-0.796 2.684,-1.559 2.121,-2.121C1.559,-2.684 0.796,-3 0,-3C-0.796,-3 -1.559,-2.684 -2.121,-2.121C-2.684,-1.559 -3,-0.796 -3,0C-3,0.796 -2.684,1.559 -2.121,2.121C-1.559,2.684 -0.796,3 0,3Z" style="fill:rgb(76,114,176);fill-rule:nonzero;"/>
                    </g>
                    <g id="C1_0_ca8e90e0f75" serif:id="C1_0_ca8e90e0f7" transform="matrix(1,0,0,1,233.472,75.6079)">
                        <path d="M0,3C0.796,3 1.559,2.684 2.121,2.121C2.684,1.559 3,0.796 3,0C3,-0.796 2.684,-1.559 2.121,-2.121C1.559,-2.684 0.796,-3 0,-3C-0.796,-3 -1.559,-2.684 -2.121,-2.121C-2.684,-1.559 -3,-0.796 -3,0C-3,0.796 -2.684,1.559 -2.121,2.121C-1.559,2.684 -0.796,3 0,3Z" style="fill:rgb(221,132,82);fill-rule:nonzero;"/>
                    </g>
                    <g id="C1_0_ca8e90e0f76" serif:id="C1_0_ca8e90e0f7" transform="matrix(1,0,0,1,239.761,75.2572)">
                        <path d="M0,3C0.796,3 1.559,2.684 2.121,2.121C2.684,1.559 3,0.796 3,0C3,-0.796 2.684,-1.559 2.121,-2.121C1.559,-2.684 0.796,-3 0,-3C-0.796,-3 -1.559,-2.684 -2.121,-2.121C-2.684,-1.559 -3,-0.796 -3,0C-3,0.796 -2.684,1.559 -2.121,2.121C-1.559,2.684 -0.796,3 0,3Z" style="fill:rgb(221,132,82);fill-rule:nonzero;"/>
                    </g>
                    <g id="C1_0_ca8e90e0f77" serif:id="C1_0_ca8e90e0f7" transform="matrix(1,0,0,1,228.577,70.9287)">
                        <path d="M0,3C0.796,3 1.559,2.684 2.121,2.121C2.684,1.559 3,0.796 3,0C3,-0.796 2.684,-1.559 2.121,-2.121C1.559,-2.684 0.796,-3 0,-3C-0.796,-3 -1.559,-2.684 -2.121,-2.121C-2.684,-1.559 -3,-0.796 -3,0C-3,0.796 -2.684,1.559 -2.121,2.121C-1.559,2.684 -0.796,3 0,3Z" style="fill:rgb(76,114,176);fill-rule:nonzero;"/>
                    </g>
                    <g id="C1_0_ca8e90e0f78" serif:id="C1_0_ca8e90e0f7" transform="matrix(1,0,0,1,222.607,69.0129)">
                        <path d="M0,3C0.796,3 1.559,2.684 2.121,2.121C2.684,1.559 3,0.796 3,0C3,-0.796 2.684,-1.559 2.121,-2.121C1.559,-2.684 0.796,-3 0,-3C-0.796,-3 -1.559,-2.684 -2.121,-2.121C-2.684,-1.559 -3,-0.796 -3,0C-3,0.796 -2.684,1.559 -2.121,2.121C-1.559,2.684 -0.796,3 0,3Z" style="fill:rgb(76,114,176);fill-rule:nonzero;"/>
                    </g>
                    <g id="C1_0_ca8e90e0f79" serif:id="C1_0_ca8e90e0f7" transform="matrix(1,0,0,1,233.358,67.0221)">
                        <path d="M0,3C0.796,3 1.559,2.684 2.121,2.121C2.684,1.559 3,0.796 3,0C3,-0.796 2.684,-1.559 2.121,-2.121C1.559,-2.684 0.796,-3 0,-3C-0.796,-3 -1.559,-2.684 -2.121,-2.121C-2.684,-1.559 -3,-0.796 -3,0C-3,0.796 -2.684,1.559 -2.121,2.121C-1.559,2.684 -0.796,3 0,3Z" style="fill:rgb(221,132,82);fill-rule:nonzero;"/>
                    </g>
                    <g id="C1_0_ca8e90e0f710" serif:id="C1_0_ca8e90e0f7" transform="matrix(1,0,0,1,239.355,65.1837)">
                        <path d="M0,3C0.796,3 1.559,2.684 2.121,2.121C2.684,1.559 3,0.796 3,0C3,-0.796 2.684,-1.559 2.121,-2.121C1.559,-2.684 0.796,-3 0,-3C-0.796,-3 -1.559,-2.684 -2.121,-2.121C-2.684,-1.559 -3,-0.796 -3,0C-3,0.796 -2.684,1.559 -2.121,2.121C-1.559,2.684 -0.796,3 0,3Z" style="fill:rgb(221,132,82);fill-rule:nonzero;"/>
                    </g>
                    <g id="C1_0_ca8e90e0f711" serif:id="C1_0_ca8e90e0f7" transform="matrix(1,0,0,1,227.79,64.2157)">
                        <path d="M0,3C0.796,3 1.559,2.684 2.121,2.121C2.684,1.559 3,0.796 3,0C3,-0.796 2.684,-1.559 2.121,-2.121C1.559,-2.684 0.796,-3 0,-3C-0.796,-3 -1.559,-2.684 -2.121,-2.121C-2.684,-1.559 -3,-0.796 -3,0C-3,0.796 -2.684,1.559 -2.121,2.121C-1.559,2.684 -0.796,3 0,3Z" style="fill:rgb(76,114,176);fill-rule:nonzero;"/>
                    </g>
                    <g id="C1_0_ca8e90e0f712" serif:id="C1_0_ca8e90e0f7" transform="matrix(1,0,0,1,221.665,62.8102)">
                        <path d="M0,3C0.796,3 1.559,2.684 2.121,2.121C2.684,1.559 3,0.796 3,0C3,-0.796 2.684,-1.559 2.121,-2.121C1.559,-2.684 0.796,-3 0,-3C-0.796,-3 -1.559,-2.684 -2.121,-2.121C-2.684,-1.559 -3,-0.796 -3,0C-3,0.796 -2.684,1.559 -2.121,2.121C-1.559,2.684 -0.796,3 0,3Z" style="fill:rgb(221,132,82);fill-rule:nonzero;"/>
                    </g>
                    <g id="C1_0_ca8e90e0f713" serif:id="C1_0_ca8e90e0f7" transform="matrix(1,0,0,1,215.372,62.5415)">
                        <path d="M0,3C0.796,3 1.559,2.684 2.121,2.121C2.684,1.559 3,0.796 3,0C3,-0.796 2.684,-1.559 2.121,-2.121C1.559,-2.684 0.796,-3 0,-3C-0.796,-3 -1.559,-2.684 -2.121,-2.121C-2.684,-1.559 -3,-0.796 -3,0C-3,0.796 -2.684,1.559 -2.121,2.121C-1.559,2.684 -0.796,3 0,3Z" style="fill:rgb(221,132,82);fill-rule:nonzero;"/>
                    </g>
                    <g id="C1_0_ca8e90e0f714" serif:id="C1_0_ca8e90e0f7" transform="matrix(1,0,0,1,244.785,62.1401)">
                        <path d="M0,3C0.796,3 1.559,2.684 2.121,2.121C2.684,1.559 3,0.796 3,0C3,-0.796 2.684,-1.559 2.121,-2.121C1.559,-2.684 0.796,-3 0,-3C-0.796,-3 -1.559,-2.684 -2.121,-2.121C-2.684,-1.559 -3,-0.796 -3,0C-3,0.796 -2.684,1.559 -2.121,2.121C-1.559,2.684 -0.796,3 0,3Z" style="fill:rgb(221,132,82);fill-rule:nonzero;"/>
                    </g>
                    <g id="C1_0_ca8e90e0f715" serif:id="C1_0_ca8e90e0f7" transform="matrix(1,0,0,1,209.111,61.8755)">
                        <path d="M0,3C0.796,3 1.559,2.684 2.121,2.121C2.684,1.559 3,0.796 3,0C3,-0.796 2.684,-1.559 2.121,-2.121C1.559,-2.684 0.796,-3 0,-3C-0.796,-3 -1.559,-2.684 -2.121,-2.121C-2.684,-1.559 -3,-0.796 -3,0C-3,0.796 -2.684,1.559 -2.121,2.121C-1.559,2.684 -0.796,3 0,3Z" style="fill:rgb(76,114,176);fill-rule:nonzero;"/>
                    </g>
                    <g id="C1_0_ca8e90e0f716" serif:id="C1_0_ca8e90e0f7" transform="matrix(1,0,0,1,231.664,59.4844)">
                        <path d="M0,3C0.796,3 1.559,2.684 2.121,2.121C2.684,1.559 3,0.796 3,0C3,-0.796 2.684,-1.559 2.121,-2.121C1.559,-2.684 0.796,-3 0,-3C-0.796,-3 -1.559,-2.684 -2.121,-2.121C-2.684,-1.559 -3,-0.796 -3,0C-3,0.796 -2.684,1.559 -2.121,2.121C-1.559,2.684 -0.796,3 0,3Z" style="fill:rgb(76,114,176);fill-rule:nonzero;"/>
                    </g>
                    <g id="C1_0_ca8e90e0f717" serif:id="C1_0_ca8e90e0f7" transform="matrix(1,0,0,1,225.556,58.0179)">
                        <path d="M0,3C0.796,3 1.559,2.684 2.121,2.121C2.684,1.559 3,0.796 3,0C3,-0.796 2.684,-1.559 2.121,-2.121C1.559,-2.684 0.796,-3 0,-3C-0.796,-3 -1.559,-2.684 -2.121,-2.121C-2.684,-1.559 -3,-0.796 -3,0C-3,0.796 -2.684,1.559 -2.121,2.121C-1.559,2.684 -0.796,3 0,3Z" style="fill:rgb(221,132,82);fill-rule:nonzero;"/>
                    </g>
                    <g id="C1_0_ca8e90e0f718" serif:id="C1_0_ca8e90e0f7" transform="matrix(1,0,0,1,237.204,56.6275)">
                        <path d="M0,3C0.796,3 1.559,2.684 2.121,2.121C2.684,1.559 3,0.796 3,0C3,-0.796 2.684,-1.559 2.121,-2.121C1.559,-2.684 0.796,-3 0,-3C-0.796,-3 -1.559,-2.684 -2.121,-2.121C-2.684,-1.559 -3,-0.796 -3,0C-3,0.796 -2.684,1.559 -2.121,2.121C-1.559,2.684 -0.796,3 0,3Z" style="fill:rgb(76,114,176);fill-rule:nonzero;"/>
                    </g>
                    <g id="C1_0_ca8e90e0f719" serif:id="C1_0_ca8e90e0f7" transform="matrix(1,0,0,1,228.577,29.0932)">
                        <path d="M0,3C0.796,3 1.559,2.684 2.121,2.121C2.684,1.559 3,0.796 3,0C3,-0.796 2.684,-1.559 2.121,-2.121C1.559,-2.684 0.796,-3 0,-3C-0.796,-3 -1.559,-2.684 -2.121,-2.121C-2.684,-1.559 -3,-0.796 -3,0C-3,0.796 -2.684,1.559 -2.121,2.121C-1.559,2.684 -0.796,3 0,3Z" style="fill:rgb(76,114,176);fill-rule:nonzero;"/>
                    </g>
                </g>
                <g id="PathCollection_3">
                    <g id="C2_0_fafe2f7a0f" transform="matrix(1,0,0,1,326.227,160.818)">
                        <path d="M0,3C0.796,3 1.559,2.684 2.121,2.121C2.684,1.559 3,0.796 3,0C3,-0.796 2.684,-1.559 2.121,-2.121C1.559,-2.684 0.796,-3 0,-3C-0.796,-3 -1.559,-2.684 -2.121,-2.121C-2.684,-1.559 -3,-0.796 -3,0C-3,0.796 -2.684,1.559 -2.121,2.121C-1.559,2.684 -0.796,3 0,3Z" style="fill:rgb(76,114,176);fill-rule:nonzero;"/>
                    </g>
                    <g id="C2_0_fafe2f7a0f1" serif:id="C2_0_fafe2f7a0f" transform="matrix(1,0,0,1,326.227,144.031)">
                        <path d="M0,3C0.796,3 1.559,2.684 2.121,2.121C2.684,1.559 3,0.796 3,0C3,-0.796 2.684,-1.559 2.121,-2.121C1.559,-2.684 0.796,-3 0,-3C-0.796,-3 -1.559,-2.684 -2.121,-2.121C-2.684,-1.559 -3,-0.796 -3,0C-3,0.796 -2.684,1.559 -2.121,2.121C-1.559,2.684 -0.796,3 0,3Z" style="fill:rgb(221,132,82);fill-rule:nonzero;"/>
                    </g>
                    <g id="C2_0_fafe2f7a0f2" serif:id="C2_0_fafe2f7a0f" transform="matrix(1,0,0,1,320.499,141.533)">
                        <path d="M0,3C0.796,3 1.559,2.684 2.121,2.121C2.684,1.559 3,0.796 3,0C3,-0.796 2.684,-1.559 2.121,-2.121C1.559,-2.684 0.796,-3 0,-3C-0.796,-3 -1.559,-2.684 -2.121,-2.121C-2.684,-1.559 -3,-0.796 -3,0C-3,0.796 -2.684,1.559 -2.121,2.121C-1.559,2.684 -0.796,3 0,3Z" style="fill:rgb(221,132,82);fill-rule:nonzero;"/>
                    </g>
                    <g id="C2_0_fafe2f7a0f3" serif:id="C2_0_fafe2f7a0f" transform="matrix(1,0,0,1,326.227,134.058)">
                        <path d="M0,3C0.796,3 1.559,2.684 2.121,2.121C2.684,1.559 3,0.796 3,0C3,-0.796 2.684,-1.559 2.121,-2.121C1.559,-2.684 0.796,-3 0,-3C-0.796,-3 -1.559,-2.684 -2.121,-2.121C-2.684,-1.559 -3,-0.796 -3,0C-3,0.796 -2.684,1.559 -2.121,2.121C-1.559,2.684 -0.796,3 0,3Z" style="fill:rgb(221,132,82);fill-rule:nonzero;"/>
                    </g>
                    <g id="C2_0_fafe2f7a0f4" serif:id="C2_0_fafe2f7a0f" transform="matrix(1,0,0,1,320.005,133.115)">
                        <path d="M0,3C0.796,3 1.559,2.684 2.121,2.121C2.684,1.559 3,0.796 3,0C3,-0.796 2.684,-1.559 2.121,-2.121C1.559,-2.684 0.796,-3 0,-3C-0.796,-3 -1.559,-2.684 -2.121,-2.121C-2.684,-1.559 -3,-0.796 -3,0C-3,0.796 -2.684,1.559 -2.121,2.121C-1.559,2.684 -0.796,3 0,3Z" style="fill:rgb(221,132,82);fill-rule:nonzero;"/>
                    </g>
                    <g id="C2_0_fafe2f7a0f5" serif:id="C2_0_fafe2f7a0f" transform="matrix(1,0,0,1,330.943,130.079)">
                        <path d="M0,3C0.796,3 1.559,2.684 2.121,2.121C2.684,1.559 3,0.796 3,0C3,-0.796 2.684,-1.559 2.121,-2.121C1.559,-2.684 0.796,-3 0,-3C-0.796,-3 -1.559,-2.684 -2.121,-2.121C-2.684,-1.559 -3,-0.796 -3,0C-3,0.796 -2.684,1.559 -2.121,2.121C-1.559,2.684 -0.796,3 0,3Z" style="fill:rgb(76,114,176);fill-rule:nonzero;"/>
                    </g>
                    <g id="C2_0_fafe2f7a0f6" serif:id="C2_0_fafe2f7a0f" transform="matrix(1,0,0,1,326.227,126.101)">
                        <path d="M0,3C0.796,3 1.559,2.684 2.121,2.121C2.684,1.559 3,0.796 3,0C3,-0.796 2.684,-1.559 2.121,-2.121C1.559,-2.684 0.796,-3 0,-3C-0.796,-3 -1.559,-2.684 -2.121,-2.121C-2.684,-1.559 -3,-0.796 -3,0C-3,0.796 -2.684,1.559 -2.121,2.121C-1.559,2.684 -0.796,3 0,3Z" style="fill:rgb(76,114,176);fill-rule:nonzero;"/>
                    </g>
                    <g id="C2_0_fafe2f7a0f7" serif:id="C2_0_fafe2f7a0f" transform="matrix(1,0,0,1,320.602,123.399)">
                        <path d="M0,3C0.796,3 1.559,2.684 2.121,2.121C2.684,1.559 3,0.796 3,0C3,-0.796 2.684,-1.559 2.121,-2.121C1.559,-2.684 0.796,-3 0,-3C-0.796,-3 -1.559,-2.684 -2.121,-2.121C-2.684,-1.559 -3,-0.796 -3,0C-3,0.796 -2.684,1.559 -2.121,2.121C-1.559,2.684 -0.796,3 0,3Z" style="fill:rgb(221,132,82);fill-rule:nonzero;"/>
                    </g>
                    <g id="C2_0_fafe2f7a0f8" serif:id="C2_0_fafe2f7a0f" transform="matrix(1,0,0,1,331.013,122.199)">
                        <path d="M0,3C0.796,3 1.559,2.684 2.121,2.121C2.684,1.559 3,0.796 3,0C3,-0.796 2.684,-1.559 2.121,-2.121C1.559,-2.684 0.796,-3 0,-3C-0.796,-3 -1.559,-2.684 -2.121,-2.121C-2.684,-1.559 -3,-0.796 -3,0C-3,0.796 -2.684,1.559 -2.121,2.121C-1.559,2.684 -0.796,3 0,3Z" style="fill:rgb(76,114,176);fill-rule:nonzero;"/>
                    </g>
                    <g id="C2_0_fafe2f7a0f9" serif:id="C2_0_fafe2f7a0f" transform="matrix(1,0,0,1,336.806,119.842)">
                        <path d="M0,3C0.796,3 1.559,2.684 2.121,2.121C2.684,1.559 3,0.796 3,0C3,-0.796 2.684,-1.559 2.121,-2.121C1.559,-2.684 0.796,-3 0,-3C-0.796,-3 -1.559,-2.684 -2.121,-2.121C-2.684,-1.559 -3,-0.796 -3,0C-3,0.796 -2.684,1.559 -2.121,2.121C-1.559,2.684 -0.796,3 0,3Z" style="fill:rgb(76,114,176);fill-rule:nonzero;"/>
                    </g>
                    <g id="C2_0_fafe2f7a0f10" serif:id="C2_0_fafe2f7a0f" transform="matrix(1,0,0,1,325.858,118.75)">
                        <path d="M0,3C0.796,3 1.559,2.684 2.121,2.121C2.684,1.559 3,0.796 3,0C3,-0.796 2.684,-1.559 2.121,-2.121C1.559,-2.684 0.796,-3 0,-3C-0.796,-3 -1.559,-2.684 -2.121,-2.121C-2.684,-1.559 -3,-0.796 -3,0C-3,0.796 -2.684,1.559 -2.121,2.121C-1.559,2.684 -0.796,3 0,3Z" style="fill:rgb(221,132,82);fill-rule:nonzero;"/>
                    </g>
                    <g id="C2_0_fafe2f7a0f11" serif:id="C2_0_fafe2f7a0f" transform="matrix(1,0,0,1,318.673,117.687)">
                        <path d="M0,3C0.796,3 1.559,2.684 2.121,2.121C2.684,1.559 3,0.796 3,0C3,-0.796 2.684,-1.559 2.121,-2.121C1.559,-2.684 0.796,-3 0,-3C-0.796,-3 -1.559,-2.684 -2.121,-2.121C-2.684,-1.559 -3,-0.796 -3,0C-3,0.796 -2.684,1.559 -2.121,2.121C-1.559,2.684 -0.796,3 0,3Z" style="fill:rgb(221,132,82);fill-rule:nonzero;"/>
                    </g>
                    <g id="C2_0_fafe2f7a0f12" serif:id="C2_0_fafe2f7a0f" transform="matrix(1,0,0,1,312.424,116.923)">
                        <path d="M0,3C0.796,3 1.559,2.684 2.121,2.121C2.684,1.559 3,0.796 3,0C3,-0.796 2.684,-1.559 2.121,-2.121C1.559,-2.684 0.796,-3 0,-3C-0.796,-3 -1.559,-2.684 -2.121,-2.121C-2.684,-1.559 -3,-0.796 -3,0C-3,0.796 -2.684,1.559 -2.121,2.121C-1.559,2.684 -0.796,3 0,3Z" style="fill:rgb(76,114,176);fill-rule:nonzero;"/>
                    </g>
                    <g id="C2_0_fafe2f7a0f13" serif:id="C2_0_fafe2f7a0f" transform="matrix(1,0,0,1,328.748,113.419)">
                        <path d="M0,3C0.796,3 1.559,2.684 2.121,2.121C2.684,1.559 3,0.796 3,0C3,-0.796 2.684,-1.559 2.121,-2.121C1.559,-2.684 0.796,-3 0,-3C-0.796,-3 -1.559,-2.684 -2.121,-2.121C-2.684,-1.559 -3,-0.796 -3,0C-3,0.796 -2.684,1.559 -2.121,2.121C-1.559,2.684 -0.796,3 0,3Z" style="fill:rgb(221,132,82);fill-rule:nonzero;"/>
                    </g>
                    <g id="C2_0_fafe2f7a0f14" serif:id="C2_0_fafe2f7a0f" transform="matrix(1,0,0,1,322.819,111.391)">
                        <path d="M0,3C0.796,3 1.559,2.684 2.121,2.121C2.684,1.559 3,0.796 3,0C3,-0.796 2.684,-1.559 2.121,-2.121C1.559,-2.684 0.796,-3 0,-3C-0.796,-3 -1.559,-2.684 -2.121,-2.121C-2.684,-1.559 -3,-0.796 -3,0C-3,0.796 -2.684,1.559 -2.121,2.121C-1.559,2.684 -0.796,3 0,3Z" style="fill:rgb(76,114,176);fill-rule:nonzero;"/>
                    </g>
                    <g id="C2_0_fafe2f7a0f15" serif:id="C2_0_fafe2f7a0f" transform="matrix(1,0,0,1,326.716,106.676)">
                        <path d="M0,3C0.796,3 1.559,2.684 2.121,2.121C2.684,1.559 3,0.796 3,0C3,-0.796 2.684,-1.559 2.121,-2.121C1.559,-2.684 0.796,-3 0,-3C-0.796,-3 -1.559,-2.684 -2.121,-2.121C-2.684,-1.559 -3,-0.796 -3,0C-3,0.796 -2.684,1.559 -2.121,2.121C-1.559,2.684 -0.796,3 0,3Z" style="fill:rgb(76,114,176);fill-rule:nonzero;"/>
                    </g>
                    <g id="C2_0_fafe2f7a0f16" serif:id="C2_0_fafe2f7a0f" transform="matrix(1,0,0,1,320.583,105.304)">
                        <path d="M0,3C0.796,3 1.559,2.684 2.121,2.121C2.684,1.559 3,0.796 3,0C3,-0.796 2.684,-1.559 2.121,-2.121C1.559,-2.684 0.796,-3 0,-3C-0.796,-3 -1.559,-2.684 -2.121,-2.121C-2.684,-1.559 -3,-0.796 -3,0C-3,0.796 -2.684,1.559 -2.121,2.121C-1.559,2.684 -0.796,3 0,3Z" style="fill:rgb(221,132,82);fill-rule:nonzero;"/>
                    </g>
                    <g id="C2_0_fafe2f7a0f17" serif:id="C2_0_fafe2f7a0f" transform="matrix(1,0,0,1,332.79,105.085)">
                        <path d="M0,3C0.796,3 1.559,2.684 2.121,2.121C2.684,1.559 3,0.796 3,0C3,-0.796 2.684,-1.559 2.121,-2.121C1.559,-2.684 0.796,-3 0,-3C-0.796,-3 -1.559,-2.684 -2.121,-2.121C-2.684,-1.559 -3,-0.796 -3,0C-3,0.796 -2.684,1.559 -2.121,2.121C-1.559,2.684 -0.796,3 0,3Z" style="fill:rgb(76,114,176);fill-rule:nonzero;"/>
                    </g>
                    <g id="C2_0_fafe2f7a0f18" serif:id="C2_0_fafe2f7a0f" transform="matrix(1,0,0,1,326.227,75.2786)">
                        <path d="M0,3C0.796,3 1.559,2.684 2.121,2.121C2.684,1.559 3,0.796 3,0C3,-0.796 2.684,-1.559 2.121,-2.121C1.559,-2.684 0.796,-3 0,-3C-0.796,-3 -1.559,-2.684 -2.121,-2.121C-2.684,-1.559 -3,-0.796 -3,0C-3,0.796 -2.684,1.559 -2.121,2.121C-1.559,2.684 -0.796,3 0,3Z" style="fill:rgb(221,132,82);fill-rule:nonzero;"/>
                    </g>
                    <g id="C2_0_fafe2f7a0f19" serif:id="C2_0_fafe2f7a0f" transform="matrix(1,0,0,1,321.186,71.6794)">
                        <path d="M0,3C0.796,3 1.559,2.684 2.121,2.121C2.684,1.559 3,0.796 3,0C3,-0.796 2.684,-1.559 2.121,-2.121C1.559,-2.684 0.796,-3 0,-3C-0.796,-3 -1.559,-2.684 -2.121,-2.121C-2.684,-1.559 -3,-0.796 -3,0C-3,0.796 -2.684,1.559 -2.121,2.121C-1.559,2.684 -0.796,3 0,3Z" style="fill:rgb(76,114,176);fill-rule:nonzero;"/>
                    </g>
                </g>
                <g id="PathCollection_4">
                    <g id="C3_0_bae16824ca" transform="matrix(1,0,0,1,423.877,197.994)">
                        <path d="M0,3C0.796,3 1.559,2.684 2.121,2.121C2.684,1.559 3,0.796 3,0C3,-0.796 2.684,-1.559 2.121,-2.121C1.559,-2.684 0.796,-3 0,-3C-0.796,-3 -1.559,-2.684 -2.121,-2.121C-2.684,-1.559 -3,-0.796 -3,0C-3,0.796 -2.684,1.559 -2.121,2.121C-1.559,2.684 -0.796,3 0,3Z" style="fill:rgb(76,114,176);fill-rule:nonzero;"/>
                    </g>
                    <g id="C3_0_bae16824ca1" serif:id="C3_0_bae16824ca" transform="matrix(1,0,0,1,421.146,192.587)">
                        <path d="M0,3C0.796,3 1.559,2.684 2.121,2.121C2.684,1.559 3,0.796 3,0C3,-0.796 2.684,-1.559 2.121,-2.121C1.559,-2.684 0.796,-3 0,-3C-0.796,-3 -1.559,-2.684 -2.121,-2.121C-2.684,-1.559 -3,-0.796 -3,0C-3,0.796 -2.684,1.559 -2.121,2.121C-1.559,2.684 -0.796,3 0,3Z" style="fill:rgb(221,132,82);fill-rule:nonzero;"/>
                    </g>
                    <g id="C3_0_bae16824ca2" serif:id="C3_0_bae16824ca" transform="matrix(1,0,0,1,427.437,192.259)">
                        <path d="M0,3C0.796,3 1.559,2.684 2.121,2.121C2.684,1.559 3,0.796 3,0C3,-0.796 2.684,-1.559 2.121,-2.121C1.559,-2.684 0.796,-3 0,-3C-0.796,-3 -1.559,-2.684 -2.121,-2.121C-2.684,-1.559 -3,-0.796 -3,0C-3,0.796 -2.684,1.559 -2.121,2.121C-1.559,2.684 -0.796,3 0,3Z" style="fill:rgb(221,132,82);fill-rule:nonzero;"/>
                    </g>
                    <g id="C3_0_bae16824ca3" serif:id="C3_0_bae16824ca" transform="matrix(1,0,0,1,416.729,188.308)">
                        <path d="M0,3C0.796,3 1.559,2.684 2.121,2.121C2.684,1.559 3,0.796 3,0C3,-0.796 2.684,-1.559 2.121,-2.121C1.559,-2.684 0.796,-3 0,-3C-0.796,-3 -1.559,-2.684 -2.121,-2.121C-2.684,-1.559 -3,-0.796 -3,0C-3,0.796 -2.684,1.559 -2.121,2.121C-1.559,2.684 -0.796,3 0,3Z" style="fill:rgb(76,114,176);fill-rule:nonzero;"/>
                    </g>
                    <g id="C3_0_bae16824ca4" serif:id="C3_0_bae16824ca" transform="matrix(1,0,0,1,423.877,178.919)">
                        <path d="M0,3C0.796,3 1.559,2.684 2.121,2.121C2.684,1.559 3,0.796 3,0C3,-0.796 2.684,-1.559 2.121,-2.121C1.559,-2.684 0.796,-3 0,-3C-0.796,-3 -1.559,-2.684 -2.121,-2.121C-2.684,-1.559 -3,-0.796 -3,0C-3,0.796 -2.684,1.559 -2.121,2.121C-1.559,2.684 -0.796,3 0,3Z" style="fill:rgb(221,132,82);fill-rule:nonzero;"/>
                    </g>
                    <g id="C3_0_bae16824ca5" serif:id="C3_0_bae16824ca" transform="matrix(1,0,0,1,423.877,161.857)">
                        <path d="M0,3C0.796,3 1.559,2.684 2.121,2.121C2.684,1.559 3,0.796 3,0C3,-0.796 2.684,-1.559 2.121,-2.121C1.559,-2.684 0.796,-3 0,-3C-0.796,-3 -1.559,-2.684 -2.121,-2.121C-2.684,-1.559 -3,-0.796 -3,0C-3,0.796 -2.684,1.559 -2.121,2.121C-1.559,2.684 -0.796,3 0,3Z" style="fill:rgb(221,132,82);fill-rule:nonzero;"/>
                    </g>
                    <g id="C3_0_bae16824ca6" serif:id="C3_0_bae16824ca" transform="matrix(1,0,0,1,417.578,161.756)">
                        <path d="M0,3C0.796,3 1.559,2.684 2.121,2.121C2.684,1.559 3,0.796 3,0C3,-0.796 2.684,-1.559 2.121,-2.121C1.559,-2.684 0.796,-3 0,-3C-0.796,-3 -1.559,-2.684 -2.121,-2.121C-2.684,-1.559 -3,-0.796 -3,0C-3,0.796 -2.684,1.559 -2.121,2.121C-1.559,2.684 -0.796,3 0,3Z" style="fill:rgb(221,132,82);fill-rule:nonzero;"/>
                    </g>
                    <g id="C3_0_bae16824ca7" serif:id="C3_0_bae16824ca" transform="matrix(1,0,0,1,429.857,159.971)">
                        <path d="M0,3C0.796,3 1.559,2.684 2.121,2.121C2.684,1.559 3,0.796 3,0C3,-0.796 2.684,-1.559 2.121,-2.121C1.559,-2.684 0.796,-3 0,-3C-0.796,-3 -1.559,-2.684 -2.121,-2.121C-2.684,-1.559 -3,-0.796 -3,0C-3,0.796 -2.684,1.559 -2.121,2.121C-1.559,2.684 -0.796,3 0,3Z" style="fill:rgb(221,132,82);fill-rule:nonzero;"/>
                    </g>
                    <g id="C3_0_bae16824ca8" serif:id="C3_0_bae16824ca" transform="matrix(1,0,0,1,414.172,156.708)">
                        <path d="M0,3C0.796,3 1.559,2.684 2.121,2.121C2.684,1.559 3,0.796 3,0C3,-0.796 2.684,-1.559 2.121,-2.121C1.559,-2.684 0.796,-3 0,-3C-0.796,-3 -1.559,-2.684 -2.121,-2.121C-2.684,-1.559 -3,-0.796 -3,0C-3,0.796 -2.684,1.559 -2.121,2.121C-1.559,2.684 -0.796,3 0,3Z" style="fill:rgb(76,114,176);fill-rule:nonzero;"/>
                    </g>
                    <g id="C3_0_bae16824ca9" serif:id="C3_0_bae16824ca" transform="matrix(1,0,0,1,423.877,153.745)">
                        <path d="M0,3C0.796,3 1.559,2.684 2.121,2.121C2.684,1.559 3,0.796 3,0C3,-0.796 2.684,-1.559 2.121,-2.121C1.559,-2.684 0.796,-3 0,-3C-0.796,-3 -1.559,-2.684 -2.121,-2.121C-2.684,-1.559 -3,-0.796 -3,0C-3,0.796 -2.684,1.559 -2.121,2.121C-1.559,2.684 -0.796,3 0,3Z" style="fill:rgb(76,114,176);fill-rule:nonzero;"/>
                    </g>
                    <g id="C3_0_bae16824ca10" serif:id="C3_0_bae16824ca" transform="matrix(1,0,0,1,418.684,150.347)">
                        <path d="M0,3C0.796,3 1.559,2.684 2.121,2.121C2.684,1.559 3,0.796 3,0C3,-0.796 2.684,-1.559 2.121,-2.121C1.559,-2.684 0.796,-3 0,-3C-0.796,-3 -1.559,-2.684 -2.121,-2.121C-2.684,-1.559 -3,-0.796 -3,0C-3,0.796 -2.684,1.559 -2.121,2.121C-1.559,2.684 -0.796,3 0,3Z" style="fill:rgb(221,132,82);fill-rule:nonzero;"/>
                    </g>
                    <g id="C3_0_bae16824ca11" serif:id="C3_0_bae16824ca" transform="matrix(1,0,0,1,427.981,149.193)">
                        <path d="M0,3C0.796,3 1.559,2.684 2.121,2.121C2.684,1.559 3,0.796 3,0C3,-0.796 2.684,-1.559 2.121,-2.121C1.559,-2.684 0.796,-3 0,-3C-0.796,-3 -1.559,-2.684 -2.121,-2.121C-2.684,-1.559 -3,-0.796 -3,0C-3,0.796 -2.684,1.559 -2.121,2.121C-1.559,2.684 -0.796,3 0,3Z" style="fill:rgb(76,114,176);fill-rule:nonzero;"/>
                    </g>
                    <g id="C3_0_bae16824ca12" serif:id="C3_0_bae16824ca" transform="matrix(1,0,0,1,423.877,142.747)">
                        <path d="M0,3C0.796,3 1.559,2.684 2.121,2.121C2.684,1.559 3,0.796 3,0C3,-0.796 2.684,-1.559 2.121,-2.121C1.559,-2.684 0.796,-3 0,-3C-0.796,-3 -1.559,-2.684 -2.121,-2.121C-2.684,-1.559 -3,-0.796 -3,0C-3,0.796 -2.684,1.559 -2.121,2.121C-1.559,2.684 -0.796,3 0,3Z" style="fill:rgb(76,114,176);fill-rule:nonzero;"/>
                    </g>
                    <g id="C3_0_bae16824ca13" serif:id="C3_0_bae16824ca" transform="matrix(1,0,0,1,421.505,137.189)">
                        <path d="M0,3C0.796,3 1.559,2.684 2.121,2.121C2.684,1.559 3,0.796 3,0C3,-0.796 2.684,-1.559 2.121,-2.121C1.559,-2.684 0.796,-3 0,-3C-0.796,-3 -1.559,-2.684 -2.121,-2.121C-2.684,-1.559 -3,-0.796 -3,0C-3,0.796 -2.684,1.559 -2.121,2.121C-1.559,2.684 -0.796,3 0,3Z" style="fill:rgb(76,114,176);fill-rule:nonzero;"/>
                    </g>
                    <g id="C3_0_bae16824ca14" serif:id="C3_0_bae16824ca" transform="matrix(1,0,0,1,423.877,129.87)">
                        <path d="M0,3C0.796,3 1.559,2.684 2.121,2.121C2.684,1.559 3,0.796 3,0C3,-0.796 2.684,-1.559 2.121,-2.121C1.559,-2.684 0.796,-3 0,-3C-0.796,-3 -1.559,-2.684 -2.121,-2.121C-2.684,-1.559 -3,-0.796 -3,0C-3,0.796 -2.684,1.559 -2.121,2.121C-1.559,2.684 -0.796,3 0,3Z" style="fill:rgb(76,114,176);fill-rule:nonzero;"/>
                    </g>
                    <g id="C3_0_bae16824ca15" serif:id="C3_0_bae16824ca" transform="matrix(1,0,0,1,419.022,126.047)">
                        <path d="M0,3C0.796,3 1.559,2.684 2.121,2.121C2.684,1.559 3,0.796 3,0C3,-0.796 2.684,-1.559 2.121,-2.121C1.559,-2.684 0.796,-3 0,-3C-0.796,-3 -1.559,-2.684 -2.121,-2.121C-2.684,-1.559 -3,-0.796 -3,0C-3,0.796 -2.684,1.559 -2.121,2.121C-1.559,2.684 -0.796,3 0,3Z" style="fill:rgb(221,132,82);fill-rule:nonzero;"/>
                    </g>
                    <g id="C3_0_bae16824ca16" serif:id="C3_0_bae16824ca" transform="matrix(1,0,0,1,423.877,115.972)">
                        <path d="M0,3C0.796,3 1.559,2.684 2.121,2.121C2.684,1.559 3,0.796 3,0C3,-0.796 2.684,-1.559 2.121,-2.121C1.559,-2.684 0.796,-3 0,-3C-0.796,-3 -1.559,-2.684 -2.121,-2.121C-2.684,-1.559 -3,-0.796 -3,0C-3,0.796 -2.684,1.559 -2.121,2.121C-1.559,2.684 -0.796,3 0,3Z" style="fill:rgb(76,114,176);fill-rule:nonzero;"/>
                    </g>
                    <g id="C3_0_bae16824ca17" serif:id="C3_0_bae16824ca" transform="matrix(1,0,0,1,417.775,114.481)">
                        <path d="M0,3C0.796,3 1.559,2.684 2.121,2.121C2.684,1.559 3,0.796 3,0C3,-0.796 2.684,-1.559 2.121,-2.121C1.559,-2.684 0.796,-3 0,-3C-0.796,-3 -1.559,-2.684 -2.121,-2.121C-2.684,-1.559 -3,-0.796 -3,0C-3,0.796 -2.684,1.559 -2.121,2.121C-1.559,2.684 -0.796,3 0,3Z" style="fill:rgb(221,132,82);fill-rule:nonzero;"/>
                    </g>
                    <g id="C3_0_bae16824ca18" serif:id="C3_0_bae16824ca" transform="matrix(1,0,0,1,428.988,112.465)">
                        <path d="M0,3C0.796,3 1.559,2.684 2.121,2.121C2.684,1.559 3,0.796 3,0C3,-0.796 2.684,-1.559 2.121,-2.121C1.559,-2.684 0.796,-3 0,-3C-0.796,-3 -1.559,-2.684 -2.121,-2.121C-2.684,-1.559 -3,-0.796 -3,0C-3,0.796 -2.684,1.559 -2.121,2.121C-1.559,2.684 -0.796,3 0,3Z" style="fill:rgb(221,132,82);fill-rule:nonzero;"/>
                    </g>
                    <g id="C3_0_bae16824ca19" serif:id="C3_0_bae16824ca" transform="matrix(1,0,0,1,423.877,101.86)">
                        <path d="M0,3C0.796,3 1.559,2.684 2.121,2.121C2.684,1.559 3,0.796 3,0C3,-0.796 2.684,-1.559 2.121,-2.121C1.559,-2.684 0.796,-3 0,-3C-0.796,-3 -1.559,-2.684 -2.121,-2.121C-2.684,-1.559 -3,-0.796 -3,0C-3,0.796 -2.684,1.559 -2.121,2.121C-1.559,2.684 -0.796,3 0,3Z" style="fill:rgb(76,114,176);fill-rule:nonzero;"/>
                    </g>
                </g>
                <path id="line2d_7" d="M162.784,109.875L162.784,88.998" style="fill:none;stroke:rgb(38,38,38);stroke-width:2px;stroke-linecap:round;"/>
                <path id="line2d_8" d="M162.784,83.326L162.784,62.448" style="fill:none;stroke:rgb(38,38,38);stroke-width:2px;stroke-linecap:round;"/>
                <path id="line2d_9" d="M264.315,81.898L264.315,70.956" style="fill:none;stroke:rgb(38,38,38);stroke-width:2px;stroke-linecap:round;"/>
                <path id="line2d_10" d="M264.315,65.284L264.315,54.342" style="fill:none;stroke:rgb(38,38,38);stroke-width:2px;stroke-linecap:round;"/>
                <path id="line2d_11" d="M356.336,139.758L356.336,121.705" style="fill:none;stroke:rgb(38,38,38);stroke-width:2px;stroke-linecap:round;"/>
                <path id="line2d_12" d="M356.336,116.032L356.336,97.979" style="fill:none;stroke:rgb(38,38,38);stroke-width:2px;stroke-linecap:round;"/>
                <path id="line2d_13" d="M449.387,180.194L449.387,154.05" style="fill:none;stroke:rgb(38,38,38);stroke-width:2px;stroke-linecap:round;"/>
                <path id="line2d_14" d="M449.387,148.378L449.387,122.234" style="fill:none;stroke:rgb(38,38,38);stroke-width:2px;stroke-linecap:round;"/>
                <g id="legend_1">
                    <g id="me861edaebe" transform="matrix(1,0,0,1,514.502,48.625)">
                        <path d="M0,3.873C1.027,3.873 2.012,3.465 2.739,2.739C3.465,2.012 3.873,1.027 3.873,0C3.873,-1.027 3.465,-2.012 2.739,-2.739C2.012,-3.465 1.027,-3.873 0,-3.873C-1.027,-3.873 -2.012,-3.465 -2.739,-2.739C-3.465,-2.012 -3.873,-1.027 -3.873,0C-3.873,1.027 -3.465,2.012 -2.739,2.739C-2.012,3.465 -1.027,3.873 0,3.873Z" style="fill:rgb(221,132,82);fill-rule:nonzero;stroke:rgb(221,132,82);stroke-width:1px;"/>
                    </g>
                    <g id="text_8" transform="matrix(1,0,0,1,554.102,54.4)">
                        <text x="0px" y="0px" style="font-family:'Karla-Regular', 'Karla';font-size:22px;fill:rgb(38,38,38);">F<tspan x="10.912px " y="0px ">e</tspan>male</text>
                    </g>
                    <g id="mfd7dfc6677" transform="matrix(1,0,0,1,514.502,80.195)">
                        <path d="M0,3.873C1.027,3.873 2.012,3.465 2.739,2.739C3.465,2.012 3.873,1.027 3.873,0C3.873,-1.027 3.465,-2.012 2.739,-2.739C2.012,-3.465 1.027,-3.873 0,-3.873C-1.027,-3.873 -2.012,-3.465 -2.739,-2.739C-3.465,-2.012 -3.873,-1.027 -3.873,0C-3.873,1.027 -3.465,2.012 -2.739,2.739C-2.012,3.465 -1.027,3.873 0,3.873Z" style="fill:rgb(76,114,176);fill-rule:nonzero;stroke:rgb(76,114,176);stroke-width:1px;"/>
                    </g>
                    <g id="text_9" transform="matrix(1,0,0,1,554.102,85.97)">
                        <text x="0px" y="0px" style="font-family:'Karla-Regular', 'Karla';font-size:22px;fill:rgb(38,38,38);">Male</text>
                    </g>
                </g>
                <g id="m98dfc75182" transform="matrix(1,0,0,1,0,543.224)">
                    <path d="M130.927,-334.946L228.577,-334.946" style="fill:rgb(38,38,38);fill-rule:nonzero;stroke:rgb(38,38,38);stroke-width:1px;"/>
                </g>
                <g id="ma9eee01752" transform="matrix(1,0,0,1,0,543.224)">
                    <path d="M326.227,-334.946L423.877,-334.946" style="fill:rgb(38,38,38);fill-rule:nonzero;stroke:rgb(38,38,38);stroke-width:1px;"/>
                </g>
                <g id="mbb404bd1d4" transform="matrix(1,0,0,1,0,543.224)">
                    <path d="M82.102,-334.946L82.102,-524.024" style="fill:rgb(38,38,38);fill-rule:nonzero;stroke:rgb(38,38,38);stroke-width:1px;"/>
                </g>
            </g>
            <g id="axes_2">
                <g id="matplotlib.axis_3">
                    <g id="mbe433b68634" serif:id="mbe433b6863" transform="matrix(1,0,0,1,130.927,454.08)">
                        <path d="M0,0L0,12" style="fill:rgb(38,38,38);fill-rule:nonzero;stroke:rgb(38,38,38);stroke-width:1.25px;"/>
                    </g>
                    <g id="xtick_6">
                        <g id="mbe433b68635" serif:id="mbe433b6863" transform="matrix(1,0,0,1,228.577,454.08)">
                            <path d="M0,0L0,12" style="fill:rgb(38,38,38);fill-rule:nonzero;stroke:rgb(38,38,38);stroke-width:1.25px;"/>
                        </g>
                        <g id="text_10">
                            <g transform="matrix(1,0,0,1,201.223,484.561)">
                                <text x="0px" y="0px" style="font-family:'Karla-Regular', 'Karla';font-size:22px;fill:rgb(38,38,38);">T<tspan x="9.372px " y="0px ">e</tspan>st 1</text>
                            </g>
                            <g transform="matrix(1,0,0,1,195.919,507.707)">
                                <text x="0px" y="0px" style="font-family:'Karla-Regular', 'Karla';font-size:22px;fill:rgb(38,38,38);">minus</text>
                            </g>
                            <g transform="matrix(1,0,0,1,191.785,530.854)">
                                <text x="0px" y="0px" style="font-family:'Karla-Regular', 'Karla';font-size:22px;fill:rgb(38,38,38);">Control</text>
                            </g>
                        </g>
                    </g>
                    <g id="mbe433b68636" serif:id="mbe433b6863" transform="matrix(1,0,0,1,326.227,454.08)">
                        <path d="M0,0L0,12" style="fill:rgb(38,38,38);fill-rule:nonzero;stroke:rgb(38,38,38);stroke-width:1.25px;"/>
                    </g>
                    <g id="xtick_8">
                        <g id="mbe433b68637" serif:id="mbe433b6863" transform="matrix(1,0,0,1,423.877,454.08)">
                            <path d="M0,0L0,12" style="fill:rgb(38,38,38);fill-rule:nonzero;stroke:rgb(38,38,38);stroke-width:1.25px;"/>
                        </g>
                        <g id="text_11">
                            <g transform="matrix(1,0,0,1,393.783,484.561)">
                                <text x="0px" y="0px" style="font-family:'Karla-Regular', 'Karla';font-size:22px;fill:rgb(38,38,38);">T<tspan x="9.372px " y="0px ">e</tspan>st 2</text>
                            </g>
                            <g transform="matrix(1,0,0,1,391.219,507.707)">
                                <text x="0px" y="0px" style="font-family:'Karla-Regular', 'Karla';font-size:22px;fill:rgb(38,38,38);">minus</text>
                            </g>
                            <g transform="matrix(1,0,0,1,378.088,530.854)">
                                <text x="0px" y="0px" style="font-family:'Karla-Regular', 'Karla';font-size:22px;fill:rgb(38,38,38);">Control 2</text>
                            </g>
                        </g>
                    </g>
                </g>
                <g id="matplotlib.axis_4">
                    <g id="ytick_3">
                        <g id="me12a93f2042" serif:id="me12a93f204" transform="matrix(1,0,0,1,82.1019,402.521)">
                            <path d="M0,0L-12,0" style="fill:rgb(38,38,38);fill-rule:nonzero;stroke:rgb(38,38,38);stroke-width:1.25px;"/>
                        </g>
                        <g id="text_12" transform="matrix(1,0,0,1,66.6019,410.012)">
                            <text x="-31.086px" y="0px" style="font-family:'Karla-Regular', 'Karla';font-size:22px;fill:rgb(38,38,38);">10</text>
                        </g>
                    </g>
                    <g id="ytick_4">
                        <g id="me12a93f2043" serif:id="me12a93f204" transform="matrix(1,0,0,1,82.1019,342.243)">
                            <path d="M0,0L-12,0" style="fill:rgb(38,38,38);fill-rule:nonzero;stroke:rgb(38,38,38);stroke-width:1.25px;"/>
                        </g>
                        <g id="text_13" transform="matrix(1,0,0,1,66.6019,349.733)">
                            <text x="-13.068px" y="0px" style="font-family:'Karla-Regular', 'Karla';font-size:22px;fill:rgb(38,38,38);">0</text>
                        </g>
                    </g>
                    <g id="ytick_5">
                        <g id="me12a93f2044" serif:id="me12a93f204" transform="matrix(1,0,0,1,82.1019,281.964)">
                            <path d="M0,0L-12,0" style="fill:rgb(38,38,38);fill-rule:nonzero;stroke:rgb(38,38,38);stroke-width:1.25px;"/>
                        </g>
                        <g id="text_14" transform="matrix(1,0,0,1,66.6019,289.454)">
                            <text x="-20.35px" y="0px" style="font-family:'Karla-Regular', 'Karla';font-size:22px;fill:rgb(38,38,38);">10</text>
                        </g>
                    </g>
                    <g id="text_15" transform="matrix(-3.82857e-16,-1,1,-3.82857e-16,25.8766,359.541)">
                        <text x="-88.644px" y="0px" style="font-family:'Karla-Regular', 'Karla';font-size:24px;fill:rgb(38,38,38);">Mean difference</text>
                    </g>
                </g>
                <g id="mf3154b9277" transform="matrix(1,0,0,1,0,543.224)">
                    <path d="M228.604,-189.834L228.577,-189.834L228.577,-190.64L228.577,-191.446L228.577,-192.252L228.577,-193.058L228.577,-193.864L228.577,-194.67L228.577,-195.476L228.577,-196.282L228.577,-197.088L228.577,-197.894L228.577,-198.7L228.577,-199.506L228.577,-200.312L228.577,-201.118L228.577,-201.924L228.577,-202.73L228.577,-203.536L228.577,-204.342L228.577,-205.148L228.577,-205.954L228.577,-206.76L228.577,-207.566L228.577,-208.372L228.577,-209.178L228.577,-209.984L228.577,-210.79L228.577,-211.596L228.577,-212.402L228.577,-213.208L228.577,-214.014L228.577,-214.82L228.577,-215.626L228.577,-216.432L228.577,-217.238L228.577,-218.044L228.577,-218.85L228.577,-219.656L228.577,-220.462L228.577,-221.268L228.577,-222.074L228.577,-222.88L228.577,-223.686L228.577,-224.492L228.577,-225.298L228.577,-226.104L228.577,-226.91L228.577,-227.716L228.577,-228.522L228.577,-229.328L228.577,-230.134L228.577,-230.94L228.577,-231.746L228.577,-232.552L228.577,-233.358L228.577,-234.164L228.577,-234.97L228.577,-235.776L228.577,-236.582L228.577,-237.388L228.577,-238.194L228.577,-239L228.577,-239.806L228.577,-240.612L228.577,-241.418L228.577,-242.224L228.577,-243.03L228.577,-243.836L228.577,-244.642L228.577,-245.448L228.577,-246.254L228.577,-247.06L228.577,-247.866L228.577,-248.672L228.577,-249.478L228.577,-250.284L228.577,-251.09L228.577,-251.896L228.577,-252.702L228.577,-253.508L228.577,-254.314L228.577,-255.12L228.577,-255.926L228.577,-256.732L228.577,-257.538L228.577,-258.344L228.577,-259.15L228.577,-259.956L228.577,-260.762L228.577,-261.568L228.577,-262.374L228.577,-263.18L228.577,-263.986L228.577,-264.792L228.577,-265.598L228.577,-266.404L228.577,-267.21L228.577,-268.016L228.577,-268.822L228.577,-269.628L228.633,-269.628L228.649,-268.822L228.669,-268.016L228.696,-267.21L228.734,-266.404L228.777,-265.598L228.819,-264.792L228.854,-263.986L228.89,-263.18L228.946,-262.374L229.049,-261.568L229.216,-260.762L229.444,-259.956L229.718,-259.15L230.02,-258.344L230.335,-257.538L230.657,-256.732L230.973,-255.926L231.267,-255.12L231.535,-254.314L231.808,-253.508L232.15,-252.702L232.628,-251.896L233.279,-251.09L234.087,-250.284L235.003,-249.478L235.961,-248.672L236.906,-247.866L237.812,-247.06L238.687,-246.254L239.562,-245.448L240.465,-244.642L241.41,-243.836L242.402,-243.03L243.451,-242.224L244.563,-241.418L245.719,-240.612L246.858,-239.806L247.898,-239L248.795,-238.194L249.577,-237.388L250.318,-236.582L251.062,-235.776L251.779,-234.97L252.385,-234.164L252.805,-233.358L252.989,-232.552L252.909,-231.746L252.557,-230.94L251.985,-230.134L251.315,-229.328L250.691,-228.522L250.183,-227.716L249.738,-226.91L249.218,-226.104L248.505,-225.298L247.585,-224.492L246.537,-223.686L245.47,-222.88L244.451,-222.074L243.495,-221.268L242.587,-220.462L241.701,-219.656L240.797,-218.85L239.829,-218.044L238.763,-217.238L237.609,-216.432L236.426,-215.626L235.291,-214.82L234.262,-214.014L233.368,-213.208L232.613,-212.402L231.989,-211.596L231.476,-210.79L231.045,-209.984L230.66,-209.178L230.307,-208.372L229.99,-207.566L229.725,-206.76L229.52,-205.954L229.361,-205.148L229.231,-204.342L229.115,-203.536L229.01,-202.73L228.917,-201.924L228.838,-201.118L228.775,-200.312L228.725,-199.506L228.686,-198.7L228.654,-197.894L228.628,-197.088L228.608,-196.282L228.594,-195.476L228.586,-194.67L228.583,-193.864L228.584,-193.058L228.589,-192.252L228.596,-191.446L228.602,-190.64L228.604,-189.834Z" style="fill:rgb(128,128,128);fill-opacity:0.8;fill-rule:nonzero;"/>
                </g>
                <g id="mc5071e8bfa" transform="matrix(1,0,0,1,0,543.224)">
                    <path d="M423.948,-97.739L423.878,-97.739L423.878,-98.677L423.878,-99.615L423.878,-100.553L423.878,-101.491L423.878,-102.429L423.878,-103.367L423.878,-104.305L423.878,-105.243L423.878,-106.181L423.878,-107.12L423.878,-108.058L423.878,-108.996L423.878,-109.934L423.878,-110.872L423.878,-111.81L423.878,-112.748L423.878,-113.686L423.878,-114.624L423.878,-115.562L423.878,-116.5L423.878,-117.439L423.878,-118.377L423.878,-119.315L423.878,-120.253L423.878,-121.191L423.878,-122.129L423.878,-123.067L423.878,-124.005L423.878,-124.943L423.878,-125.881L423.878,-126.819L423.878,-127.758L423.878,-128.696L423.878,-129.634L423.878,-130.572L423.878,-131.51L423.878,-132.448L423.878,-133.386L423.878,-134.324L423.878,-135.262L423.878,-136.2L423.878,-137.138L423.878,-138.077L423.878,-139.015L423.878,-139.953L423.878,-140.891L423.878,-141.829L423.878,-142.767L423.878,-143.705L423.878,-144.643L423.878,-145.581L423.878,-146.519L423.878,-147.458L423.878,-148.396L423.878,-149.334L423.878,-150.272L423.878,-151.21L423.878,-152.148L423.878,-153.086L423.878,-154.024L423.878,-154.962L423.878,-155.9L423.878,-156.838L423.878,-157.777L423.878,-158.715L423.878,-159.653L423.878,-160.591L423.878,-161.529L423.878,-162.467L423.878,-163.405L423.878,-164.343L423.878,-165.281L423.878,-166.219L423.878,-167.157L423.878,-168.096L423.878,-169.034L423.878,-169.972L423.878,-170.91L423.878,-171.848L423.878,-172.786L423.878,-173.724L423.878,-174.662L423.878,-175.6L423.878,-176.538L423.878,-177.476L423.878,-178.415L423.878,-179.353L423.878,-180.291L423.878,-181.229L423.878,-182.167L423.878,-183.105L423.878,-184.043L423.878,-184.981L423.878,-185.919L423.878,-186.857L423.878,-187.795L423.878,-188.734L423.878,-189.672L423.878,-190.61L423.957,-190.61L423.98,-189.672L424.006,-188.734L424.041,-187.795L424.087,-186.857L424.147,-185.919L424.225,-184.981L424.32,-184.043L424.436,-183.105L424.571,-182.167L424.725,-181.229L424.887,-180.291L425.045,-179.353L425.186,-178.415L425.315,-177.476L425.458,-176.538L425.654,-175.6L425.933,-174.662L426.297,-173.724L426.721,-172.786L427.174,-171.848L427.642,-170.91L428.147,-169.972L428.727,-169.034L429.412,-168.096L430.202,-167.157L431.057,-166.219L431.922,-165.281L432.755,-164.343L433.544,-163.405L434.311,-162.467L435.092,-161.529L435.918,-160.591L436.802,-159.653L437.733,-158.715L438.684,-157.777L439.62,-156.838L440.518,-155.9L441.388,-154.962L442.266,-154.024L443.181,-153.086L444.121,-152.148L445.032,-151.21L445.84,-150.272L446.5,-149.334L447.015,-148.396L447.424,-147.458L447.766,-146.519L448.049,-145.581L448.241,-144.643L448.289,-143.705L448.15,-142.767L447.813,-141.829L447.301,-140.891L446.657,-139.953L445.923,-139.015L445.121,-138.077L444.258,-137.138L443.327,-136.2L442.33,-135.262L441.282,-134.324L440.201,-133.386L439.102,-132.448L437.999,-131.51L436.92,-130.572L435.907,-129.634L434.993,-128.696L434.179,-127.758L433.43,-126.819L432.694,-125.881L431.936,-124.943L431.157,-124.005L430.388,-123.067L429.664,-122.129L429.007,-121.191L428.413,-120.253L427.867,-119.315L427.35,-118.377L426.86,-117.439L426.412,-116.5L426.034,-115.562L425.745,-114.624L425.538,-113.686L425.383,-112.748L425.241,-111.81L425.086,-110.872L424.911,-109.934L424.725,-108.996L424.544,-108.058L424.381,-107.12L424.246,-106.181L424.144,-105.243L424.075,-104.305L424.033,-103.367L424.01,-102.429L423.996,-101.491L423.987,-100.553L423.977,-99.615L423.964,-98.677L423.948,-97.739Z" style="fill:rgb(128,128,128);fill-opacity:0.8;fill-rule:nonzero;"/>
                </g>
                <g id="m306b3ba9d4" transform="matrix(1,0,0,1,228.577,310.922)">
                    <path d="M0,4.5C1.193,4.5 2.338,4.026 3.182,3.182C4.026,2.338 4.5,1.193 4.5,0C4.5,-1.193 4.026,-2.338 3.182,-3.182C2.338,-4.026 1.193,-4.5 0,-4.5C-1.193,-4.5 -2.338,-4.026 -3.182,-3.182C-4.026,-2.338 -4.5,-1.193 -4.5,0C-4.5,1.193 -4.026,2.338 -3.182,3.182C-2.338,4.026 -1.193,4.5 0,4.5Z" style="fill:rgb(38,38,38);fill-rule:nonzero;stroke:rgb(38,38,38);stroke-width:1px;"/>
                </g>
                <path id="line2d_23" d="M228.577,329.837L228.577,288.809" style="fill:none;stroke:rgb(38,38,38);stroke-width:2px;stroke-linecap:round;"/>
                <g id="m306b3ba9d41" serif:id="m306b3ba9d4" transform="matrix(1,0,0,1,423.877,398.395)">
                    <path d="M0,4.5C1.193,4.5 2.338,4.026 3.182,3.182C4.026,2.338 4.5,1.193 4.5,0C4.5,-1.193 4.026,-2.338 3.182,-3.182C2.338,-4.026 1.193,-4.5 0,-4.5C-1.193,-4.5 -2.338,-4.026 -3.182,-3.182C-4.026,-2.338 -4.5,-1.193 -4.5,0C-4.5,1.193 -4.026,2.338 -3.182,3.182C-2.338,4.026 -1.193,4.5 0,4.5Z" style="fill:rgb(38,38,38);fill-rule:nonzero;stroke:rgb(38,38,38);stroke-width:1px;"/>
                </g>
                <path id="line2d_25" d="M423.877,424.728L423.877,372.08" style="fill:none;stroke:rgb(38,38,38);stroke-width:2px;stroke-linecap:round;"/>
                <path id="line2d_26" d="M82.102,342.243L472.702,342.243" style="fill:none;stroke:rgb(38,38,38);stroke-width:0.75px;stroke-linecap:round;"/>
                <g id="m8a3e4aa300" transform="matrix(1,0,0,1,0,543.224)">
                    <path d="M130.927,-89.144L228.577,-89.144" style="fill:rgb(38,38,38);fill-rule:nonzero;stroke:rgb(38,38,38);stroke-width:1px;"/>
                </g>
                <g id="m6902289119" transform="matrix(1,0,0,1,0,543.224)">
                    <path d="M326.227,-89.144L423.877,-89.144" style="fill:rgb(38,38,38);fill-rule:nonzero;stroke:rgb(38,38,38);stroke-width:1px;"/>
                </g>
                <g id="ma9e8428fa8" transform="matrix(1,0,0,1,0,543.224)">
                    <path d="M82.102,-89.144L82.102,-278.222" style="fill:rgb(38,38,38);fill-rule:nonzero;stroke:rgb(38,38,38);stroke-width:1px;"/>
                </g>
            </g>
        </g>
    </g>
</svg>
