<?xml version="1.0" encoding="UTF-8" standalone="no"?>
<!DOCTYPE svg PUBLIC "-//W3C//DTD SVG 1.1//EN" "http://www.w3.org/Graphics/SVG/1.1/DTD/svg11.dtd">
<svg width="100%" height="100%" viewBox="0 0 1332 1083" version="1.1" xmlns="http://www.w3.org/2000/svg" xmlns:xlink="http://www.w3.org/1999/xlink" xml:space="preserve" xmlns:serif="http://www.serif.com/" style="fill-rule:evenodd;clip-rule:evenodd;">
    <g id="Artboard1" transform="matrix(1.9729,0,0,1.96026,24.4457,17.3034)">
        <rect x="-12.391" y="-8.827" width="674.838" height="552.051" style="fill:none;"/>
        <clipPath id="_clip1">
            <rect x="-12.391" y="-8.827" width="674.838" height="552.051"/>
        </clipPath>
        <g clip-path="url(#_clip1)">
            <g id="figure_1" transform="matrix(1.01373,0,0,1.02027,-10.4355,-9.83133)">
                <rect id="patch_1" x="0" y="0" width="662.447" height="543.224" style="fill:none;"/>
                <g id="axes_1">
                    <g id="matplotlib.axis_1">
                        <g id="xtick_1">
                            <g id="m6d0cc8a40b" transform="matrix(1,0,0,1,141.047,208.278)">
                                <path d="M0,0L0,12" style="fill:rgb(38,38,38);fill-rule:nonzero;stroke:rgb(38,38,38);stroke-width:1.25px;"/>
                            </g>
                            <g id="text_1">
                                <g transform="matrix(1,0,0,1,104.256,238.759)">
                                    <text x="0px" y="0px" style="font-family:'Karla-Regular', 'Karla';font-size:22px;fill:rgb(38,38,38);">Control</text>
                                </g>
                                <g transform="matrix(1,0,0,1,109.995,261.906)">
                                    <text x="0px" y="0px" style="font-family:'Karla-Regular', 'Karla';font-size:22px;fill:rgb(38,38,38);">N = 20</text>
                                </g>
                            </g>
                        </g>
                        <g id="xtick_2">
                            <g id="m6d0cc8a40b1" serif:id="m6d0cc8a40b" transform="matrix(1,0,0,1,252.647,208.278)">
                                <path d="M0,0L0,12" style="fill:rgb(38,38,38);fill-rule:nonzero;stroke:rgb(38,38,38);stroke-width:1.25px;"/>
                            </g>
                            <g id="text_2">
                                <g transform="matrix(1,0,0,1,225.293,238.759)">
                                    <text x="0px" y="0px" style="font-family:'Karla-Regular', 'Karla';font-size:22px;fill:rgb(38,38,38);">T<tspan x="9.372px " y="0px ">e</tspan>st 1</text>
                                </g>
                                <g transform="matrix(1,0,0,1,221.595,261.906)">
                                    <text x="0px" y="0px" style="font-family:'Karla-Regular', 'Karla';font-size:22px;fill:rgb(38,38,38);">N = 20</text>
                                </g>
                            </g>
                        </g>
                        <g id="xtick_3">
                            <g id="m6d0cc8a40b2" serif:id="m6d0cc8a40b" transform="matrix(1,0,0,1,364.247,208.278)">
                                <path d="M0,0L0,12" style="fill:rgb(38,38,38);fill-rule:nonzero;stroke:rgb(38,38,38);stroke-width:1.25px;"/>
                            </g>
                            <g id="text_3">
                                <g transform="matrix(1,0,0,1,334.154,238.759)">
                                    <text x="0px" y="0px" style="font-family:'Karla-Regular', 'Karla';font-size:22px;fill:rgb(38,38,38);">T<tspan x="9.372px " y="0px ">e</tspan>st 2</text>
                                </g>
                                <g transform="matrix(1,0,0,1,333.195,261.906)">
                                    <text x="0px" y="0px" style="font-family:'Karla-Regular', 'Karla';font-size:22px;fill:rgb(38,38,38);">N = 20</text>
                                </g>
                            </g>
                        </g>
                        <g id="xtick_4">
                            <g id="m6d0cc8a40b3" serif:id="m6d0cc8a40b" transform="matrix(1,0,0,1,475.847,208.278)">
                                <path d="M0,0L0,12" style="fill:rgb(38,38,38);fill-rule:nonzero;stroke:rgb(38,38,38);stroke-width:1.25px;"/>
                            </g>
                            <g id="text_4">
                                <g transform="matrix(1,0,0,1,445.633,238.759)">
                                    <text x="0px" y="0px" style="font-family:'Karla-Regular', 'Karla';font-size:22px;fill:rgb(38,38,38);">T<tspan x="9.372px " y="0px ">e</tspan>st 3</text>
                                </g>
                                <g transform="matrix(1,0,0,1,444.795,261.906)">
                                    <text x="0px" y="0px" style="font-family:'Karla-Regular', 'Karla';font-size:22px;fill:rgb(38,38,38);">N = 20</text>
                                </g>
                            </g>
                        </g>
                        <g id="xtick_5">
                            <g id="m6d0cc8a40b4" serif:id="m6d0cc8a40b" transform="matrix(1,0,0,1,587.447,208.278)">
                                <path d="M0,0L0,12" style="fill:rgb(38,38,38);fill-rule:nonzero;stroke:rgb(38,38,38);stroke-width:1.25px;"/>
                            </g>
                            <g id="text_5">
                                <g transform="matrix(1,0,0,1,557.584,238.759)">
                                    <text x="0px" y="0px" style="font-family:'Karla-Regular', 'Karla';font-size:22px;fill:rgb(38,38,38);">T<tspan x="9.372px " y="0px ">e</tspan>st 4</text>
                                </g>
                                <g transform="matrix(1,0,0,1,556.395,261.906)">
                                    <text x="0px" y="0px" style="font-family:'Karla-Regular', 'Karla';font-size:22px;fill:rgb(38,38,38);">N = 20</text>
                                </g>
                            </g>
                        </g>
                    </g>
                    <g id="matplotlib.axis_2">
                        <g id="ytick_1">
                            <g id="mad11b1fdc7" transform="matrix(1,0,0,1,85.2472,182.733)">
                                <path d="M0,0L-12,0" style="fill:rgb(38,38,38);fill-rule:nonzero;stroke:rgb(38,38,38);stroke-width:1.25px;"/>
                            </g>
                            <g id="text_6" transform="matrix(1,0,0,1,69.7472,190.223)">
                                <text x="-22.77px" y="0px" style="font-family:'Karla-Regular', 'Karla';font-size:22px;fill:rgb(38,38,38);">75</text>
                            </g>
                        </g>
                        <g id="ytick_2">
                            <g id="mad11b1fdc71" serif:id="mad11b1fdc7" transform="matrix(1,0,0,1,85.2472,128.733)">
                                <path d="M0,0L-12,0" style="fill:rgb(38,38,38);fill-rule:nonzero;stroke:rgb(38,38,38);stroke-width:1.25px;"/>
                            </g>
                            <g id="text_7" transform="matrix(1,0,0,1,69.7472,136.224)">
                                <text x="-33.418px" y="0px" style="font-family:'Karla-Regular', 'Karla';font-size:22px;fill:rgb(38,38,38);">100</text>
                            </g>
                        </g>
                        <g id="ytick_3">
                            <g id="mad11b1fdc72" serif:id="mad11b1fdc7" transform="matrix(1,0,0,1,85.2472,74.7341)">
                                <path d="M0,0L-12,0" style="fill:rgb(38,38,38);fill-rule:nonzero;stroke:rgb(38,38,38);stroke-width:1.25px;"/>
                            </g>
                            <g id="text_8" transform="matrix(1,0,0,1,69.7472,82.2244)">
                                <text x="-32.472px" y="0px" style="font-family:'Karla-Regular', 'Karla';font-size:22px;fill:rgb(38,38,38);">125</text>
                            </g>
                        </g>
                        <g id="ytick_4">
                            <g id="mad11b1fdc73" serif:id="mad11b1fdc7" transform="matrix(1,0,0,1,85.2472,20.7347)">
                                <path d="M0,0L-12,0" style="fill:rgb(38,38,38);fill-rule:nonzero;stroke:rgb(38,38,38);stroke-width:1.25px;"/>
                            </g>
                            <g id="text_9" transform="matrix(1,0,0,1,69.7472,28.225)">
                                <text x="-32.78px" y="0px" style="font-family:'Karla-Regular', 'Karla';font-size:22px;fill:rgb(38,38,38);">150</text>
                            </g>
                        </g>
                        <g id="text_10" transform="matrix(-3.82857e-16,-1,1,-3.82857e-16,26.6878,113.739)">
                            <text x="-29.568px" y="0px" style="font-family:'Karla-Regular', 'Karla';font-size:24px;fill:rgb(38,38,38);">value</text>
                        </g>
                    </g>
                    <g id="PathCollection_1">
                        <g id="C0_0_6aa9de6cf6" transform="matrix(1,0,0,1,141.047,164.492)">
                            <path d="M0,3C0.796,3 1.559,2.684 2.121,2.121C2.684,1.559 3,0.796 3,0C3,-0.796 2.684,-1.559 2.121,-2.121C1.559,-2.684 0.796,-3 0,-3C-0.796,-3 -1.559,-2.684 -2.121,-2.121C-2.684,-1.559 -3,-0.796 -3,0C-3,0.796 -2.684,1.559 -2.121,2.121C-1.559,2.684 -0.796,3 0,3Z" style="fill:rgb(76,114,176);fill-rule:nonzero;"/>
                        </g>
                        <g id="C0_0_6aa9de6cf61" serif:id="C0_0_6aa9de6cf6" transform="matrix(1,0,0,1,141.047,153.155)">
                            <path d="M0,3C0.796,3 1.559,2.684 2.121,2.121C2.684,1.559 3,0.796 3,0C3,-0.796 2.684,-1.559 2.121,-2.121C1.559,-2.684 0.796,-3 0,-3C-0.796,-3 -1.559,-2.684 -2.121,-2.121C-2.684,-1.559 -3,-0.796 -3,0C-3,0.796 -2.684,1.559 -2.121,2.121C-1.559,2.684 -0.796,3 0,3Z" style="fill:rgb(76,114,176);fill-rule:nonzero;"/>
                        </g>
                        <g id="C0_0_6aa9de6cf62" serif:id="C0_0_6aa9de6cf6" transform="matrix(1,0,0,1,141.047,146.347)">
                            <path d="M0,3C0.796,3 1.559,2.684 2.121,2.121C2.684,1.559 3,0.796 3,0C3,-0.796 2.684,-1.559 2.121,-2.121C1.559,-2.684 0.796,-3 0,-3C-0.796,-3 -1.559,-2.684 -2.121,-2.121C-2.684,-1.559 -3,-0.796 -3,0C-3,0.796 -2.684,1.559 -2.121,2.121C-1.559,2.684 -0.796,3 0,3Z" style="fill:rgb(76,114,176);fill-rule:nonzero;"/>
                        </g>
                        <g id="C0_0_6aa9de6cf63" serif:id="C0_0_6aa9de6cf6" transform="matrix(1,0,0,1,141.047,138.084)">
                            <path d="M0,3C0.796,3 1.559,2.684 2.121,2.121C2.684,1.559 3,0.796 3,0C3,-0.796 2.684,-1.559 2.121,-2.121C1.559,-2.684 0.796,-3 0,-3C-0.796,-3 -1.559,-2.684 -2.121,-2.121C-2.684,-1.559 -3,-0.796 -3,0C-3,0.796 -2.684,1.559 -2.121,2.121C-1.559,2.684 -0.796,3 0,3Z" style="fill:rgb(76,114,176);fill-rule:nonzero;"/>
                        </g>
                        <g id="C0_0_6aa9de6cf64" serif:id="C0_0_6aa9de6cf6" transform="matrix(1,0,0,1,134.947,136.586)">
                            <path d="M0,3C0.796,3 1.559,2.684 2.121,2.121C2.684,1.559 3,0.796 3,0C3,-0.796 2.684,-1.559 2.121,-2.121C1.559,-2.684 0.796,-3 0,-3C-0.796,-3 -1.559,-2.684 -2.121,-2.121C-2.684,-1.559 -3,-0.796 -3,0C-3,0.796 -2.684,1.559 -2.121,2.121C-1.559,2.684 -0.796,3 0,3Z" style="fill:rgb(76,114,176);fill-rule:nonzero;"/>
                        </g>
                        <g id="C0_0_6aa9de6cf65" serif:id="C0_0_6aa9de6cf6" transform="matrix(1,0,0,1,147.099,136.416)">
                            <path d="M0,3C0.796,3 1.559,2.684 2.121,2.121C2.684,1.559 3,0.796 3,0C3,-0.796 2.684,-1.559 2.121,-2.121C1.559,-2.684 0.796,-3 0,-3C-0.796,-3 -1.559,-2.684 -2.121,-2.121C-2.684,-1.559 -3,-0.796 -3,0C-3,0.796 -2.684,1.559 -2.121,2.121C-1.559,2.684 -0.796,3 0,3Z" style="fill:rgb(76,114,176);fill-rule:nonzero;"/>
                        </g>
                        <g id="C0_0_6aa9de6cf66" serif:id="C0_0_6aa9de6cf6" transform="matrix(1,0,0,1,129.114,134.319)">
                            <path d="M0,3C0.796,3 1.559,2.684 2.121,2.121C2.684,1.559 3,0.796 3,0C3,-0.796 2.684,-1.559 2.121,-2.121C1.559,-2.684 0.796,-3 0,-3C-0.796,-3 -1.559,-2.684 -2.121,-2.121C-2.684,-1.559 -3,-0.796 -3,0C-3,0.796 -2.684,1.559 -2.121,2.121C-1.559,2.684 -0.796,3 0,3Z" style="fill:rgb(76,114,176);fill-rule:nonzero;"/>
                        </g>
                        <g id="C0_0_6aa9de6cf67" serif:id="C0_0_6aa9de6cf6" transform="matrix(1,0,0,1,152.76,133.783)">
                            <path d="M0,3C0.796,3 1.559,2.684 2.121,2.121C2.684,1.559 3,0.796 3,0C3,-0.796 2.684,-1.559 2.121,-2.121C1.559,-2.684 0.796,-3 0,-3C-0.796,-3 -1.559,-2.684 -2.121,-2.121C-2.684,-1.559 -3,-0.796 -3,0C-3,0.796 -2.684,1.559 -2.121,2.121C-1.559,2.684 -0.796,3 0,3Z" style="fill:rgb(76,114,176);fill-rule:nonzero;"/>
                        </g>
                        <g id="C0_0_6aa9de6cf68" serif:id="C0_0_6aa9de6cf6" transform="matrix(1,0,0,1,141.047,131.397)">
                            <path d="M0,3C0.796,3 1.559,2.684 2.121,2.121C2.684,1.559 3,0.796 3,0C3,-0.796 2.684,-1.559 2.121,-2.121C1.559,-2.684 0.796,-3 0,-3C-0.796,-3 -1.559,-2.684 -2.121,-2.121C-2.684,-1.559 -3,-0.796 -3,0C-3,0.796 -2.684,1.559 -2.121,2.121C-1.559,2.684 -0.796,3 0,3Z" style="fill:rgb(76,114,176);fill-rule:nonzero;"/>
                        </g>
                        <g id="C0_0_6aa9de6cf69" serif:id="C0_0_6aa9de6cf6" transform="matrix(1,0,0,1,136.989,126.808)">
                            <path d="M0,3C0.796,3 1.559,2.684 2.121,2.121C2.684,1.559 3,0.796 3,0C3,-0.796 2.684,-1.559 2.121,-2.121C1.559,-2.684 0.796,-3 0,-3C-0.796,-3 -1.559,-2.684 -2.121,-2.121C-2.684,-1.559 -3,-0.796 -3,0C-3,0.796 -2.684,1.559 -2.121,2.121C-1.559,2.684 -0.796,3 0,3Z" style="fill:rgb(76,114,176);fill-rule:nonzero;"/>
                        </g>
                        <g id="C0_0_6aa9de6cf610" serif:id="C0_0_6aa9de6cf6" transform="matrix(1,0,0,1,144.873,126.631)">
                            <path d="M0,3C0.796,3 1.559,2.684 2.121,2.121C2.684,1.559 3,0.796 3,0C3,-0.796 2.684,-1.559 2.121,-2.121C1.559,-2.684 0.796,-3 0,-3C-0.796,-3 -1.559,-2.684 -2.121,-2.121C-2.684,-1.559 -3,-0.796 -3,0C-3,0.796 -2.684,1.559 -2.121,2.121C-1.559,2.684 -0.796,3 0,3Z" style="fill:rgb(76,114,176);fill-rule:nonzero;"/>
                        </g>
                        <g id="C0_0_6aa9de6cf611" serif:id="C0_0_6aa9de6cf6" transform="matrix(1,0,0,1,151.101,125.727)">
                            <path d="M0,3C0.796,3 1.559,2.684 2.121,2.121C2.684,1.559 3,0.796 3,0C3,-0.796 2.684,-1.559 2.121,-2.121C1.559,-2.684 0.796,-3 0,-3C-0.796,-3 -1.559,-2.684 -2.121,-2.121C-2.684,-1.559 -3,-0.796 -3,0C-3,0.796 -2.684,1.559 -2.121,2.121C-1.559,2.684 -0.796,3 0,3Z" style="fill:rgb(76,114,176);fill-rule:nonzero;"/>
                        </g>
                        <g id="C0_0_6aa9de6cf612" serif:id="C0_0_6aa9de6cf6" transform="matrix(1,0,0,1,130.812,125.626)">
                            <path d="M0,3C0.796,3 1.559,2.684 2.121,2.121C2.684,1.559 3,0.796 3,0C3,-0.796 2.684,-1.559 2.121,-2.121C1.559,-2.684 0.796,-3 0,-3C-0.796,-3 -1.559,-2.684 -2.121,-2.121C-2.684,-1.559 -3,-0.796 -3,0C-3,0.796 -2.684,1.559 -2.121,2.121C-1.559,2.684 -0.796,3 0,3Z" style="fill:rgb(76,114,176);fill-rule:nonzero;"/>
                        </g>
                        <g id="C0_0_6aa9de6cf613" serif:id="C0_0_6aa9de6cf6" transform="matrix(1,0,0,1,157.063,123.786)">
                            <path d="M0,3C0.796,3 1.559,2.684 2.121,2.121C2.684,1.559 3,0.796 3,0C3,-0.796 2.684,-1.559 2.121,-2.121C1.559,-2.684 0.796,-3 0,-3C-0.796,-3 -1.559,-2.684 -2.121,-2.121C-2.684,-1.559 -3,-0.796 -3,0C-3,0.796 -2.684,1.559 -2.121,2.121C-1.559,2.684 -0.796,3 0,3Z" style="fill:rgb(76,114,176);fill-rule:nonzero;"/>
                        </g>
                        <g id="C0_0_6aa9de6cf614" serif:id="C0_0_6aa9de6cf6" transform="matrix(1,0,0,1,141.047,119.956)">
                            <path d="M0,3C0.796,3 1.559,2.684 2.121,2.121C2.684,1.559 3,0.796 3,0C3,-0.796 2.684,-1.559 2.121,-2.121C1.559,-2.684 0.796,-3 0,-3C-0.796,-3 -1.559,-2.684 -2.121,-2.121C-2.684,-1.559 -3,-0.796 -3,0C-3,0.796 -2.684,1.559 -2.121,2.121C-1.559,2.684 -0.796,3 0,3Z" style="fill:rgb(76,114,176);fill-rule:nonzero;"/>
                        </g>
                        <g id="C0_0_6aa9de6cf615" serif:id="C0_0_6aa9de6cf6" transform="matrix(1,0,0,1,135.296,117.506)">
                            <path d="M0,3C0.796,3 1.559,2.684 2.121,2.121C2.684,1.559 3,0.796 3,0C3,-0.796 2.684,-1.559 2.121,-2.121C1.559,-2.684 0.796,-3 0,-3C-0.796,-3 -1.559,-2.684 -2.121,-2.121C-2.684,-1.559 -3,-0.796 -3,0C-3,0.796 -2.684,1.559 -2.121,2.121C-1.559,2.684 -0.796,3 0,3Z" style="fill:rgb(76,114,176);fill-rule:nonzero;"/>
                        </g>
                        <g id="C0_0_6aa9de6cf616" serif:id="C0_0_6aa9de6cf6" transform="matrix(1,0,0,1,146.302,116.646)">
                            <path d="M0,3C0.796,3 1.559,2.684 2.121,2.121C2.684,1.559 3,0.796 3,0C3,-0.796 2.684,-1.559 2.121,-2.121C1.559,-2.684 0.796,-3 0,-3C-0.796,-3 -1.559,-2.684 -2.121,-2.121C-2.684,-1.559 -3,-0.796 -3,0C-3,0.796 -2.684,1.559 -2.121,2.121C-1.559,2.684 -0.796,3 0,3Z" style="fill:rgb(76,114,176);fill-rule:nonzero;"/>
                        </g>
                        <g id="C0_0_6aa9de6cf617" serif:id="C0_0_6aa9de6cf6" transform="matrix(1,0,0,1,140.697,113.908)">
                            <path d="M0,3C0.796,3 1.559,2.684 2.121,2.121C2.684,1.559 3,0.796 3,0C3,-0.796 2.684,-1.559 2.121,-2.121C1.559,-2.684 0.796,-3 0,-3C-0.796,-3 -1.559,-2.684 -2.121,-2.121C-2.684,-1.559 -3,-0.796 -3,0C-3,0.796 -2.684,1.559 -2.121,2.121C-1.559,2.684 -0.796,3 0,3Z" style="fill:rgb(76,114,176);fill-rule:nonzero;"/>
                        </g>
                        <g id="C0_0_6aa9de6cf618" serif:id="C0_0_6aa9de6cf6" transform="matrix(1,0,0,1,131.242,112.913)">
                            <path d="M0,3C0.796,3 1.559,2.684 2.121,2.121C2.684,1.559 3,0.796 3,0C3,-0.796 2.684,-1.559 2.121,-2.121C1.559,-2.684 0.796,-3 0,-3C-0.796,-3 -1.559,-2.684 -2.121,-2.121C-2.684,-1.559 -3,-0.796 -3,0C-3,0.796 -2.684,1.559 -2.121,2.121C-1.559,2.684 -0.796,3 0,3Z" style="fill:rgb(76,114,176);fill-rule:nonzero;"/>
                        </g>
                        <g id="C0_0_6aa9de6cf619" serif:id="C0_0_6aa9de6cf6" transform="matrix(1,0,0,1,141.047,100.251)">
                            <path d="M0,3C0.796,3 1.559,2.684 2.121,2.121C2.684,1.559 3,0.796 3,0C3,-0.796 2.684,-1.559 2.121,-2.121C1.559,-2.684 0.796,-3 0,-3C-0.796,-3 -1.559,-2.684 -2.121,-2.121C-2.684,-1.559 -3,-0.796 -3,0C-3,0.796 -2.684,1.559 -2.121,2.121C-1.559,2.684 -0.796,3 0,3Z" style="fill:rgb(76,114,176);fill-rule:nonzero;"/>
                        </g>
                    </g>
                    <g id="PathCollection_2">
                        <g id="C1_0_fc3e2b5cba" transform="matrix(1,0,0,1,252.647,133.318)">
                            <path d="M0,3C0.796,3 1.559,2.684 2.121,2.121C2.684,1.559 3,0.796 3,0C3,-0.796 2.684,-1.559 2.121,-2.121C1.559,-2.684 0.796,-3 0,-3C-0.796,-3 -1.559,-2.684 -2.121,-2.121C-2.684,-1.559 -3,-0.796 -3,0C-3,0.796 -2.684,1.559 -2.121,2.121C-1.559,2.684 -0.796,3 0,3Z" style="fill:rgb(221,132,82);fill-rule:nonzero;"/>
                        </g>
                        <g id="C1_0_fc3e2b5cba1" serif:id="C1_0_fc3e2b5cba" transform="matrix(1,0,0,1,247.32,130.116)">
                            <path d="M0,3C0.796,3 1.559,2.684 2.121,2.121C2.684,1.559 3,0.796 3,0C3,-0.796 2.684,-1.559 2.121,-2.121C1.559,-2.684 0.796,-3 0,-3C-0.796,-3 -1.559,-2.684 -2.121,-2.121C-2.684,-1.559 -3,-0.796 -3,0C-3,0.796 -2.684,1.559 -2.121,2.121C-1.559,2.684 -0.796,3 0,3Z" style="fill:rgb(221,132,82);fill-rule:nonzero;"/>
                        </g>
                        <g id="C1_0_fc3e2b5cba2" serif:id="C1_0_fc3e2b5cba" transform="matrix(1,0,0,1,256.784,128.793)">
                            <path d="M0,3C0.796,3 1.559,2.684 2.121,2.121C2.684,1.559 3,0.796 3,0C3,-0.796 2.684,-1.559 2.121,-2.121C1.559,-2.684 0.796,-3 0,-3C-0.796,-3 -1.559,-2.684 -2.121,-2.121C-2.684,-1.559 -3,-0.796 -3,0C-3,0.796 -2.684,1.559 -2.121,2.121C-1.559,2.684 -0.796,3 0,3Z" style="fill:rgb(221,132,82);fill-rule:nonzero;"/>
                        </g>
                        <g id="C1_0_fc3e2b5cba3" serif:id="C1_0_fc3e2b5cba" transform="matrix(1,0,0,1,251.901,125.001)">
                            <path d="M0,3C0.796,3 1.559,2.684 2.121,2.121C2.684,1.559 3,0.796 3,0C3,-0.796 2.684,-1.559 2.121,-2.121C1.559,-2.684 0.796,-3 0,-3C-0.796,-3 -1.559,-2.684 -2.121,-2.121C-2.684,-1.559 -3,-0.796 -3,0C-3,0.796 -2.684,1.559 -2.121,2.121C-1.559,2.684 -0.796,3 0,3Z" style="fill:rgb(221,132,82);fill-rule:nonzero;"/>
                        </g>
                        <g id="C1_0_fc3e2b5cba4" serif:id="C1_0_fc3e2b5cba" transform="matrix(1,0,0,1,245.742,123.738)">
                            <path d="M0,3C0.796,3 1.559,2.684 2.121,2.121C2.684,1.559 3,0.796 3,0C3,-0.796 2.684,-1.559 2.121,-2.121C1.559,-2.684 0.796,-3 0,-3C-0.796,-3 -1.559,-2.684 -2.121,-2.121C-2.684,-1.559 -3,-0.796 -3,0C-3,0.796 -2.684,1.559 -2.121,2.121C-1.559,2.684 -0.796,3 0,3Z" style="fill:rgb(221,132,82);fill-rule:nonzero;"/>
                        </g>
                        <g id="C1_0_fc3e2b5cba5" serif:id="C1_0_fc3e2b5cba" transform="matrix(1,0,0,1,257.698,122.652)">
                            <path d="M0,3C0.796,3 1.559,2.684 2.121,2.121C2.684,1.559 3,0.796 3,0C3,-0.796 2.684,-1.559 2.121,-2.121C1.559,-2.684 0.796,-3 0,-3C-0.796,-3 -1.559,-2.684 -2.121,-2.121C-2.684,-1.559 -3,-0.796 -3,0C-3,0.796 -2.684,1.559 -2.121,2.121C-1.559,2.684 -0.796,3 0,3Z" style="fill:rgb(221,132,82);fill-rule:nonzero;"/>
                        </g>
                        <g id="C1_0_fc3e2b5cba6" serif:id="C1_0_fc3e2b5cba" transform="matrix(1,0,0,1,263.994,122.433)">
                            <path d="M0,3C0.796,3 1.559,2.684 2.121,2.121C2.684,1.559 3,0.796 3,0C3,-0.796 2.684,-1.559 2.121,-2.121C1.559,-2.684 0.796,-3 0,-3C-0.796,-3 -1.559,-2.684 -2.121,-2.121C-2.684,-1.559 -3,-0.796 -3,0C-3,0.796 -2.684,1.559 -2.121,2.121C-1.559,2.684 -0.796,3 0,3Z" style="fill:rgb(221,132,82);fill-rule:nonzero;"/>
                        </g>
                        <g id="C1_0_fc3e2b5cba7" serif:id="C1_0_fc3e2b5cba" transform="matrix(1,0,0,1,241.044,119.741)">
                            <path d="M0,3C0.796,3 1.559,2.684 2.121,2.121C2.684,1.559 3,0.796 3,0C3,-0.796 2.684,-1.559 2.121,-2.121C1.559,-2.684 0.796,-3 0,-3C-0.796,-3 -1.559,-2.684 -2.121,-2.121C-2.684,-1.559 -3,-0.796 -3,0C-3,0.796 -2.684,1.559 -2.121,2.121C-1.559,2.684 -0.796,3 0,3Z" style="fill:rgb(221,132,82);fill-rule:nonzero;"/>
                        </g>
                        <g id="C1_0_fc3e2b5cba8" serif:id="C1_0_fc3e2b5cba" transform="matrix(1,0,0,1,252.647,118.549)">
                            <path d="M0,3C0.796,3 1.559,2.684 2.121,2.121C2.684,1.559 3,0.796 3,0C3,-0.796 2.684,-1.559 2.121,-2.121C1.559,-2.684 0.796,-3 0,-3C-0.796,-3 -1.559,-2.684 -2.121,-2.121C-2.684,-1.559 -3,-0.796 -3,0C-3,0.796 -2.684,1.559 -2.121,2.121C-1.559,2.684 -0.796,3 0,3Z" style="fill:rgb(221,132,82);fill-rule:nonzero;"/>
                        </g>
                        <g id="C1_0_fc3e2b5cba9" serif:id="C1_0_fc3e2b5cba" transform="matrix(1,0,0,1,260.568,117.311)">
                            <path d="M0,3C0.796,3 1.559,2.684 2.121,2.121C2.684,1.559 3,0.796 3,0C3,-0.796 2.684,-1.559 2.121,-2.121C1.559,-2.684 0.796,-3 0,-3C-0.796,-3 -1.559,-2.684 -2.121,-2.121C-2.684,-1.559 -3,-0.796 -3,0C-3,0.796 -2.684,1.559 -2.121,2.121C-1.559,2.684 -0.796,3 0,3Z" style="fill:rgb(221,132,82);fill-rule:nonzero;"/>
                        </g>
                        <g id="C1_0_fc3e2b5cba10" serif:id="C1_0_fc3e2b5cba" transform="matrix(1,0,0,1,246.865,116.167)">
                            <path d="M0,3C0.796,3 1.559,2.684 2.121,2.121C2.684,1.559 3,0.796 3,0C3,-0.796 2.684,-1.559 2.121,-2.121C1.559,-2.684 0.796,-3 0,-3C-0.796,-3 -1.559,-2.684 -2.121,-2.121C-2.684,-1.559 -3,-0.796 -3,0C-3,0.796 -2.684,1.559 -2.121,2.121C-1.559,2.684 -0.796,3 0,3Z" style="fill:rgb(221,132,82);fill-rule:nonzero;"/>
                        </g>
                        <g id="C1_0_fc3e2b5cba11" serif:id="C1_0_fc3e2b5cba" transform="matrix(1,0,0,1,266.596,115.565)">
                            <path d="M0,3C0.796,3 1.559,2.684 2.121,2.121C2.684,1.559 3,0.796 3,0C3,-0.796 2.684,-1.559 2.121,-2.121C1.559,-2.684 0.796,-3 0,-3C-0.796,-3 -1.559,-2.684 -2.121,-2.121C-2.684,-1.559 -3,-0.796 -3,0C-3,0.796 -2.684,1.559 -2.121,2.121C-1.559,2.684 -0.796,3 0,3Z" style="fill:rgb(221,132,82);fill-rule:nonzero;"/>
                        </g>
                        <g id="C1_0_fc3e2b5cba12" serif:id="C1_0_fc3e2b5cba" transform="matrix(1,0,0,1,237.642,114.691)">
                            <path d="M0,3C0.796,3 1.559,2.684 2.121,2.121C2.684,1.559 3,0.796 3,0C3,-0.796 2.684,-1.559 2.121,-2.121C1.559,-2.684 0.796,-3 0,-3C-0.796,-3 -1.559,-2.684 -2.121,-2.121C-2.684,-1.559 -3,-0.796 -3,0C-3,0.796 -2.684,1.559 -2.121,2.121C-1.559,2.684 -0.796,3 0,3Z" style="fill:rgb(221,132,82);fill-rule:nonzero;"/>
                        </g>
                        <g id="C1_0_fc3e2b5cba13" serif:id="C1_0_fc3e2b5cba" transform="matrix(1,0,0,1,272.8,114.523)">
                            <path d="M0,3C0.796,3 1.559,2.684 2.121,2.121C2.684,1.559 3,0.796 3,0C3,-0.796 2.684,-1.559 2.121,-2.121C1.559,-2.684 0.796,-3 0,-3C-0.796,-3 -1.559,-2.684 -2.121,-2.121C-2.684,-1.559 -3,-0.796 -3,0C-3,0.796 -2.684,1.559 -2.121,2.121C-1.559,2.684 -0.796,3 0,3Z" style="fill:rgb(221,132,82);fill-rule:nonzero;"/>
                        </g>
                        <g id="C1_0_fc3e2b5cba14" serif:id="C1_0_fc3e2b5cba" transform="matrix(1,0,0,1,231.358,114.274)">
                            <path d="M0,3C0.796,3 1.559,2.684 2.121,2.121C2.684,1.559 3,0.796 3,0C3,-0.796 2.684,-1.559 2.121,-2.121C1.559,-2.684 0.796,-3 0,-3C-0.796,-3 -1.559,-2.684 -2.121,-2.121C-2.684,-1.559 -3,-0.796 -3,0C-3,0.796 -2.684,1.559 -2.121,2.121C-1.559,2.684 -0.796,3 0,3Z" style="fill:rgb(221,132,82);fill-rule:nonzero;"/>
                        </g>
                        <g id="C1_0_fc3e2b5cba15" serif:id="C1_0_fc3e2b5cba" transform="matrix(1,0,0,1,279.085,114.109)">
                            <path d="M0,3C0.796,3 1.559,2.684 2.121,2.121C2.684,1.559 3,0.796 3,0C3,-0.796 2.684,-1.559 2.121,-2.121C1.559,-2.684 0.796,-3 0,-3C-0.796,-3 -1.559,-2.684 -2.121,-2.121C-2.684,-1.559 -3,-0.796 -3,0C-3,0.796 -2.684,1.559 -2.121,2.121C-1.559,2.684 -0.796,3 0,3Z" style="fill:rgb(221,132,82);fill-rule:nonzero;"/>
                        </g>
                        <g id="C1_0_fc3e2b5cba16" serif:id="C1_0_fc3e2b5cba" transform="matrix(1,0,0,1,253.625,112.622)">
                            <path d="M0,3C0.796,3 1.559,2.684 2.121,2.121C2.684,1.559 3,0.796 3,0C3,-0.796 2.684,-1.559 2.121,-2.121C1.559,-2.684 0.796,-3 0,-3C-0.796,-3 -1.559,-2.684 -2.121,-2.121C-2.684,-1.559 -3,-0.796 -3,0C-3,0.796 -2.684,1.559 -2.121,2.121C-1.559,2.684 -0.796,3 0,3Z" style="fill:rgb(221,132,82);fill-rule:nonzero;"/>
                        </g>
                        <g id="C1_0_fc3e2b5cba17" serif:id="C1_0_fc3e2b5cba" transform="matrix(1,0,0,1,225.662,111.709)">
                            <path d="M0,3C0.796,3 1.559,2.684 2.121,2.121C2.684,1.559 3,0.796 3,0C3,-0.796 2.684,-1.559 2.121,-2.121C1.559,-2.684 0.796,-3 0,-3C-0.796,-3 -1.559,-2.684 -2.121,-2.121C-2.684,-1.559 -3,-0.796 -3,0C-3,0.796 -2.684,1.559 -2.121,2.121C-1.559,2.684 -0.796,3 0,3Z" style="fill:rgb(221,132,82);fill-rule:nonzero;"/>
                        </g>
                        <g id="C1_0_fc3e2b5cba18" serif:id="C1_0_fc3e2b5cba" transform="matrix(1,0,0,1,259.642,110.845)">
                            <path d="M0,3C0.796,3 1.559,2.684 2.121,2.121C2.684,1.559 3,0.796 3,0C3,-0.796 2.684,-1.559 2.121,-2.121C1.559,-2.684 0.796,-3 0,-3C-0.796,-3 -1.559,-2.684 -2.121,-2.121C-2.684,-1.559 -3,-0.796 -3,0C-3,0.796 -2.684,1.559 -2.121,2.121C-1.559,2.684 -0.796,3 0,3Z" style="fill:rgb(221,132,82);fill-rule:nonzero;"/>
                        </g>
                        <g id="C1_0_fc3e2b5cba19" serif:id="C1_0_fc3e2b5cba" transform="matrix(1,0,0,1,252.647,93.7164)">
                            <path d="M0,3C0.796,3 1.559,2.684 2.121,2.121C2.684,1.559 3,0.796 3,0C3,-0.796 2.684,-1.559 2.121,-2.121C1.559,-2.684 0.796,-3 0,-3C-0.796,-3 -1.559,-2.684 -2.121,-2.121C-2.684,-1.559 -3,-0.796 -3,0C-3,0.796 -2.684,1.559 -2.121,2.121C-1.559,2.684 -0.796,3 0,3Z" style="fill:rgb(221,132,82);fill-rule:nonzero;"/>
                        </g>
                    </g>
                    <g id="PathCollection_3">
                        <g id="C2_0_3b5160ac26" transform="matrix(1,0,0,1,364.247,198.784)">
                            <path d="M0,3C0.796,3 1.559,2.684 2.121,2.121C2.684,1.559 3,0.796 3,0C3,-0.796 2.684,-1.559 2.121,-2.121C1.559,-2.684 0.796,-3 0,-3C-0.796,-3 -1.559,-2.684 -2.121,-2.121C-2.684,-1.559 -3,-0.796 -3,0C-3,0.796 -2.684,1.559 -2.121,2.121C-1.559,2.684 -0.796,3 0,3Z" style="fill:rgb(85,168,104);fill-rule:nonzero;"/>
                        </g>
                        <g id="C2_0_3b5160ac261" serif:id="C2_0_3b5160ac26" transform="matrix(1,0,0,1,359.03,195.42)">
                            <path d="M0,3C0.796,3 1.559,2.684 2.121,2.121C2.684,1.559 3,0.796 3,0C3,-0.796 2.684,-1.559 2.121,-2.121C1.559,-2.684 0.796,-3 0,-3C-0.796,-3 -1.559,-2.684 -2.121,-2.121C-2.684,-1.559 -3,-0.796 -3,0C-3,0.796 -2.684,1.559 -2.121,2.121C-1.559,2.684 -0.796,3 0,3Z" style="fill:rgb(85,168,104);fill-rule:nonzero;"/>
                        </g>
                        <g id="C2_0_3b5160ac262" serif:id="C2_0_3b5160ac26" transform="matrix(1,0,0,1,369.313,195.217)">
                            <path d="M0,3C0.796,3 1.559,2.684 2.121,2.121C2.684,1.559 3,0.796 3,0C3,-0.796 2.684,-1.559 2.121,-2.121C1.559,-2.684 0.796,-3 0,-3C-0.796,-3 -1.559,-2.684 -2.121,-2.121C-2.684,-1.559 -3,-0.796 -3,0C-3,0.796 -2.684,1.559 -2.121,2.121C-1.559,2.684 -0.796,3 0,3Z" style="fill:rgb(85,168,104);fill-rule:nonzero;"/>
                        </g>
                        <g id="C2_0_3b5160ac263" serif:id="C2_0_3b5160ac26" transform="matrix(1,0,0,1,375.06,192.759)">
                            <path d="M0,3C0.796,3 1.559,2.684 2.121,2.121C2.684,1.559 3,0.796 3,0C3,-0.796 2.684,-1.559 2.121,-2.121C1.559,-2.684 0.796,-3 0,-3C-0.796,-3 -1.559,-2.684 -2.121,-2.121C-2.684,-1.559 -3,-0.796 -3,0C-3,0.796 -2.684,1.559 -2.121,2.121C-1.559,2.684 -0.796,3 0,3Z" style="fill:rgb(85,168,104);fill-rule:nonzero;"/>
                        </g>
                        <g id="C2_0_3b5160ac264" serif:id="C2_0_3b5160ac26" transform="matrix(1,0,0,1,364.247,186.918)">
                            <path d="M0,3C0.796,3 1.559,2.684 2.121,2.121C2.684,1.559 3,0.796 3,0C3,-0.796 2.684,-1.559 2.121,-2.121C1.559,-2.684 0.796,-3 0,-3C-0.796,-3 -1.559,-2.684 -2.121,-2.121C-2.684,-1.559 -3,-0.796 -3,0C-3,0.796 -2.684,1.559 -2.121,2.121C-1.559,2.684 -0.796,3 0,3Z" style="fill:rgb(85,168,104);fill-rule:nonzero;"/>
                        </g>
                        <g id="C2_0_3b5160ac265" serif:id="C2_0_3b5160ac26" transform="matrix(1,0,0,1,364.247,176.305)">
                            <path d="M0,3C0.796,3 1.559,2.684 2.121,2.121C2.684,1.559 3,0.796 3,0C3,-0.796 2.684,-1.559 2.121,-2.121C1.559,-2.684 0.796,-3 0,-3C-0.796,-3 -1.559,-2.684 -2.121,-2.121C-2.684,-1.559 -3,-0.796 -3,0C-3,0.796 -2.684,1.559 -2.121,2.121C-1.559,2.684 -0.796,3 0,3Z" style="fill:rgb(85,168,104);fill-rule:nonzero;"/>
                        </g>
                        <g id="C2_0_3b5160ac266" serif:id="C2_0_3b5160ac26" transform="matrix(1,0,0,1,357.948,176.241)">
                            <path d="M0,3C0.796,3 1.559,2.684 2.121,2.121C2.684,1.559 3,0.796 3,0C3,-0.796 2.684,-1.559 2.121,-2.121C1.559,-2.684 0.796,-3 0,-3C-0.796,-3 -1.559,-2.684 -2.121,-2.121C-2.684,-1.559 -3,-0.796 -3,0C-3,0.796 -2.684,1.559 -2.121,2.121C-1.559,2.684 -0.796,3 0,3Z" style="fill:rgb(85,168,104);fill-rule:nonzero;"/>
                        </g>
                        <g id="C2_0_3b5160ac267" serif:id="C2_0_3b5160ac26" transform="matrix(1,0,0,1,370.426,175.131)">
                            <path d="M0,3C0.796,3 1.559,2.684 2.121,2.121C2.684,1.559 3,0.796 3,0C3,-0.796 2.684,-1.559 2.121,-2.121C1.559,-2.684 0.796,-3 0,-3C-0.796,-3 -1.559,-2.684 -2.121,-2.121C-2.684,-1.559 -3,-0.796 -3,0C-3,0.796 -2.684,1.559 -2.121,2.121C-1.559,2.684 -0.796,3 0,3Z" style="fill:rgb(85,168,104);fill-rule:nonzero;"/>
                        </g>
                        <g id="C2_0_3b5160ac268" serif:id="C2_0_3b5160ac26" transform="matrix(1,0,0,1,352.579,173.101)">
                            <path d="M0,3C0.796,3 1.559,2.684 2.121,2.121C2.684,1.559 3,0.796 3,0C3,-0.796 2.684,-1.559 2.121,-2.121C1.559,-2.684 0.796,-3 0,-3C-0.796,-3 -1.559,-2.684 -2.121,-2.121C-2.684,-1.559 -3,-0.796 -3,0C-3,0.796 -2.684,1.559 -2.121,2.121C-1.559,2.684 -0.796,3 0,3Z" style="fill:rgb(85,168,104);fill-rule:nonzero;"/>
                        </g>
                        <g id="C2_0_3b5160ac269" serif:id="C2_0_3b5160ac26" transform="matrix(1,0,0,1,375.237,171.258)">
                            <path d="M0,3C0.796,3 1.559,2.684 2.121,2.121C2.684,1.559 3,0.796 3,0C3,-0.796 2.684,-1.559 2.121,-2.121C1.559,-2.684 0.796,-3 0,-3C-0.796,-3 -1.559,-2.684 -2.121,-2.121C-2.684,-1.559 -3,-0.796 -3,0C-3,0.796 -2.684,1.559 -2.121,2.121C-1.559,2.684 -0.796,3 0,3Z" style="fill:rgb(85,168,104);fill-rule:nonzero;"/>
                        </g>
                        <g id="C2_0_3b5160ac2610" serif:id="C2_0_3b5160ac26" transform="matrix(1,0,0,1,364.247,169.145)">
                            <path d="M0,3C0.796,3 1.559,2.684 2.121,2.121C2.684,1.559 3,0.796 3,0C3,-0.796 2.684,-1.559 2.121,-2.121C1.559,-2.684 0.796,-3 0,-3C-0.796,-3 -1.559,-2.684 -2.121,-2.121C-2.684,-1.559 -3,-0.796 -3,0C-3,0.796 -2.684,1.559 -2.121,2.121C-1.559,2.684 -0.796,3 0,3Z" style="fill:rgb(85,168,104);fill-rule:nonzero;"/>
                        </g>
                        <g id="C2_0_3b5160ac2611" serif:id="C2_0_3b5160ac26" transform="matrix(1,0,0,1,357.993,168.426)">
                            <path d="M0,3C0.796,3 1.559,2.684 2.121,2.121C2.684,1.559 3,0.796 3,0C3,-0.796 2.684,-1.559 2.121,-2.121C1.559,-2.684 0.796,-3 0,-3C-0.796,-3 -1.559,-2.684 -2.121,-2.121C-2.684,-1.559 -3,-0.796 -3,0C-3,0.796 -2.684,1.559 -2.121,2.121C-1.559,2.684 -0.796,3 0,3Z" style="fill:rgb(85,168,104);fill-rule:nonzero;"/>
                        </g>
                        <g id="C2_0_3b5160ac2612" serif:id="C2_0_3b5160ac26" transform="matrix(1,0,0,1,368.126,164.417)">
                            <path d="M0,3C0.796,3 1.559,2.684 2.121,2.121C2.684,1.559 3,0.796 3,0C3,-0.796 2.684,-1.559 2.121,-2.121C1.559,-2.684 0.796,-3 0,-3C-0.796,-3 -1.559,-2.684 -2.121,-2.121C-2.684,-1.559 -3,-0.796 -3,0C-3,0.796 -2.684,1.559 -2.121,2.121C-1.559,2.684 -0.796,3 0,3Z" style="fill:rgb(85,168,104);fill-rule:nonzero;"/>
                        </g>
                        <g id="C2_0_3b5160ac2613" serif:id="C2_0_3b5160ac26" transform="matrix(1,0,0,1,362.977,160.959)">
                            <path d="M0,3C0.796,3 1.559,2.684 2.121,2.121C2.684,1.559 3,0.796 3,0C3,-0.796 2.684,-1.559 2.121,-2.121C1.559,-2.684 0.796,-3 0,-3C-0.796,-3 -1.559,-2.684 -2.121,-2.121C-2.684,-1.559 -3,-0.796 -3,0C-3,0.796 -2.684,1.559 -2.121,2.121C-1.559,2.684 -0.796,3 0,3Z" style="fill:rgb(85,168,104);fill-rule:nonzero;"/>
                        </g>
                        <g id="C2_0_3b5160ac2614" serif:id="C2_0_3b5160ac26" transform="matrix(1,0,0,1,367.081,156.406)">
                            <path d="M0,3C0.796,3 1.559,2.684 2.121,2.121C2.684,1.559 3,0.796 3,0C3,-0.796 2.684,-1.559 2.121,-2.121C1.559,-2.684 0.796,-3 0,-3C-0.796,-3 -1.559,-2.684 -2.121,-2.121C-2.684,-1.559 -3,-0.796 -3,0C-3,0.796 -2.684,1.559 -2.121,2.121C-1.559,2.684 -0.796,3 0,3Z" style="fill:rgb(85,168,104);fill-rule:nonzero;"/>
                        </g>
                        <g id="C2_0_3b5160ac2615" serif:id="C2_0_3b5160ac26" transform="matrix(1,0,0,1,361.297,154.028)">
                            <path d="M0,3C0.796,3 1.559,2.684 2.121,2.121C2.684,1.559 3,0.796 3,0C3,-0.796 2.684,-1.559 2.121,-2.121C1.559,-2.684 0.796,-3 0,-3C-0.796,-3 -1.559,-2.684 -2.121,-2.121C-2.684,-1.559 -3,-0.796 -3,0C-3,0.796 -2.684,1.559 -2.121,2.121C-1.559,2.684 -0.796,3 0,3Z" style="fill:rgb(85,168,104);fill-rule:nonzero;"/>
                        </g>
                        <g id="C2_0_3b5160ac2616" serif:id="C2_0_3b5160ac26" transform="matrix(1,0,0,1,364.247,147.761)">
                            <path d="M0,3C0.796,3 1.559,2.684 2.121,2.121C2.684,1.559 3,0.796 3,0C3,-0.796 2.684,-1.559 2.121,-2.121C1.559,-2.684 0.796,-3 0,-3C-0.796,-3 -1.559,-2.684 -2.121,-2.121C-2.684,-1.559 -3,-0.796 -3,0C-3,0.796 -2.684,1.559 -2.121,2.121C-1.559,2.684 -0.796,3 0,3Z" style="fill:rgb(85,168,104);fill-rule:nonzero;"/>
                        </g>
                        <g id="C2_0_3b5160ac2617" serif:id="C2_0_3b5160ac26" transform="matrix(1,0,0,1,358.023,146.834)">
                            <path d="M0,3C0.796,3 1.559,2.684 2.121,2.121C2.684,1.559 3,0.796 3,0C3,-0.796 2.684,-1.559 2.121,-2.121C1.559,-2.684 0.796,-3 0,-3C-0.796,-3 -1.559,-2.684 -2.121,-2.121C-2.684,-1.559 -3,-0.796 -3,0C-3,0.796 -2.684,1.559 -2.121,2.121C-1.559,2.684 -0.796,3 0,3Z" style="fill:rgb(85,168,104);fill-rule:nonzero;"/>
                        </g>
                        <g id="C2_0_3b5160ac2618" serif:id="C2_0_3b5160ac26" transform="matrix(1,0,0,1,370.116,145.579)">
                            <path d="M0,3C0.796,3 1.559,2.684 2.121,2.121C2.684,1.559 3,0.796 3,0C3,-0.796 2.684,-1.559 2.121,-2.121C1.559,-2.684 0.796,-3 0,-3C-0.796,-3 -1.559,-2.684 -2.121,-2.121C-2.684,-1.559 -3,-0.796 -3,0C-3,0.796 -2.684,1.559 -2.121,2.121C-1.559,2.684 -0.796,3 0,3Z" style="fill:rgb(85,168,104);fill-rule:nonzero;"/>
                        </g>
                        <g id="C2_0_3b5160ac2619" serif:id="C2_0_3b5160ac26" transform="matrix(1,0,0,1,364.247,138.982)">
                            <path d="M0,3C0.796,3 1.559,2.684 2.121,2.121C2.684,1.559 3,0.796 3,0C3,-0.796 2.684,-1.559 2.121,-2.121C1.559,-2.684 0.796,-3 0,-3C-0.796,-3 -1.559,-2.684 -2.121,-2.121C-2.684,-1.559 -3,-0.796 -3,0C-3,0.796 -2.684,1.559 -2.121,2.121C-1.559,2.684 -0.796,3 0,3Z" style="fill:rgb(85,168,104);fill-rule:nonzero;"/>
                        </g>
                    </g>
                    <g id="PathCollection_4">
                        <g id="C3_0_6ada5c40d9" transform="matrix(1,0,0,1,475.847,155.783)">
                            <path d="M0,3C0.796,3 1.559,2.684 2.121,2.121C2.684,1.559 3,0.796 3,0C3,-0.796 2.684,-1.559 2.121,-2.121C1.559,-2.684 0.796,-3 0,-3C-0.796,-3 -1.559,-2.684 -2.121,-2.121C-2.684,-1.559 -3,-0.796 -3,0C-3,0.796 -2.684,1.559 -2.121,2.121C-1.559,2.684 -0.796,3 0,3Z" style="fill:rgb(196,78,82);fill-rule:nonzero;"/>
                        </g>
                        <g id="C3_0_6ada5c40d91" serif:id="C3_0_6ada5c40d9" transform="matrix(1,0,0,1,471.955,151.066)">
                            <path d="M0,3C0.796,3 1.559,2.684 2.121,2.121C2.684,1.559 3,0.796 3,0C3,-0.796 2.684,-1.559 2.121,-2.121C1.559,-2.684 0.796,-3 0,-3C-0.796,-3 -1.559,-2.684 -2.121,-2.121C-2.684,-1.559 -3,-0.796 -3,0C-3,0.796 -2.684,1.559 -2.121,2.121C-1.559,2.684 -0.796,3 0,3Z" style="fill:rgb(196,78,82);fill-rule:nonzero;"/>
                        </g>
                        <g id="C3_0_6ada5c40d92" serif:id="C3_0_6ada5c40d9" transform="matrix(1,0,0,1,478.134,149.9)">
                            <path d="M0,3C0.796,3 1.559,2.684 2.121,2.121C2.684,1.559 3,0.796 3,0C3,-0.796 2.684,-1.559 2.121,-2.121C1.559,-2.684 0.796,-3 0,-3C-0.796,-3 -1.559,-2.684 -2.121,-2.121C-2.684,-1.559 -3,-0.796 -3,0C-3,0.796 -2.684,1.559 -2.121,2.121C-1.559,2.684 -0.796,3 0,3Z" style="fill:rgb(196,78,82);fill-rule:nonzero;"/>
                        </g>
                        <g id="C3_0_6ada5c40d93" serif:id="C3_0_6ada5c40d9" transform="matrix(1,0,0,1,475.847,137.999)">
                            <path d="M0,3C0.796,3 1.559,2.684 2.121,2.121C2.684,1.559 3,0.796 3,0C3,-0.796 2.684,-1.559 2.121,-2.121C1.559,-2.684 0.796,-3 0,-3C-0.796,-3 -1.559,-2.684 -2.121,-2.121C-2.684,-1.559 -3,-0.796 -3,0C-3,0.796 -2.684,1.559 -2.121,2.121C-1.559,2.684 -0.796,3 0,3Z" style="fill:rgb(196,78,82);fill-rule:nonzero;"/>
                        </g>
                        <g id="C3_0_6ada5c40d94" serif:id="C3_0_6ada5c40d9" transform="matrix(1,0,0,1,475.847,129.376)">
                            <path d="M0,3C0.796,3 1.559,2.684 2.121,2.121C2.684,1.559 3,0.796 3,0C3,-0.796 2.684,-1.559 2.121,-2.121C1.559,-2.684 0.796,-3 0,-3C-0.796,-3 -1.559,-2.684 -2.121,-2.121C-2.684,-1.559 -3,-0.796 -3,0C-3,0.796 -2.684,1.559 -2.121,2.121C-1.559,2.684 -0.796,3 0,3Z" style="fill:rgb(196,78,82);fill-rule:nonzero;"/>
                        </g>
                        <g id="C3_0_6ada5c40d95" serif:id="C3_0_6ada5c40d9" transform="matrix(1,0,0,1,469.55,129.208)">
                            <path d="M0,3C0.796,3 1.559,2.684 2.121,2.121C2.684,1.559 3,0.796 3,0C3,-0.796 2.684,-1.559 2.121,-2.121C1.559,-2.684 0.796,-3 0,-3C-0.796,-3 -1.559,-2.684 -2.121,-2.121C-2.684,-1.559 -3,-0.796 -3,0C-3,0.796 -2.684,1.559 -2.121,2.121C-1.559,2.684 -0.796,3 0,3Z" style="fill:rgb(196,78,82);fill-rule:nonzero;"/>
                        </g>
                        <g id="C3_0_6ada5c40d96" serif:id="C3_0_6ada5c40d9" transform="matrix(1,0,0,1,481.138,126.118)">
                            <path d="M0,3C0.796,3 1.559,2.684 2.121,2.121C2.684,1.559 3,0.796 3,0C3,-0.796 2.684,-1.559 2.121,-2.121C1.559,-2.684 0.796,-3 0,-3C-0.796,-3 -1.559,-2.684 -2.121,-2.121C-2.684,-1.559 -3,-0.796 -3,0C-3,0.796 -2.684,1.559 -2.121,2.121C-1.559,2.684 -0.796,3 0,3Z" style="fill:rgb(196,78,82);fill-rule:nonzero;"/>
                        </g>
                        <g id="C3_0_6ada5c40d97" serif:id="C3_0_6ada5c40d9" transform="matrix(1,0,0,1,464.979,125.079)">
                            <path d="M0,3C0.796,3 1.559,2.684 2.121,2.121C2.684,1.559 3,0.796 3,0C3,-0.796 2.684,-1.559 2.121,-2.121C1.559,-2.684 0.796,-3 0,-3C-0.796,-3 -1.559,-2.684 -2.121,-2.121C-2.684,-1.559 -3,-0.796 -3,0C-3,0.796 -2.684,1.559 -2.121,2.121C-1.559,2.684 -0.796,3 0,3Z" style="fill:rgb(196,78,82);fill-rule:nonzero;"/>
                        </g>
                        <g id="C3_0_6ada5c40d98" serif:id="C3_0_6ada5c40d9" transform="matrix(1,0,0,1,475.847,122.93)">
                            <path d="M0,3C0.796,3 1.559,2.684 2.121,2.121C2.684,1.559 3,0.796 3,0C3,-0.796 2.684,-1.559 2.121,-2.121C1.559,-2.684 0.796,-3 0,-3C-0.796,-3 -1.559,-2.684 -2.121,-2.121C-2.684,-1.559 -3,-0.796 -3,0C-3,0.796 -2.684,1.559 -2.121,2.121C-1.559,2.684 -0.796,3 0,3Z" style="fill:rgb(196,78,82);fill-rule:nonzero;"/>
                        </g>
                        <g id="C3_0_6ada5c40d99" serif:id="C3_0_6ada5c40d9" transform="matrix(1,0,0,1,485.9,122.189)">
                            <path d="M0,3C0.796,3 1.559,2.684 2.121,2.121C2.684,1.559 3,0.796 3,0C3,-0.796 2.684,-1.559 2.121,-2.121C1.559,-2.684 0.796,-3 0,-3C-0.796,-3 -1.559,-2.684 -2.121,-2.121C-2.684,-1.559 -3,-0.796 -3,0C-3,0.796 -2.684,1.559 -2.121,2.121C-1.559,2.684 -0.796,3 0,3Z" style="fill:rgb(196,78,82);fill-rule:nonzero;"/>
                        </g>
                        <g id="C3_0_6ada5c40d910" serif:id="C3_0_6ada5c40d9" transform="matrix(1,0,0,1,470.03,120.626)">
                            <path d="M0,3C0.796,3 1.559,2.684 2.121,2.121C2.684,1.559 3,0.796 3,0C3,-0.796 2.684,-1.559 2.121,-2.121C1.559,-2.684 0.796,-3 0,-3C-0.796,-3 -1.559,-2.684 -2.121,-2.121C-2.684,-1.559 -3,-0.796 -3,0C-3,0.796 -2.684,1.559 -2.121,2.121C-1.559,2.684 -0.796,3 0,3Z" style="fill:rgb(196,78,82);fill-rule:nonzero;"/>
                        </g>
                        <g id="C3_0_6ada5c40d911" serif:id="C3_0_6ada5c40d9" transform="matrix(1,0,0,1,478.719,117.59)">
                            <path d="M0,3C0.796,3 1.559,2.684 2.121,2.121C2.684,1.559 3,0.796 3,0C3,-0.796 2.684,-1.559 2.121,-2.121C1.559,-2.684 0.796,-3 0,-3C-0.796,-3 -1.559,-2.684 -2.121,-2.121C-2.684,-1.559 -3,-0.796 -3,0C-3,0.796 -2.684,1.559 -2.121,2.121C-1.559,2.684 -0.796,3 0,3Z" style="fill:rgb(196,78,82);fill-rule:nonzero;"/>
                        </g>
                        <g id="C3_0_6ada5c40d912" serif:id="C3_0_6ada5c40d9" transform="matrix(1,0,0,1,484.696,115.694)">
                            <path d="M0,3C0.796,3 1.559,2.684 2.121,2.121C2.684,1.559 3,0.796 3,0C3,-0.796 2.684,-1.559 2.121,-2.121C1.559,-2.684 0.796,-3 0,-3C-0.796,-3 -1.559,-2.684 -2.121,-2.121C-2.684,-1.559 -3,-0.796 -3,0C-3,0.796 -2.684,1.559 -2.121,2.121C-1.559,2.684 -0.796,3 0,3Z" style="fill:rgb(196,78,82);fill-rule:nonzero;"/>
                        </g>
                        <g id="C3_0_6ada5c40d913" serif:id="C3_0_6ada5c40d9" transform="matrix(1,0,0,1,475.021,112.732)">
                            <path d="M0,3C0.796,3 1.559,2.684 2.121,2.121C2.684,1.559 3,0.796 3,0C3,-0.796 2.684,-1.559 2.121,-2.121C1.559,-2.684 0.796,-3 0,-3C-0.796,-3 -1.559,-2.684 -2.121,-2.121C-2.684,-1.559 -3,-0.796 -3,0C-3,0.796 -2.684,1.559 -2.121,2.121C-1.559,2.684 -0.796,3 0,3Z" style="fill:rgb(196,78,82);fill-rule:nonzero;"/>
                        </g>
                        <g id="C3_0_6ada5c40d914" serif:id="C3_0_6ada5c40d9" transform="matrix(1,0,0,1,468.887,111.364)">
                            <path d="M0,3C0.796,3 1.559,2.684 2.121,2.121C2.684,1.559 3,0.796 3,0C3,-0.796 2.684,-1.559 2.121,-2.121C1.559,-2.684 0.796,-3 0,-3C-0.796,-3 -1.559,-2.684 -2.121,-2.121C-2.684,-1.559 -3,-0.796 -3,0C-3,0.796 -2.684,1.559 -2.121,2.121C-1.559,2.684 -0.796,3 0,3Z" style="fill:rgb(196,78,82);fill-rule:nonzero;"/>
                        </g>
                        <g id="C3_0_6ada5c40d915" serif:id="C3_0_6ada5c40d9" transform="matrix(1,0,0,1,479.397,108.416)">
                            <path d="M0,3C0.796,3 1.559,2.684 2.121,2.121C2.684,1.559 3,0.796 3,0C3,-0.796 2.684,-1.559 2.121,-2.121C1.559,-2.684 0.796,-3 0,-3C-0.796,-3 -1.559,-2.684 -2.121,-2.121C-2.684,-1.559 -3,-0.796 -3,0C-3,0.796 -2.684,1.559 -2.121,2.121C-1.559,2.684 -0.796,3 0,3Z" style="fill:rgb(196,78,82);fill-rule:nonzero;"/>
                        </g>
                        <g id="C3_0_6ada5c40d916" serif:id="C3_0_6ada5c40d9" transform="matrix(1,0,0,1,485.689,108.117)">
                            <path d="M0,3C0.796,3 1.559,2.684 2.121,2.121C2.684,1.559 3,0.796 3,0C3,-0.796 2.684,-1.559 2.121,-2.121C1.559,-2.684 0.796,-3 0,-3C-0.796,-3 -1.559,-2.684 -2.121,-2.121C-2.684,-1.559 -3,-0.796 -3,0C-3,0.796 -2.684,1.559 -2.121,2.121C-1.559,2.684 -0.796,3 0,3Z" style="fill:rgb(196,78,82);fill-rule:nonzero;"/>
                        </g>
                        <g id="C3_0_6ada5c40d917" serif:id="C3_0_6ada5c40d9" transform="matrix(1,0,0,1,475.847,95.0097)">
                            <path d="M0,3C0.796,3 1.559,2.684 2.121,2.121C2.684,1.559 3,0.796 3,0C3,-0.796 2.684,-1.559 2.121,-2.121C1.559,-2.684 0.796,-3 0,-3C-0.796,-3 -1.559,-2.684 -2.121,-2.121C-2.684,-1.559 -3,-0.796 -3,0C-3,0.796 -2.684,1.559 -2.121,2.121C-1.559,2.684 -0.796,3 0,3Z" style="fill:rgb(196,78,82);fill-rule:nonzero;"/>
                        </g>
                        <g id="C3_0_6ada5c40d918" serif:id="C3_0_6ada5c40d9" transform="matrix(1,0,0,1,470.332,92.1097)">
                            <path d="M0,3C0.796,3 1.559,2.684 2.121,2.121C2.684,1.559 3,0.796 3,0C3,-0.796 2.684,-1.559 2.121,-2.121C1.559,-2.684 0.796,-3 0,-3C-0.796,-3 -1.559,-2.684 -2.121,-2.121C-2.684,-1.559 -3,-0.796 -3,0C-3,0.796 -2.684,1.559 -2.121,2.121C-1.559,2.684 -0.796,3 0,3Z" style="fill:rgb(196,78,82);fill-rule:nonzero;"/>
                        </g>
                        <g id="C3_0_6ada5c40d919" serif:id="C3_0_6ada5c40d9" transform="matrix(1,0,0,1,475.847,88.7182)">
                            <path d="M0,3C0.796,3 1.559,2.684 2.121,2.121C2.684,1.559 3,0.796 3,0C3,-0.796 2.684,-1.559 2.121,-2.121C1.559,-2.684 0.796,-3 0,-3C-0.796,-3 -1.559,-2.684 -2.121,-2.121C-2.684,-1.559 -3,-0.796 -3,0C-3,0.796 -2.684,1.559 -2.121,2.121C-1.559,2.684 -0.796,3 0,3Z" style="fill:rgb(196,78,82);fill-rule:nonzero;"/>
                        </g>
                    </g>
                    <g id="PathCollection_5">
                        <g id="C4_0_19f7490566" transform="matrix(1,0,0,1,587.447,126.731)">
                            <path d="M0,3C0.796,3 1.559,2.684 2.121,2.121C2.684,1.559 3,0.796 3,0C3,-0.796 2.684,-1.559 2.121,-2.121C1.559,-2.684 0.796,-3 0,-3C-0.796,-3 -1.559,-2.684 -2.121,-2.121C-2.684,-1.559 -3,-0.796 -3,0C-3,0.796 -2.684,1.559 -2.121,2.121C-1.559,2.684 -0.796,3 0,3Z" style="fill:rgb(129,114,179);fill-rule:nonzero;"/>
                        </g>
                        <g id="C4_0_19f74905661" serif:id="C4_0_19f7490566" transform="matrix(1,0,0,1,584.303,121.532)">
                            <path d="M0,3C0.796,3 1.559,2.684 2.121,2.121C2.684,1.559 3,0.796 3,0C3,-0.796 2.684,-1.559 2.121,-2.121C1.559,-2.684 0.796,-3 0,-3C-0.796,-3 -1.559,-2.684 -2.121,-2.121C-2.684,-1.559 -3,-0.796 -3,0C-3,0.796 -2.684,1.559 -2.121,2.121C-1.559,2.684 -0.796,3 0,3Z" style="fill:rgb(129,114,179);fill-rule:nonzero;"/>
                        </g>
                        <g id="C4_0_19f74905662" serif:id="C4_0_19f7490566" transform="matrix(1,0,0,1,590.598,121.3)">
                            <path d="M0,3C0.796,3 1.559,2.684 2.121,2.121C2.684,1.559 3,0.796 3,0C3,-0.796 2.684,-1.559 2.121,-2.121C1.559,-2.684 0.796,-3 0,-3C-0.796,-3 -1.559,-2.684 -2.121,-2.121C-2.684,-1.559 -3,-0.796 -3,0C-3,0.796 -2.684,1.559 -2.121,2.121C-1.559,2.684 -0.796,3 0,3Z" style="fill:rgb(129,114,179);fill-rule:nonzero;"/>
                        </g>
                        <g id="C4_0_19f74905663" serif:id="C4_0_19f7490566" transform="matrix(1,0,0,1,579.012,118.274)">
                            <path d="M0,3C0.796,3 1.559,2.684 2.121,2.121C2.684,1.559 3,0.796 3,0C3,-0.796 2.684,-1.559 2.121,-2.121C1.559,-2.684 0.796,-3 0,-3C-0.796,-3 -1.559,-2.684 -2.121,-2.121C-2.684,-1.559 -3,-0.796 -3,0C-3,0.796 -2.684,1.559 -2.121,2.121C-1.559,2.684 -0.796,3 0,3Z" style="fill:rgb(129,114,179);fill-rule:nonzero;"/>
                        </g>
                        <g id="C4_0_19f74905664" serif:id="C4_0_19f7490566" transform="matrix(1,0,0,1,594.833,116.858)">
                            <path d="M0,3C0.796,3 1.559,2.684 2.121,2.121C2.684,1.559 3,0.796 3,0C3,-0.796 2.684,-1.559 2.121,-2.121C1.559,-2.684 0.796,-3 0,-3C-0.796,-3 -1.559,-2.684 -2.121,-2.121C-2.684,-1.559 -3,-0.796 -3,0C-3,0.796 -2.684,1.559 -2.121,2.121C-1.559,2.684 -0.796,3 0,3Z" style="fill:rgb(129,114,179);fill-rule:nonzero;"/>
                        </g>
                        <g id="C4_0_19f74905665" serif:id="C4_0_19f7490566" transform="matrix(1,0,0,1,587.447,113.913)">
                            <path d="M0,3C0.796,3 1.559,2.684 2.121,2.121C2.684,1.559 3,0.796 3,0C3,-0.796 2.684,-1.559 2.121,-2.121C1.559,-2.684 0.796,-3 0,-3C-0.796,-3 -1.559,-2.684 -2.121,-2.121C-2.684,-1.559 -3,-0.796 -3,0C-3,0.796 -2.684,1.559 -2.121,2.121C-1.559,2.684 -0.796,3 0,3Z" style="fill:rgb(129,114,179);fill-rule:nonzero;"/>
                        </g>
                        <g id="C4_0_19f74905666" serif:id="C4_0_19f7490566" transform="matrix(1,0,0,1,581.315,112.539)">
                            <path d="M0,3C0.796,3 1.559,2.684 2.121,2.121C2.684,1.559 3,0.796 3,0C3,-0.796 2.684,-1.559 2.121,-2.121C1.559,-2.684 0.796,-3 0,-3C-0.796,-3 -1.559,-2.684 -2.121,-2.121C-2.684,-1.559 -3,-0.796 -3,0C-3,0.796 -2.684,1.559 -2.121,2.121C-1.559,2.684 -0.796,3 0,3Z" style="fill:rgb(129,114,179);fill-rule:nonzero;"/>
                        </g>
                        <g id="C4_0_19f74905667" serif:id="C4_0_19f7490566" transform="matrix(1,0,0,1,587.447,100.323)">
                            <path d="M0,3C0.796,3 1.559,2.684 2.121,2.121C2.684,1.559 3,0.796 3,0C3,-0.796 2.684,-1.559 2.121,-2.121C1.559,-2.684 0.796,-3 0,-3C-0.796,-3 -1.559,-2.684 -2.121,-2.121C-2.684,-1.559 -3,-0.796 -3,0C-3,0.796 -2.684,1.559 -2.121,2.121C-1.559,2.684 -0.796,3 0,3Z" style="fill:rgb(129,114,179);fill-rule:nonzero;"/>
                        </g>
                        <g id="C4_0_19f74905668" serif:id="C4_0_19f7490566" transform="matrix(1,0,0,1,581.438,98.5206)">
                            <path d="M0,3C0.796,3 1.559,2.684 2.121,2.121C2.684,1.559 3,0.796 3,0C3,-0.796 2.684,-1.559 2.121,-2.121C1.559,-2.684 0.796,-3 0,-3C-0.796,-3 -1.559,-2.684 -2.121,-2.121C-2.684,-1.559 -3,-0.796 -3,0C-3,0.796 -2.684,1.559 -2.121,2.121C-1.559,2.684 -0.796,3 0,3Z" style="fill:rgb(129,114,179);fill-rule:nonzero;"/>
                        </g>
                        <g id="C4_0_19f74905669" serif:id="C4_0_19f7490566" transform="matrix(1,0,0,1,591.986,96.1622)">
                            <path d="M0,3C0.796,3 1.559,2.684 2.121,2.121C2.684,1.559 3,0.796 3,0C3,-0.796 2.684,-1.559 2.121,-2.121C1.559,-2.684 0.796,-3 0,-3C-0.796,-3 -1.559,-2.684 -2.121,-2.121C-2.684,-1.559 -3,-0.796 -3,0C-3,0.796 -2.684,1.559 -2.121,2.121C-1.559,2.684 -0.796,3 0,3Z" style="fill:rgb(129,114,179);fill-rule:nonzero;"/>
                        </g>
                        <g id="C4_0_19f749056610" serif:id="C4_0_19f7490566" transform="matrix(1,0,0,1,586.065,94.1149)">
                            <path d="M0,3C0.796,3 1.559,2.684 2.121,2.121C2.684,1.559 3,0.796 3,0C3,-0.796 2.684,-1.559 2.121,-2.121C1.559,-2.684 0.796,-3 0,-3C-0.796,-3 -1.559,-2.684 -2.121,-2.121C-2.684,-1.559 -3,-0.796 -3,0C-3,0.796 -2.684,1.559 -2.121,2.121C-1.559,2.684 -0.796,3 0,3Z" style="fill:rgb(129,114,179);fill-rule:nonzero;"/>
                        </g>
                        <g id="C4_0_19f749056611" serif:id="C4_0_19f7490566" transform="matrix(1,0,0,1,580.608,91.1164)">
                            <path d="M0,3C0.796,3 1.559,2.684 2.121,2.121C2.684,1.559 3,0.796 3,0C3,-0.796 2.684,-1.559 2.121,-2.121C1.559,-2.684 0.796,-3 0,-3C-0.796,-3 -1.559,-2.684 -2.121,-2.121C-2.684,-1.559 -3,-0.796 -3,0C-3,0.796 -2.684,1.559 -2.121,2.121C-1.559,2.684 -0.796,3 0,3Z" style="fill:rgb(129,114,179);fill-rule:nonzero;"/>
                        </g>
                        <g id="C4_0_19f749056612" serif:id="C4_0_19f7490566" transform="matrix(1,0,0,1,587.447,86.1242)">
                            <path d="M0,3C0.796,3 1.559,2.684 2.121,2.121C2.684,1.559 3,0.796 3,0C3,-0.796 2.684,-1.559 2.121,-2.121C1.559,-2.684 0.796,-3 0,-3C-0.796,-3 -1.559,-2.684 -2.121,-2.121C-2.684,-1.559 -3,-0.796 -3,0C-3,0.796 -2.684,1.559 -2.121,2.121C-1.559,2.684 -0.796,3 0,3Z" style="fill:rgb(129,114,179);fill-rule:nonzero;"/>
                        </g>
                        <g id="C4_0_19f749056613" serif:id="C4_0_19f7490566" transform="matrix(1,0,0,1,587.447,74.9207)">
                            <path d="M0,3C0.796,3 1.559,2.684 2.121,2.121C2.684,1.559 3,0.796 3,0C3,-0.796 2.684,-1.559 2.121,-2.121C1.559,-2.684 0.796,-3 0,-3C-0.796,-3 -1.559,-2.684 -2.121,-2.121C-2.684,-1.559 -3,-0.796 -3,0C-3,0.796 -2.684,1.559 -2.121,2.121C-1.559,2.684 -0.796,3 0,3Z" style="fill:rgb(129,114,179);fill-rule:nonzero;"/>
                        </g>
                        <g id="C4_0_19f749056614" serif:id="C4_0_19f7490566" transform="matrix(1,0,0,1,587.447,67.5736)">
                            <path d="M0,3C0.796,3 1.559,2.684 2.121,2.121C2.684,1.559 3,0.796 3,0C3,-0.796 2.684,-1.559 2.121,-2.121C1.559,-2.684 0.796,-3 0,-3C-0.796,-3 -1.559,-2.684 -2.121,-2.121C-2.684,-1.559 -3,-0.796 -3,0C-3,0.796 -2.684,1.559 -2.121,2.121C-1.559,2.684 -0.796,3 0,3Z" style="fill:rgb(129,114,179);fill-rule:nonzero;"/>
                        </g>
                        <g id="C4_0_19f749056615" serif:id="C4_0_19f7490566" transform="matrix(1,0,0,1,582.558,63.7902)">
                            <path d="M0,3C0.796,3 1.559,2.684 2.121,2.121C2.684,1.559 3,0.796 3,0C3,-0.796 2.684,-1.559 2.121,-2.121C1.559,-2.684 0.796,-3 0,-3C-0.796,-3 -1.559,-2.684 -2.121,-2.121C-2.684,-1.559 -3,-0.796 -3,0C-3,0.796 -2.684,1.559 -2.121,2.121C-1.559,2.684 -0.796,3 0,3Z" style="fill:rgb(129,114,179);fill-rule:nonzero;"/>
                        </g>
                        <g id="C4_0_19f749056616" serif:id="C4_0_19f7490566" transform="matrix(1,0,0,1,588.179,61.0816)">
                            <path d="M0,3C0.796,3 1.559,2.684 2.121,2.121C2.684,1.559 3,0.796 3,0C3,-0.796 2.684,-1.559 2.121,-2.121C1.559,-2.684 0.796,-3 0,-3C-0.796,-3 -1.559,-2.684 -2.121,-2.121C-2.684,-1.559 -3,-0.796 -3,0C-3,0.796 -2.684,1.559 -2.121,2.121C-1.559,2.684 -0.796,3 0,3Z" style="fill:rgb(129,114,179);fill-rule:nonzero;"/>
                        </g>
                        <g id="C4_0_19f749056617" serif:id="C4_0_19f7490566" transform="matrix(1,0,0,1,593.625,58.0644)">
                            <path d="M0,3C0.796,3 1.559,2.684 2.121,2.121C2.684,1.559 3,0.796 3,0C3,-0.796 2.684,-1.559 2.121,-2.121C1.559,-2.684 0.796,-3 0,-3C-0.796,-3 -1.559,-2.684 -2.121,-2.121C-2.684,-1.559 -3,-0.796 -3,0C-3,0.796 -2.684,1.559 -2.121,2.121C-1.559,2.684 -0.796,3 0,3Z" style="fill:rgb(129,114,179);fill-rule:nonzero;"/>
                        </g>
                        <g id="C4_0_19f749056618" serif:id="C4_0_19f7490566" transform="matrix(1,0,0,1,587.447,38.5245)">
                            <path d="M0,3C0.796,3 1.559,2.684 2.121,2.121C2.684,1.559 3,0.796 3,0C3,-0.796 2.684,-1.559 2.121,-2.121C1.559,-2.684 0.796,-3 0,-3C-0.796,-3 -1.559,-2.684 -2.121,-2.121C-2.684,-1.559 -3,-0.796 -3,0C-3,0.796 -2.684,1.559 -2.121,2.121C-1.559,2.684 -0.796,3 0,3Z" style="fill:rgb(129,114,179);fill-rule:nonzero;"/>
                        </g>
                        <g id="C4_0_19f749056619" serif:id="C4_0_19f7490566" transform="matrix(1,0,0,1,587.447,29.2057)">
                            <path d="M0,3C0.796,3 1.559,2.684 2.121,2.121C2.684,1.559 3,0.796 3,0C3,-0.796 2.684,-1.559 2.121,-2.121C1.559,-2.684 0.796,-3 0,-3C-0.796,-3 -1.559,-2.684 -2.121,-2.121C-2.684,-1.559 -3,-0.796 -3,0C-3,0.796 -2.684,1.559 -2.121,2.121C-1.559,2.684 -0.796,3 0,3Z" style="fill:rgb(129,114,179);fill-rule:nonzero;"/>
                        </g>
                    </g>
                    <path id="line2d_10" d="M179.383,143.968L179.383,132.053" style="fill:none;stroke:rgb(76,114,176);stroke-width:2px;stroke-linecap:round;"/>
                    <path id="line2d_11" d="M179.383,126.381L179.383,114.466" style="fill:none;stroke:rgb(76,114,176);stroke-width:2px;stroke-linecap:round;"/>
                    <path id="line2d_12" d="M301.405,126.565L301.405,120.83" style="fill:none;stroke:rgb(221,132,82);stroke-width:2px;stroke-linecap:round;"/>
                    <path id="line2d_13" d="M301.405,115.158L301.405,109.423" style="fill:none;stroke:rgb(221,132,82);stroke-width:2px;stroke-linecap:round;"/>
                    <path id="line2d_14" d="M397.557,187.711L397.557,172.52" style="fill:none;stroke:rgb(85,168,104);stroke-width:2px;stroke-linecap:round;"/>
                    <path id="line2d_15" d="M397.557,166.847L397.557,151.656" style="fill:none;stroke:rgb(85,168,104);stroke-width:2px;stroke-linecap:round;"/>
                    <path id="line2d_16" d="M508.22,139.499L508.22,123.837" style="fill:none;stroke:rgb(196,78,82);stroke-width:2px;stroke-linecap:round;"/>
                    <path id="line2d_17" d="M508.22,118.165L508.22,102.503" style="fill:none;stroke:rgb(196,78,82);stroke-width:2px;stroke-linecap:round;"/>
                    <path id="line2d_18" d="M617.153,118.36L617.153,92.37" style="fill:none;stroke:rgb(129,114,179);stroke-width:2px;stroke-linecap:round;"/>
                    <path id="line2d_19" d="M617.153,86.697L617.153,60.707" style="fill:none;stroke:rgb(129,114,179);stroke-width:2px;stroke-linecap:round;"/>
                    <g id="m03937b9228" transform="matrix(1,0,0,1,0,543.224)">
                        <path d="M141.047,-334.946L587.447,-334.946" style="fill:rgb(38,38,38);fill-rule:nonzero;stroke:rgb(38,38,38);stroke-width:1px;"/>
                    </g>
                    <g id="me074908998" transform="matrix(1,0,0,1,0,543.224)">
                        <path d="M85.247,-334.946L85.247,-524.024" style="fill:rgb(38,38,38);fill-rule:nonzero;stroke:rgb(38,38,38);stroke-width:1px;"/>
                    </g>
                </g>
                <g id="axes_2">
                    <g id="matplotlib.axis_3">
                        <g id="m6d0cc8a40b5" serif:id="m6d0cc8a40b" transform="matrix(1,0,0,1,141.047,454.08)">
                            <path d="M0,0L0,12" style="fill:rgb(38,38,38);fill-rule:nonzero;stroke:rgb(38,38,38);stroke-width:1.25px;"/>
                        </g>
                        <g id="xtick_7">
                            <g id="m6d0cc8a40b6" serif:id="m6d0cc8a40b" transform="matrix(1,0,0,1,252.647,454.08)">
                                <path d="M0,0L0,12" style="fill:rgb(38,38,38);fill-rule:nonzero;stroke:rgb(38,38,38);stroke-width:1.25px;"/>
                            </g>
                            <g id="text_11">
                                <g transform="matrix(1,0,0,1,225.293,484.561)">
                                    <text x="0px" y="0px" style="font-family:'Karla-Regular', 'Karla';font-size:22px;fill:rgb(38,38,38);">T<tspan x="9.372px " y="0px ">e</tspan>st 1</text>
                                </g>
                                <g transform="matrix(1,0,0,1,219.989,507.707)">
                                    <text x="0px" y="0px" style="font-family:'Karla-Regular', 'Karla';font-size:22px;fill:rgb(38,38,38);">minus</text>
                                </g>
                                <g transform="matrix(1,0,0,1,215.856,530.854)">
                                    <text x="0px" y="0px" style="font-family:'Karla-Regular', 'Karla';font-size:22px;fill:rgb(38,38,38);">Control</text>
                                </g>
                            </g>
                        </g>
                        <g id="xtick_8">
                            <g id="m6d0cc8a40b7" serif:id="m6d0cc8a40b" transform="matrix(1,0,0,1,364.247,454.08)">
                                <path d="M0,0L0,12" style="fill:rgb(38,38,38);fill-rule:nonzero;stroke:rgb(38,38,38);stroke-width:1.25px;"/>
                            </g>
                            <g id="text_12">
                                <g transform="matrix(1,0,0,1,334.154,484.561)">
                                    <text x="0px" y="0px" style="font-family:'Karla-Regular', 'Karla';font-size:22px;fill:rgb(38,38,38);">T<tspan x="9.372px " y="0px ">e</tspan>st 2</text>
                                </g>
                                <g transform="matrix(1,0,0,1,331.589,507.707)">
                                    <text x="0px" y="0px" style="font-family:'Karla-Regular', 'Karla';font-size:22px;fill:rgb(38,38,38);">minus</text>
                                </g>
                                <g transform="matrix(1,0,0,1,327.456,530.854)">
                                    <text x="0px" y="0px" style="font-family:'Karla-Regular', 'Karla';font-size:22px;fill:rgb(38,38,38);">Control</text>
                                </g>
                            </g>
                        </g>
                        <g id="xtick_9">
                            <g id="m6d0cc8a40b8" serif:id="m6d0cc8a40b" transform="matrix(1,0,0,1,475.847,454.08)">
                                <path d="M0,0L0,12" style="fill:rgb(38,38,38);fill-rule:nonzero;stroke:rgb(38,38,38);stroke-width:1.25px;"/>
                            </g>
                            <g id="text_13">
                                <g transform="matrix(1,0,0,1,445.633,484.561)">
                                    <text x="0px" y="0px" style="font-family:'Karla-Regular', 'Karla';font-size:22px;fill:rgb(38,38,38);">T<tspan x="9.372px " y="0px ">e</tspan>st 3</text>
                                </g>
                                <g transform="matrix(1,0,0,1,443.189,507.707)">
                                    <text x="0px" y="0px" style="font-family:'Karla-Regular', 'Karla';font-size:22px;fill:rgb(38,38,38);">minus</text>
                                </g>
                                <g transform="matrix(1,0,0,1,439.056,530.854)">
                                    <text x="0px" y="0px" style="font-family:'Karla-Regular', 'Karla';font-size:22px;fill:rgb(38,38,38);">Control</text>
                                </g>
                            </g>
                        </g>
                        <g id="xtick_10">
                            <g id="m6d0cc8a40b9" serif:id="m6d0cc8a40b" transform="matrix(1,0,0,1,587.447,454.08)">
                                <path d="M0,0L0,12" style="fill:rgb(38,38,38);fill-rule:nonzero;stroke:rgb(38,38,38);stroke-width:1.25px;"/>
                            </g>
                            <g id="text_14">
                                <g transform="matrix(1,0,0,1,557.584,484.561)">
                                    <text x="0px" y="0px" style="font-family:'Karla-Regular', 'Karla';font-size:22px;fill:rgb(38,38,38);">T<tspan x="9.372px " y="0px ">e</tspan>st 4</text>
                                </g>
                                <g transform="matrix(1,0,0,1,554.789,507.707)">
                                    <text x="0px" y="0px" style="font-family:'Karla-Regular', 'Karla';font-size:22px;fill:rgb(38,38,38);">minus</text>
                                </g>
                                <g transform="matrix(1,0,0,1,550.656,530.854)">
                                    <text x="0px" y="0px" style="font-family:'Karla-Regular', 'Karla';font-size:22px;fill:rgb(38,38,38);">Control</text>
                                </g>
                            </g>
                        </g>
                    </g>
                    <g id="matplotlib.axis_4">
                        <g id="ytick_5">
                            <g id="mad11b1fdc74" serif:id="mad11b1fdc7" transform="matrix(1,0,0,1,85.2472,426.774)">
                                <path d="M0,0L-12,0" style="fill:rgb(38,38,38);fill-rule:nonzero;stroke:rgb(38,38,38);stroke-width:1.25px;"/>
                            </g>
                            <g id="text_15" transform="matrix(1,0,0,1,69.7472,434.264)">
                                <text x="-36.564px" y="0px" style="font-family:'Karla-Regular', 'Karla';font-size:22px;fill:rgb(38,38,38);">20</text>
                            </g>
                        </g>
                        <g id="ytick_6">
                            <g id="mad11b1fdc75" serif:id="mad11b1fdc7" transform="matrix(1,0,0,1,85.2472,366.709)">
                                <path d="M0,0L-12,0" style="fill:rgb(38,38,38);fill-rule:nonzero;stroke:rgb(38,38,38);stroke-width:1.25px;"/>
                            </g>
                            <g id="text_16" transform="matrix(1,0,0,1,69.7472,374.2)">
                                <text x="-13.068px" y="0px" style="font-family:'Karla-Regular', 'Karla';font-size:22px;fill:rgb(38,38,38);">0</text>
                            </g>
                        </g>
                        <g id="ytick_7">
                            <g id="mad11b1fdc76" serif:id="mad11b1fdc7" transform="matrix(1,0,0,1,85.2472,306.645)">
                                <path d="M0,0L-12,0" style="fill:rgb(38,38,38);fill-rule:nonzero;stroke:rgb(38,38,38);stroke-width:1.25px;"/>
                            </g>
                            <g id="text_17" transform="matrix(1,0,0,1,69.7472,314.135)">
                                <text x="-25.828px" y="0px" style="font-family:'Karla-Regular', 'Karla';font-size:22px;fill:rgb(38,38,38);">20</text>
                            </g>
                        </g>
                        <g id="text_18" transform="matrix(-3.82857e-16,-1,1,-3.82857e-16,23.5425,359.541)">
                            <text x="-88.644px" y="0px" style="font-family:'Karla-Regular', 'Karla';font-size:24px;fill:rgb(38,38,38);">Mean difference</text>
                        </g>
                    </g>
                    <g id="m4ba0ff845a" transform="matrix(1,0,0,1,0,543.224)">
                        <path d="M252.678,-170.961L252.648,-170.961L252.648,-171.362L252.648,-171.764L252.648,-172.165L252.648,-172.567L252.648,-172.969L252.648,-173.37L252.648,-173.772L252.648,-174.173L252.648,-174.575L252.648,-174.976L252.648,-175.378L252.648,-175.78L252.648,-176.181L252.648,-176.583L252.648,-176.984L252.648,-177.386L252.648,-177.787L252.648,-178.189L252.648,-178.591L252.648,-178.992L252.648,-179.394L252.648,-179.795L252.648,-180.197L252.648,-180.598L252.648,-181L252.648,-181.402L252.648,-181.803L252.648,-182.205L252.648,-182.606L252.648,-183.008L252.648,-183.409L252.648,-183.811L252.648,-184.212L252.648,-184.614L252.648,-185.016L252.648,-185.417L252.648,-185.819L252.648,-186.22L252.648,-186.622L252.648,-187.023L252.648,-187.425L252.648,-187.827L252.648,-188.228L252.648,-188.63L252.648,-189.031L252.648,-189.433L252.648,-189.834L252.648,-190.236L252.648,-190.638L252.648,-191.039L252.648,-191.441L252.648,-191.842L252.648,-192.244L252.648,-192.645L252.648,-193.047L252.648,-193.449L252.648,-193.85L252.648,-194.252L252.648,-194.653L252.648,-195.055L252.648,-195.456L252.648,-195.858L252.648,-196.26L252.648,-196.661L252.648,-197.063L252.648,-197.464L252.648,-197.866L252.648,-198.267L252.648,-198.669L252.648,-199.07L252.648,-199.472L252.648,-199.874L252.648,-200.275L252.648,-200.677L252.648,-201.078L252.648,-201.48L252.648,-201.881L252.648,-202.283L252.648,-202.685L252.648,-203.086L252.648,-203.488L252.648,-203.889L252.648,-204.291L252.648,-204.692L252.648,-205.094L252.648,-205.496L252.648,-205.897L252.648,-206.299L252.648,-206.7L252.648,-207.102L252.648,-207.503L252.648,-207.905L252.648,-208.307L252.648,-208.708L252.648,-209.11L252.648,-209.511L252.648,-209.913L252.648,-210.314L252.648,-210.716L252.712,-210.716L252.73,-210.314L252.752,-209.913L252.784,-209.511L252.827,-209.11L252.876,-208.708L252.924,-208.307L252.964,-207.905L253.005,-207.503L253.069,-207.102L253.187,-206.7L253.377,-206.299L253.638,-205.897L253.952,-205.496L254.296,-205.094L254.657,-204.692L255.025,-204.291L255.386,-203.889L255.722,-203.488L256.028,-203.086L256.34,-202.685L256.73,-202.283L257.277,-201.881L258.021,-201.48L258.945,-201.078L259.991,-200.677L261.086,-200.275L262.166,-199.874L263.201,-199.472L264.202,-199.07L265.202,-198.669L266.234,-198.267L267.314,-197.866L268.448,-197.464L269.646,-197.063L270.917,-196.661L272.238,-196.26L273.539,-195.858L274.728,-195.456L275.753,-195.055L276.647,-194.653L277.494,-194.252L278.345,-193.85L279.164,-193.449L279.857,-193.047L280.336,-192.645L280.547,-192.244L280.455,-191.842L280.053,-191.441L279.4,-191.039L278.634,-190.638L277.92,-190.236L277.34,-189.834L276.832,-189.433L276.237,-189.031L275.423,-188.63L274.371,-188.228L273.174,-187.827L271.954,-187.425L270.789,-187.023L269.697,-186.622L268.659,-186.22L267.646,-185.819L266.613,-185.417L265.507,-185.016L264.288,-184.614L262.969,-184.212L261.618,-183.811L260.32,-183.409L259.144,-183.008L258.122,-182.606L257.26,-182.205L256.546,-181.803L255.961,-181.402L255.467,-181L255.028,-180.598L254.624,-180.197L254.262,-179.795L253.96,-179.394L253.725,-178.992L253.543,-178.591L253.395,-178.189L253.263,-177.787L253.142,-177.386L253.036,-176.984L252.946,-176.583L252.874,-176.181L252.817,-175.78L252.772,-175.378L252.735,-174.976L252.706,-174.575L252.683,-174.173L252.666,-173.772L252.657,-173.37L252.654,-172.969L252.656,-172.567L252.661,-172.165L252.669,-171.764L252.675,-171.362L252.678,-170.961Z" style="fill:rgb(221,132,82);fill-opacity:0.8;fill-rule:nonzero;"/>
                    </g>
                    <g id="m8f9603f549" transform="matrix(1,0,0,1,0,543.224)">
                        <path d="M364.358,-97.739L364.248,-97.739L364.248,-98.257L364.248,-98.775L364.248,-99.293L364.248,-99.811L364.248,-100.329L364.248,-100.848L364.248,-101.366L364.248,-101.884L364.248,-102.402L364.248,-102.92L364.248,-103.438L364.248,-103.957L364.248,-104.475L364.248,-104.993L364.248,-105.511L364.248,-106.029L364.248,-106.548L364.248,-107.066L364.248,-107.584L364.248,-108.102L364.248,-108.62L364.248,-109.138L364.248,-109.657L364.248,-110.175L364.248,-110.693L364.248,-111.211L364.248,-111.729L364.248,-112.247L364.248,-112.766L364.248,-113.284L364.248,-113.802L364.248,-114.32L364.248,-114.838L364.248,-115.356L364.248,-115.875L364.248,-116.393L364.248,-116.911L364.248,-117.429L364.248,-117.947L364.248,-118.465L364.248,-118.984L364.248,-119.502L364.248,-120.02L364.248,-120.538L364.248,-121.056L364.248,-121.574L364.248,-122.093L364.248,-122.611L364.248,-123.129L364.248,-123.647L364.248,-124.165L364.248,-124.683L364.248,-125.202L364.248,-125.72L364.248,-126.238L364.248,-126.756L364.248,-127.274L364.248,-127.793L364.248,-128.311L364.248,-128.829L364.248,-129.347L364.248,-129.865L364.248,-130.383L364.248,-130.902L364.248,-131.42L364.248,-131.938L364.248,-132.456L364.248,-132.974L364.248,-133.492L364.248,-134.011L364.248,-134.529L364.248,-135.047L364.248,-135.565L364.248,-136.083L364.248,-136.601L364.248,-137.12L364.248,-137.638L364.248,-138.156L364.248,-138.674L364.248,-139.192L364.248,-139.71L364.248,-140.229L364.248,-140.747L364.248,-141.265L364.248,-141.783L364.248,-142.301L364.248,-142.819L364.248,-143.338L364.248,-143.856L364.248,-144.374L364.248,-144.892L364.248,-145.41L364.248,-145.929L364.248,-146.447L364.248,-146.965L364.248,-147.483L364.248,-148.001L364.248,-148.519L364.248,-149.038L364.278,-149.038L364.276,-148.519L364.272,-148.001L364.268,-147.483L364.268,-146.965L364.275,-146.447L364.289,-145.929L364.307,-145.41L364.329,-144.892L364.355,-144.374L364.391,-143.856L364.44,-143.338L364.501,-142.819L364.567,-142.301L364.627,-141.783L364.674,-141.265L364.714,-140.747L364.763,-140.229L364.845,-139.71L364.977,-139.192L365.168,-138.674L365.421,-138.156L365.733,-137.638L366.094,-137.12L366.484,-136.601L366.878,-136.083L367.257,-135.565L367.628,-135.047L368.021,-134.529L368.476,-134.011L369.026,-133.492L369.686,-132.974L370.462,-132.456L371.357,-131.938L372.371,-131.42L373.5,-130.902L374.721,-130.383L375.982,-129.865L377.212,-129.347L378.357,-128.829L379.415,-128.311L380.431,-127.793L381.45,-127.274L382.468,-126.756L383.437,-126.238L384.319,-125.72L385.124,-125.202L385.901,-124.683L386.708,-124.165L387.569,-123.647L388.465,-123.129L389.342,-122.611L390.143,-122.093L390.836,-121.574L391.413,-121.056L391.861,-120.538L392.13,-120.02L392.147,-119.502L391.877,-118.984L391.374,-118.465L390.771,-117.947L390.187,-117.429L389.639,-116.911L389.032,-116.393L388.242,-115.875L387.206,-115.356L385.958,-114.838L384.594,-114.32L383.211,-113.802L381.859,-113.284L380.542,-112.766L379.242,-112.247L377.95,-111.729L376.682,-111.211L375.459,-110.693L374.289,-110.175L373.172,-109.657L372.111,-109.138L371.126,-108.62L370.246,-108.102L369.487,-107.584L368.839,-107.066L368.277,-106.548L367.772,-106.029L367.311,-105.511L366.891,-104.993L366.514,-104.475L366.177,-103.957L365.879,-103.438L365.619,-102.92L365.395,-102.402L365.202,-101.884L365.033,-101.366L364.88,-100.848L364.744,-100.329L364.628,-99.811L364.534,-99.293L364.461,-98.775L364.404,-98.257L364.358,-97.739Z" style="fill:rgb(85,168,104);fill-opacity:0.8;fill-rule:nonzero;"/>
                    </g>
                    <g id="md9d6306b40" transform="matrix(1,0,0,1,0,543.224)">
                        <path d="M475.879,-154.099L475.848,-154.099L475.848,-154.684L475.848,-155.269L475.848,-155.854L475.848,-156.438L475.848,-157.023L475.848,-157.608L475.848,-158.193L475.848,-158.778L475.848,-159.363L475.848,-159.948L475.848,-160.532L475.848,-161.117L475.848,-161.702L475.848,-162.287L475.848,-162.872L475.848,-163.457L475.848,-164.042L475.848,-164.627L475.848,-165.211L475.848,-165.796L475.848,-166.381L475.848,-166.966L475.848,-167.551L475.848,-168.136L475.848,-168.721L475.848,-169.305L475.848,-169.89L475.848,-170.475L475.848,-171.06L475.848,-171.645L475.848,-172.23L475.848,-172.815L475.848,-173.4L475.848,-173.984L475.848,-174.569L475.848,-175.154L475.848,-175.739L475.848,-176.324L475.848,-176.909L475.848,-177.494L475.848,-178.078L475.848,-178.663L475.848,-179.248L475.848,-179.833L475.848,-180.418L475.848,-181.003L475.848,-181.588L475.848,-182.173L475.848,-182.757L475.848,-183.342L475.848,-183.927L475.848,-184.512L475.848,-185.097L475.848,-185.682L475.848,-186.267L475.848,-186.851L475.848,-187.436L475.848,-188.021L475.848,-188.606L475.848,-189.191L475.848,-189.776L475.848,-190.361L475.848,-190.946L475.848,-191.53L475.848,-192.115L475.848,-192.7L475.848,-193.285L475.848,-193.87L475.848,-194.455L475.848,-195.04L475.848,-195.624L475.848,-196.209L475.848,-196.794L475.848,-197.379L475.848,-197.964L475.848,-198.549L475.848,-199.134L475.848,-199.719L475.848,-200.303L475.848,-200.888L475.848,-201.473L475.848,-202.058L475.848,-202.643L475.848,-203.228L475.848,-203.813L475.848,-204.397L475.848,-204.982L475.848,-205.567L475.848,-206.152L475.848,-206.737L475.848,-207.322L475.848,-207.907L475.848,-208.491L475.848,-209.076L475.848,-209.661L475.848,-210.246L475.848,-210.831L475.848,-211.416L475.848,-212.001L475.946,-212.001L475.976,-211.416L476.001,-210.831L476.029,-210.246L476.071,-209.661L476.137,-209.076L476.234,-208.491L476.365,-207.907L476.53,-207.322L476.728,-206.737L476.957,-206.152L477.218,-205.567L477.514,-204.982L477.854,-204.397L478.254,-203.813L478.743,-203.228L479.35,-202.643L480.082,-202.058L480.924,-201.473L481.848,-200.888L482.833,-200.303L483.856,-199.719L484.892,-199.134L485.907,-198.549L486.889,-197.964L487.869,-197.379L488.92,-196.794L490.12,-196.209L491.494,-195.624L492.986,-195.04L494.505,-194.455L495.982,-193.87L497.405,-193.285L498.799,-192.7L500.159,-192.115L501.416,-191.53L502.443,-190.946L503.131,-190.361L503.478,-189.776L503.61,-189.191L503.684,-188.606L503.747,-188.021L503.691,-187.436L503.355,-186.851L502.68,-186.267L501.754,-185.682L500.737,-185.097L499.782,-184.512L498.986,-183.927L498.356,-183.342L497.788,-182.757L497.096,-182.173L496.122,-181.588L494.823,-181.003L493.273,-180.418L491.607,-179.833L489.954,-179.248L488.407,-178.663L487.006,-178.078L485.736,-177.494L484.558,-176.909L483.448,-176.324L482.418,-175.739L481.504,-175.154L480.735,-174.569L480.106,-173.984L479.584,-173.4L479.126,-172.815L478.698,-172.23L478.281,-171.645L477.872,-171.06L477.482,-170.475L477.137,-169.89L476.862,-169.305L476.67,-168.721L476.551,-168.136L476.475,-167.551L476.409,-166.966L476.332,-166.381L476.243,-165.796L476.153,-165.211L476.073,-164.627L476.015,-164.042L475.979,-163.457L475.963,-162.872L475.957,-162.287L475.952,-161.702L475.945,-161.117L475.936,-160.532L475.929,-159.948L475.923,-159.363L475.914,-158.778L475.901,-158.193L475.884,-157.608L475.871,-157.023L475.864,-156.438L475.864,-155.854L475.87,-155.269L475.876,-154.684L475.879,-154.099Z" style="fill:rgb(196,78,82);fill-opacity:0.8;fill-rule:nonzero;"/>
                    </g>
                    <g id="m49b4c3a8c9" transform="matrix(1,0,0,1,0,543.224)">
                        <path d="M587.485,-196.97L587.448,-196.97L587.448,-197.704L587.448,-198.438L587.448,-199.172L587.448,-199.906L587.448,-200.64L587.448,-201.374L587.448,-202.108L587.448,-202.842L587.448,-203.576L587.448,-204.31L587.448,-205.044L587.448,-205.777L587.448,-206.511L587.448,-207.245L587.448,-207.979L587.448,-208.713L587.448,-209.447L587.448,-210.181L587.448,-210.915L587.448,-211.649L587.448,-212.383L587.448,-213.117L587.448,-213.851L587.448,-214.584L587.448,-215.318L587.448,-216.052L587.448,-216.786L587.448,-217.52L587.448,-218.254L587.448,-218.988L587.448,-219.722L587.448,-220.456L587.448,-221.19L587.448,-221.924L587.448,-222.657L587.448,-223.391L587.448,-224.125L587.448,-224.859L587.448,-225.593L587.448,-226.327L587.448,-227.061L587.448,-227.795L587.448,-228.529L587.448,-229.263L587.448,-229.997L587.448,-230.731L587.448,-231.464L587.448,-232.198L587.448,-232.932L587.448,-233.666L587.448,-234.4L587.448,-235.134L587.448,-235.868L587.448,-236.602L587.448,-237.336L587.448,-238.07L587.448,-238.804L587.448,-239.537L587.448,-240.271L587.448,-241.005L587.448,-241.739L587.448,-242.473L587.448,-243.207L587.448,-243.941L587.448,-244.675L587.448,-245.409L587.448,-246.143L587.448,-246.877L587.448,-247.611L587.448,-248.344L587.448,-249.078L587.448,-249.812L587.448,-250.546L587.448,-251.28L587.448,-252.014L587.448,-252.748L587.448,-253.482L587.448,-254.216L587.448,-254.95L587.448,-255.684L587.448,-256.417L587.448,-257.151L587.448,-257.885L587.448,-258.619L587.448,-259.353L587.448,-260.087L587.448,-260.821L587.448,-261.555L587.448,-262.289L587.448,-263.023L587.448,-263.757L587.448,-264.491L587.448,-265.224L587.448,-265.958L587.448,-266.692L587.448,-267.426L587.448,-268.16L587.448,-268.894L587.448,-269.628L587.508,-269.628L587.511,-268.894L587.509,-268.16L587.508,-267.426L587.517,-266.692L587.542,-265.958L587.586,-265.224L587.645,-264.491L587.715,-263.757L587.791,-263.023L587.869,-262.289L587.949,-261.555L588.026,-260.821L588.101,-260.087L588.178,-259.353L588.27,-258.619L588.4,-257.885L588.586,-257.151L588.833,-256.417L589.132,-255.684L589.467,-254.95L589.829,-254.216L590.223,-253.482L590.67,-252.748L591.193,-252.014L591.807,-251.28L592.499,-250.546L593.233,-249.812L593.967,-249.078L594.686,-248.344L595.421,-247.611L596.231,-246.877L597.175,-246.143L598.268,-245.409L599.476,-244.675L600.738,-243.941L601.985,-243.207L603.167,-242.473L604.242,-241.739L605.185,-241.005L606.005,-240.271L606.754,-239.537L607.529,-238.804L608.425,-238.07L609.485,-237.336L610.666,-236.602L611.855,-235.868L612.933,-235.134L613.824,-234.4L614.505,-233.666L614.976,-232.932L615.247,-232.198L615.347,-231.464L615.344,-230.731L615.321,-229.997L615.322,-229.263L615.301,-228.529L615.142,-227.795L614.715,-227.061L613.935,-226.327L612.792,-225.593L611.356,-224.859L609.766,-224.125L608.187,-223.391L606.749,-222.657L605.49,-221.924L604.361,-221.19L603.272,-220.456L602.168,-219.722L601.045,-218.988L599.93,-218.254L598.833,-217.52L597.729,-216.786L596.583,-216.052L595.394,-215.318L594.214,-214.584L593.128,-213.851L592.213,-213.117L591.505,-212.383L590.987,-211.649L590.599,-210.915L590.272,-210.181L589.949,-209.447L589.611,-208.713L589.266,-207.979L588.936,-207.245L588.639,-206.511L588.383,-205.777L588.171,-205.044L588.004,-204.31L587.879,-203.576L587.786,-202.842L587.714,-202.108L587.654,-201.374L587.601,-200.64L587.556,-199.906L587.523,-199.172L587.502,-198.438L587.491,-197.704L587.485,-196.97Z" style="fill:rgb(129,114,179);fill-opacity:0.8;fill-rule:nonzero;"/>
                    </g>
                    <g id="mb489a83c82" transform="matrix(1,0,0,1,252.647,351.105)">
                        <path d="M0,4.5C1.193,4.5 2.338,4.026 3.182,3.182C4.026,2.338 4.5,1.193 4.5,0C4.5,-1.193 4.026,-2.338 3.182,-3.182C2.338,-4.026 1.193,-4.5 0,-4.5C-1.193,-4.5 -2.338,-4.026 -3.182,-3.182C-4.026,-2.338 -4.5,-1.193 -4.5,0C-4.5,1.193 -4.026,2.338 -3.182,3.182C-2.338,4.026 -1.193,4.5 0,4.5Z" style="fill:rgb(38,38,38);fill-rule:nonzero;stroke:rgb(38,38,38);stroke-width:1px;"/>
                    </g>
                    <path id="line2d_29" d="M252.647,360.528L252.647,340.088" style="fill:none;stroke:rgb(38,38,38);stroke-width:2px;stroke-linecap:round;"/>
                    <g id="mb489a83c821" serif:id="mb489a83c82" transform="matrix(1,0,0,1,364.247,422.974)">
                        <path d="M0,4.5C1.193,4.5 2.338,4.026 3.182,3.182C4.026,2.338 4.5,1.193 4.5,0C4.5,-1.193 4.026,-2.338 3.182,-3.182C2.338,-4.026 1.193,-4.5 0,-4.5C-1.193,-4.5 -2.338,-4.026 -3.182,-3.182C-4.026,-2.338 -4.5,-1.193 -4.5,0C-4.5,1.193 -4.026,2.338 -3.182,3.182C-2.338,4.026 -1.193,4.5 0,4.5Z" style="fill:rgb(38,38,38);fill-rule:nonzero;stroke:rgb(38,38,38);stroke-width:1px;"/>
                    </g>
                    <path id="line2d_31" d="M364.247,436.19L364.247,408.59" style="fill:none;stroke:rgb(38,38,38);stroke-width:2px;stroke-linecap:round;"/>
                    <g id="mb489a83c822" serif:id="mb489a83c82" transform="matrix(1,0,0,1,475.847,355.286)">
                        <path d="M0,4.5C1.193,4.5 2.338,4.026 3.182,3.182C4.026,2.338 4.5,1.193 4.5,0C4.5,-1.193 4.026,-2.338 3.182,-3.182C2.338,-4.026 1.193,-4.5 0,-4.5C-1.193,-4.5 -2.338,-4.026 -3.182,-3.182C-4.026,-2.338 -4.5,-1.193 -4.5,0C-4.5,1.193 -4.026,2.338 -3.182,3.182C-2.338,4.026 -1.193,4.5 0,4.5Z" style="fill:rgb(38,38,38);fill-rule:nonzero;stroke:rgb(38,38,38);stroke-width:1px;"/>
                    </g>
                    <path id="line2d_33" d="M475.847,369.544L475.847,341.558" style="fill:none;stroke:rgb(38,38,38);stroke-width:2px;stroke-linecap:round;"/>
                    <g id="mb489a83c823" serif:id="mb489a83c82" transform="matrix(1,0,0,1,587.447,311.534)">
                        <path d="M0,4.5C1.193,4.5 2.338,4.026 3.182,3.182C4.026,2.338 4.5,1.193 4.5,0C4.5,-1.193 4.026,-2.338 3.182,-3.182C2.338,-4.026 1.193,-4.5 0,-4.5C-1.193,-4.5 -2.338,-4.026 -3.182,-3.182C-4.026,-2.338 -4.5,-1.193 -4.5,0C-4.5,1.193 -4.026,2.338 -3.182,3.182C-2.338,4.026 -1.193,4.5 0,4.5Z" style="fill:rgb(38,38,38);fill-rule:nonzero;stroke:rgb(38,38,38);stroke-width:1px;"/>
                    </g>
                    <path id="line2d_35" d="M587.447,329.192L587.447,290.346" style="fill:none;stroke:rgb(38,38,38);stroke-width:2px;stroke-linecap:round;"/>
                    <path id="line2d_36" d="M85.247,366.709L643.247,366.709" style="fill:none;stroke:rgb(38,38,38);stroke-width:0.75px;stroke-linecap:round;"/>
                    <g id="m39ebfa1887" transform="matrix(1,0,0,1,0,543.224)">
                        <path d="M141.047,-89.144L587.447,-89.144" style="fill:rgb(38,38,38);fill-rule:nonzero;stroke:rgb(38,38,38);stroke-width:1px;"/>
                    </g>
                    <g id="mccc6bc87a4" transform="matrix(1,0,0,1,0,543.224)">
                        <path d="M85.247,-89.144L85.247,-278.222" style="fill:rgb(38,38,38);fill-rule:nonzero;stroke:rgb(38,38,38);stroke-width:1px;"/>
                    </g>
                </g>
            </g>
        </g>
    </g>
</svg>
