<?xml version="1.0" encoding="UTF-8" standalone="no"?>
<!DOCTYPE svg PUBLIC "-//W3C//DTD SVG 1.1//EN" "http://www.w3.org/Graphics/SVG/1.1/DTD/svg11.dtd">
<svg width="100%" height="100%" viewBox="0 0 2103 1798" version="1.1" xmlns="http://www.w3.org/2000/svg" xmlns:xlink="http://www.w3.org/1999/xlink" xml:space="preserve" xmlns:serif="http://www.serif.com/" style="fill-rule:evenodd;clip-rule:evenodd;">
    <g id="Artboard2" transform="matrix(2.5,0,0,2.5,4.79616e-13,-135.951)">
        <rect x="0" y="54.381" width="840.852" height="719.145" style="fill:none;"/>
        <clipPath id="_clip1">
            <rect x="0" y="54.381" width="840.852" height="719.145"/>
        </clipPath>
        <g clip-path="url(#_clip1)">
            <g id="figure_1" transform="matrix(0.588421,0,0,0.588421,0.4,54.5328)">
                <g id="patch_1" transform="matrix(2.5,0,0,2.5,0,0)">
                    <rect x="0" y="0" width="571.598" height="488.864" style="fill:none;"/>
                </g>
                <g id="axes_1" transform="matrix(2.5,0,0,2.5,0,0)">
                    <g id="matplotlib.axis_1">
                        <g id="xtick_1">
                            <g id="md2f2907aa1" transform="matrix(1,0,0,1,131.923,399.72)">
                                <path d="M0,0L0,12" style="fill:rgb(38,38,38);fill-rule:nonzero;stroke:rgb(38,38,38);stroke-width:1.25px;"/>
                            </g>
                            <g id="text_1">
                                <g transform="matrix(1,0,0,1,95.1317,430.201)">
                                    <text x="0px" y="0px" style="font-family:'Karla-Regular', 'Karla';font-size:22px;fill:rgb(38,38,38);">Control</text>
                                </g>
                                <g transform="matrix(1,0,0,1,100.871,453.347)">
                                    <text x="0px" y="0px" style="font-family:'Karla-Regular', 'Karla';font-size:22px;fill:rgb(38,38,38);">N = 20</text>
                                </g>
                            </g>
                        </g>
                        <g id="xtick_2">
                            <g id="md2f2907aa11" serif:id="md2f2907aa1" transform="matrix(1,0,0,1,231.566,399.72)">
                                <path d="M0,0L0,12" style="fill:rgb(38,38,38);fill-rule:nonzero;stroke:rgb(38,38,38);stroke-width:1.25px;"/>
                            </g>
                            <g id="text_2">
                                <g transform="matrix(1,0,0,1,204.212,430.201)">
                                    <text x="0px" y="0px" style="font-family:'Karla-Regular', 'Karla';font-size:22px;fill:rgb(38,38,38);">T<tspan x="9.372px " y="0px ">e</tspan>st 1</text>
                                </g>
                                <g transform="matrix(1,0,0,1,200.514,453.347)">
                                    <text x="0px" y="0px" style="font-family:'Karla-Regular', 'Karla';font-size:22px;fill:rgb(38,38,38);">N = 20</text>
                                </g>
                            </g>
                        </g>
                    </g>
                    <g id="matplotlib.axis_2">
                        <g id="ytick_1">
                            <g id="madae3be724" transform="matrix(1,0,0,1,82.1019,366.041)">
                                <path d="M0,0L-12,0" style="fill:rgb(38,38,38);fill-rule:nonzero;stroke:rgb(38,38,38);stroke-width:1.25px;"/>
                            </g>
                            <g id="text_3" transform="matrix(1,0,0,1,66.6019,373.531)">
                                <text x="-25.96px" y="0px" style="font-family:'Karla-Regular', 'Karla';font-size:22px;fill:rgb(38,38,38);">85</text>
                            </g>
                        </g>
                        <g id="ytick_2">
                            <g id="madae3be7241" serif:id="madae3be724" transform="matrix(1,0,0,1,82.1019,313.562)">
                                <path d="M0,0L-12,0" style="fill:rgb(38,38,38);fill-rule:nonzero;stroke:rgb(38,38,38);stroke-width:1.25px;"/>
                            </g>
                            <g id="text_4" transform="matrix(1,0,0,1,66.6019,321.052)">
                                <text x="-25.85px" y="0px" style="font-family:'Karla-Regular', 'Karla';font-size:22px;fill:rgb(38,38,38);">90</text>
                            </g>
                        </g>
                        <g id="ytick_3">
                            <g id="madae3be7242" serif:id="madae3be724" transform="matrix(1,0,0,1,82.1019,261.082)">
                                <path d="M0,0L-12,0" style="fill:rgb(38,38,38);fill-rule:nonzero;stroke:rgb(38,38,38);stroke-width:1.25px;"/>
                            </g>
                            <g id="text_5" transform="matrix(1,0,0,1,66.6019,268.573)">
                                <text x="-25.212px" y="0px" style="font-family:'Karla-Regular', 'Karla';font-size:22px;fill:rgb(38,38,38);">95</text>
                            </g>
                        </g>
                        <g id="ytick_4">
                            <g id="madae3be7243" serif:id="madae3be724" transform="matrix(1,0,0,1,82.1019,208.603)">
                                <path d="M0,0L-12,0" style="fill:rgb(38,38,38);fill-rule:nonzero;stroke:rgb(38,38,38);stroke-width:1.25px;"/>
                            </g>
                            <g id="text_6" transform="matrix(1,0,0,1,66.6019,216.093)">
                                <text x="-33.418px" y="0px" style="font-family:'Karla-Regular', 'Karla';font-size:22px;fill:rgb(38,38,38);">100</text>
                            </g>
                        </g>
                        <g id="ytick_5">
                            <g id="madae3be7244" serif:id="madae3be724" transform="matrix(1,0,0,1,82.1019,156.124)">
                                <path d="M0,0L-12,0" style="fill:rgb(38,38,38);fill-rule:nonzero;stroke:rgb(38,38,38);stroke-width:1.25px;"/>
                            </g>
                            <g id="text_7" transform="matrix(1,0,0,1,66.6019,163.614)">
                                <text x="-32.78px" y="0px" style="font-family:'Karla-Regular', 'Karla';font-size:22px;fill:rgb(38,38,38);">105</text>
                            </g>
                        </g>
                        <g id="ytick_6">
                            <g id="madae3be7245" serif:id="madae3be724" transform="matrix(1,0,0,1,82.1019,103.644)">
                                <path d="M0,0L-12,0" style="fill:rgb(38,38,38);fill-rule:nonzero;stroke:rgb(38,38,38);stroke-width:1.25px;"/>
                            </g>
                            <g id="text_8" transform="matrix(1,0,0,1,66.6019,111.135)">
                                <text x="-27.632px" y="0px" style="font-family:'Karla-Regular', 'Karla';font-size:22px;fill:rgb(38,38,38);">110</text>
                            </g>
                        </g>
                        <g id="ytick_7">
                            <g id="madae3be7246" serif:id="madae3be724" transform="matrix(1,0,0,1,82.1019,51.165)">
                                <path d="M0,0L-12,0" style="fill:rgb(38,38,38);fill-rule:nonzero;stroke:rgb(38,38,38);stroke-width:1.25px;"/>
                            </g>
                            <g id="text_9" transform="matrix(1,0,0,1,66.6019,58.6554)">
                                <text x="-26.994px" y="0px" style="font-family:'Karla-Regular', 'Karla';font-size:22px;fill:rgb(38,38,38);">115</text>
                            </g>
                        </g>
                        <g id="text_10" transform="matrix(-3.82857e-16,-1,1,-3.82857e-16,23.5425,209.46)">
                            <text x="-29.568px" y="0px" style="font-family:'Karla-Regular', 'Karla';font-size:24px;fill:rgb(38,38,38);">value</text>
                        </g>
                    </g>
                    <g id="PathCollection_1">
                        <g id="C0_0_4a4ffcf1a7" transform="matrix(1,0,0,1,131.923,382.364)">
                            <path d="M0,3C0.796,3 1.559,2.684 2.121,2.121C2.684,1.559 3,0.796 3,0C3,-0.796 2.684,-1.559 2.121,-2.121C1.559,-2.684 0.796,-3 0,-3C-0.796,-3 -1.559,-2.684 -2.121,-2.121C-2.684,-1.559 -3,-0.796 -3,0C-3,0.796 -2.684,1.559 -2.121,2.121C-1.559,2.684 -0.796,3 0,3Z" style="fill:rgb(76,114,176);fill-rule:nonzero;"/>
                        </g>
                        <g id="C0_0_4a4ffcf1a71" serif:id="C0_0_4a4ffcf1a7" transform="matrix(1,0,0,1,131.923,327.275)">
                            <path d="M0,3C0.796,3 1.559,2.684 2.121,2.121C2.684,1.559 3,0.796 3,0C3,-0.796 2.684,-1.559 2.121,-2.121C1.559,-2.684 0.796,-3 0,-3C-0.796,-3 -1.559,-2.684 -2.121,-2.121C-2.684,-1.559 -3,-0.796 -3,0C-3,0.796 -2.684,1.559 -2.121,2.121C-1.559,2.684 -0.796,3 0,3Z" style="fill:rgb(76,114,176);fill-rule:nonzero;"/>
                        </g>
                        <g id="C0_0_4a4ffcf1a72" serif:id="C0_0_4a4ffcf1a7" transform="matrix(1,0,0,1,131.923,294.193)">
                            <path d="M0,3C0.796,3 1.559,2.684 2.121,2.121C2.684,1.559 3,0.796 3,0C3,-0.796 2.684,-1.559 2.121,-2.121C1.559,-2.684 0.796,-3 0,-3C-0.796,-3 -1.559,-2.684 -2.121,-2.121C-2.684,-1.559 -3,-0.796 -3,0C-3,0.796 -2.684,1.559 -2.121,2.121C-1.559,2.684 -0.796,3 0,3Z" style="fill:rgb(221,132,82);fill-rule:nonzero;"/>
                        </g>
                        <g id="C0_0_4a4ffcf1a73" serif:id="C0_0_4a4ffcf1a7" transform="matrix(1,0,0,1,131.923,254.042)">
                            <path d="M0,3C0.796,3 1.559,2.684 2.121,2.121C2.684,1.559 3,0.796 3,0C3,-0.796 2.684,-1.559 2.121,-2.121C1.559,-2.684 0.796,-3 0,-3C-0.796,-3 -1.559,-2.684 -2.121,-2.121C-2.684,-1.559 -3,-0.796 -3,0C-3,0.796 -2.684,1.559 -2.121,2.121C-1.559,2.684 -0.796,3 0,3Z" style="fill:rgb(76,114,176);fill-rule:nonzero;"/>
                        </g>
                        <g id="C0_0_4a4ffcf1a74" serif:id="C0_0_4a4ffcf1a7" transform="matrix(1,0,0,1,131.923,246.762)">
                            <path d="M0,3C0.796,3 1.559,2.684 2.121,2.121C2.684,1.559 3,0.796 3,0C3,-0.796 2.684,-1.559 2.121,-2.121C1.559,-2.684 0.796,-3 0,-3C-0.796,-3 -1.559,-2.684 -2.121,-2.121C-2.684,-1.559 -3,-0.796 -3,0C-3,0.796 -2.684,1.559 -2.121,2.121C-1.559,2.684 -0.796,3 0,3Z" style="fill:rgb(221,132,82);fill-rule:nonzero;"/>
                        </g>
                        <g id="C0_0_4a4ffcf1a75" serif:id="C0_0_4a4ffcf1a7" transform="matrix(1,0,0,1,138.163,245.934)">
                            <path d="M0,3C0.796,3 1.559,2.684 2.121,2.121C2.684,1.559 3,0.796 3,0C3,-0.796 2.684,-1.559 2.121,-2.121C1.559,-2.684 0.796,-3 0,-3C-0.796,-3 -1.559,-2.684 -2.121,-2.121C-2.684,-1.559 -3,-0.796 -3,0C-3,0.796 -2.684,1.559 -2.121,2.121C-1.559,2.684 -0.796,3 0,3Z" style="fill:rgb(221,132,82);fill-rule:nonzero;"/>
                        </g>
                        <g id="C0_0_4a4ffcf1a76" serif:id="C0_0_4a4ffcf1a7" transform="matrix(1,0,0,1,131.923,235.745)">
                            <path d="M0,3C0.796,3 1.559,2.684 2.121,2.121C2.684,1.559 3,0.796 3,0C3,-0.796 2.684,-1.559 2.121,-2.121C1.559,-2.684 0.796,-3 0,-3C-0.796,-3 -1.559,-2.684 -2.121,-2.121C-2.684,-1.559 -3,-0.796 -3,0C-3,0.796 -2.684,1.559 -2.121,2.121C-1.559,2.684 -0.796,3 0,3Z" style="fill:rgb(76,114,176);fill-rule:nonzero;"/>
                        </g>
                        <g id="C0_0_4a4ffcf1a77" serif:id="C0_0_4a4ffcf1a7" transform="matrix(1,0,0,1,137.598,233.139)">
                            <path d="M0,3C0.796,3 1.559,2.684 2.121,2.121C2.684,1.559 3,0.796 3,0C3,-0.796 2.684,-1.559 2.121,-2.121C1.559,-2.684 0.796,-3 0,-3C-0.796,-3 -1.559,-2.684 -2.121,-2.121C-2.684,-1.559 -3,-0.796 -3,0C-3,0.796 -2.684,1.559 -2.121,2.121C-1.559,2.684 -0.796,3 0,3Z" style="fill:rgb(76,114,176);fill-rule:nonzero;"/>
                        </g>
                        <g id="C0_0_4a4ffcf1a78" serif:id="C0_0_4a4ffcf1a7" transform="matrix(1,0,0,1,131.923,221.548)">
                            <path d="M0,3C0.796,3 1.559,2.684 2.121,2.121C2.684,1.559 3,0.796 3,0C3,-0.796 2.684,-1.559 2.121,-2.121C1.559,-2.684 0.796,-3 0,-3C-0.796,-3 -1.559,-2.684 -2.121,-2.121C-2.684,-1.559 -3,-0.796 -3,0C-3,0.796 -2.684,1.559 -2.121,2.121C-1.559,2.684 -0.796,3 0,3Z" style="fill:rgb(76,114,176);fill-rule:nonzero;"/>
                        </g>
                        <g id="C0_0_4a4ffcf1a79" serif:id="C0_0_4a4ffcf1a7" transform="matrix(1,0,0,1,131.923,199.248)">
                            <path d="M0,3C0.796,3 1.559,2.684 2.121,2.121C2.684,1.559 3,0.796 3,0C3,-0.796 2.684,-1.559 2.121,-2.121C1.559,-2.684 0.796,-3 0,-3C-0.796,-3 -1.559,-2.684 -2.121,-2.121C-2.684,-1.559 -3,-0.796 -3,0C-3,0.796 -2.684,1.559 -2.121,2.121C-1.559,2.684 -0.796,3 0,3Z" style="fill:rgb(76,114,176);fill-rule:nonzero;"/>
                        </g>
                        <g id="C0_0_4a4ffcf1a710" serif:id="C0_0_4a4ffcf1a7" transform="matrix(1,0,0,1,125.689,198.385)">
                            <path d="M0,3C0.796,3 1.559,2.684 2.121,2.121C2.684,1.559 3,0.796 3,0C3,-0.796 2.684,-1.559 2.121,-2.121C1.559,-2.684 0.796,-3 0,-3C-0.796,-3 -1.559,-2.684 -2.121,-2.121C-2.684,-1.559 -3,-0.796 -3,0C-3,0.796 -2.684,1.559 -2.121,2.121C-1.559,2.684 -0.796,3 0,3Z" style="fill:rgb(221,132,82);fill-rule:nonzero;"/>
                        </g>
                        <g id="C0_0_4a4ffcf1a711" serif:id="C0_0_4a4ffcf1a7" transform="matrix(1,0,0,1,134.963,193.993)">
                            <path d="M0,3C0.796,3 1.559,2.684 2.121,2.121C2.684,1.559 3,0.796 3,0C3,-0.796 2.684,-1.559 2.121,-2.121C1.559,-2.684 0.796,-3 0,-3C-0.796,-3 -1.559,-2.684 -2.121,-2.121C-2.684,-1.559 -3,-0.796 -3,0C-3,0.796 -2.684,1.559 -2.121,2.121C-1.559,2.684 -0.796,3 0,3Z" style="fill:rgb(221,132,82);fill-rule:nonzero;"/>
                        </g>
                        <g id="C0_0_4a4ffcf1a712" serif:id="C0_0_4a4ffcf1a7" transform="matrix(1,0,0,1,141.242,193.502)">
                            <path d="M0,3C0.796,3 1.559,2.684 2.121,2.121C2.684,1.559 3,0.796 3,0C3,-0.796 2.684,-1.559 2.121,-2.121C1.559,-2.684 0.796,-3 0,-3C-0.796,-3 -1.559,-2.684 -2.121,-2.121C-2.684,-1.559 -3,-0.796 -3,0C-3,0.796 -2.684,1.559 -2.121,2.121C-1.559,2.684 -0.796,3 0,3Z" style="fill:rgb(221,132,82);fill-rule:nonzero;"/>
                        </g>
                        <g id="C0_0_4a4ffcf1a713" serif:id="C0_0_4a4ffcf1a7" transform="matrix(1,0,0,1,131.923,184.562)">
                            <path d="M0,3C0.796,3 1.559,2.684 2.121,2.121C2.684,1.559 3,0.796 3,0C3,-0.796 2.684,-1.559 2.121,-2.121C1.559,-2.684 0.796,-3 0,-3C-0.796,-3 -1.559,-2.684 -2.121,-2.121C-2.684,-1.559 -3,-0.796 -3,0C-3,0.796 -2.684,1.559 -2.121,2.121C-1.559,2.684 -0.796,3 0,3Z" style="fill:rgb(221,132,82);fill-rule:nonzero;"/>
                        </g>
                        <g id="C0_0_4a4ffcf1a714" serif:id="C0_0_4a4ffcf1a7" transform="matrix(1,0,0,1,131.923,165.95)">
                            <path d="M0,3C0.796,3 1.559,2.684 2.121,2.121C2.684,1.559 3,0.796 3,0C3,-0.796 2.684,-1.559 2.121,-2.121C1.559,-2.684 0.796,-3 0,-3C-0.796,-3 -1.559,-2.684 -2.121,-2.121C-2.684,-1.559 -3,-0.796 -3,0C-3,0.796 -2.684,1.559 -2.121,2.121C-1.559,2.684 -0.796,3 0,3Z" style="fill:rgb(221,132,82);fill-rule:nonzero;"/>
                        </g>
                        <g id="C0_0_4a4ffcf1a715" serif:id="C0_0_4a4ffcf1a7" transform="matrix(1,0,0,1,131.923,154.044)">
                            <path d="M0,3C0.796,3 1.559,2.684 2.121,2.121C2.684,1.559 3,0.796 3,0C3,-0.796 2.684,-1.559 2.121,-2.121C1.559,-2.684 0.796,-3 0,-3C-0.796,-3 -1.559,-2.684 -2.121,-2.121C-2.684,-1.559 -3,-0.796 -3,0C-3,0.796 -2.684,1.559 -2.121,2.121C-1.559,2.684 -0.796,3 0,3Z" style="fill:rgb(76,114,176);fill-rule:nonzero;"/>
                        </g>
                        <g id="C0_0_4a4ffcf1a716" serif:id="C0_0_4a4ffcf1a7" transform="matrix(1,0,0,1,127.398,149.869)">
                            <path d="M0,3C0.796,3 1.559,2.684 2.121,2.121C2.684,1.559 3,0.796 3,0C3,-0.796 2.684,-1.559 2.121,-2.121C1.559,-2.684 0.796,-3 0,-3C-0.796,-3 -1.559,-2.684 -2.121,-2.121C-2.684,-1.559 -3,-0.796 -3,0C-3,0.796 -2.684,1.559 -2.121,2.121C-1.559,2.684 -0.796,3 0,3Z" style="fill:rgb(76,114,176);fill-rule:nonzero;"/>
                        </g>
                        <g id="C0_0_4a4ffcf1a717" serif:id="C0_0_4a4ffcf1a7" transform="matrix(1,0,0,1,131.923,136.564)">
                            <path d="M0,3C0.796,3 1.559,2.684 2.121,2.121C2.684,1.559 3,0.796 3,0C3,-0.796 2.684,-1.559 2.121,-2.121C1.559,-2.684 0.796,-3 0,-3C-0.796,-3 -1.559,-2.684 -2.121,-2.121C-2.684,-1.559 -3,-0.796 -3,0C-3,0.796 -2.684,1.559 -2.121,2.121C-1.559,2.684 -0.796,3 0,3Z" style="fill:rgb(76,114,176);fill-rule:nonzero;"/>
                        </g>
                        <g id="C0_0_4a4ffcf1a718" serif:id="C0_0_4a4ffcf1a7" transform="matrix(1,0,0,1,128.193,131.729)">
                            <path d="M0,3C0.796,3 1.559,2.684 2.121,2.121C2.684,1.559 3,0.796 3,0C3,-0.796 2.684,-1.559 2.121,-2.121C1.559,-2.684 0.796,-3 0,-3C-0.796,-3 -1.559,-2.684 -2.121,-2.121C-2.684,-1.559 -3,-0.796 -3,0C-3,0.796 -2.684,1.559 -2.121,2.121C-1.559,2.684 -0.796,3 0,3Z" style="fill:rgb(221,132,82);fill-rule:nonzero;"/>
                        </g>
                        <g id="C0_0_4a4ffcf1a719" serif:id="C0_0_4a4ffcf1a7" transform="matrix(1,0,0,1,131.923,70.1979)">
                            <path d="M0,3C0.796,3 1.559,2.684 2.121,2.121C2.684,1.559 3,0.796 3,0C3,-0.796 2.684,-1.559 2.121,-2.121C1.559,-2.684 0.796,-3 0,-3C-0.796,-3 -1.559,-2.684 -2.121,-2.121C-2.684,-1.559 -3,-0.796 -3,0C-3,0.796 -2.684,1.559 -2.121,2.121C-1.559,2.684 -0.796,3 0,3Z" style="fill:rgb(221,132,82);fill-rule:nonzero;"/>
                        </g>
                    </g>
                    <g id="PathCollection_2">
                        <g id="C1_0_d8144e5876" transform="matrix(1,0,0,1,231.566,230.883)">
                            <path d="M0,3C0.796,3 1.559,2.684 2.121,2.121C2.684,1.559 3,0.796 3,0C3,-0.796 2.684,-1.559 2.121,-2.121C1.559,-2.684 0.796,-3 0,-3C-0.796,-3 -1.559,-2.684 -2.121,-2.121C-2.684,-1.559 -3,-0.796 -3,0C-3,0.796 -2.684,1.559 -2.121,2.121C-1.559,2.684 -0.796,3 0,3Z" style="fill:rgb(76,114,176);fill-rule:nonzero;"/>
                        </g>
                        <g id="C1_0_d8144e58761" serif:id="C1_0_d8144e5876" transform="matrix(1,0,0,1,231.566,215.319)">
                            <path d="M0,3C0.796,3 1.559,2.684 2.121,2.121C2.684,1.559 3,0.796 3,0C3,-0.796 2.684,-1.559 2.121,-2.121C1.559,-2.684 0.796,-3 0,-3C-0.796,-3 -1.559,-2.684 -2.121,-2.121C-2.684,-1.559 -3,-0.796 -3,0C-3,0.796 -2.684,1.559 -2.121,2.121C-1.559,2.684 -0.796,3 0,3Z" style="fill:rgb(221,132,82);fill-rule:nonzero;"/>
                        </g>
                        <g id="C1_0_d8144e58762" serif:id="C1_0_d8144e5876" transform="matrix(1,0,0,1,231.566,208.892)">
                            <path d="M0,3C0.796,3 1.559,2.684 2.121,2.121C2.684,1.559 3,0.796 3,0C3,-0.796 2.684,-1.559 2.121,-2.121C1.559,-2.684 0.796,-3 0,-3C-0.796,-3 -1.559,-2.684 -2.121,-2.121C-2.684,-1.559 -3,-0.796 -3,0C-3,0.796 -2.684,1.559 -2.121,2.121C-1.559,2.684 -0.796,3 0,3Z" style="fill:rgb(76,114,176);fill-rule:nonzero;"/>
                        </g>
                        <g id="C1_0_d8144e58763" serif:id="C1_0_d8144e5876" transform="matrix(1,0,0,1,231.566,190.468)">
                            <path d="M0,3C0.796,3 1.559,2.684 2.121,2.121C2.684,1.559 3,0.796 3,0C3,-0.796 2.684,-1.559 2.121,-2.121C1.559,-2.684 0.796,-3 0,-3C-0.796,-3 -1.559,-2.684 -2.121,-2.121C-2.684,-1.559 -3,-0.796 -3,0C-3,0.796 -2.684,1.559 -2.121,2.121C-1.559,2.684 -0.796,3 0,3Z" style="fill:rgb(221,132,82);fill-rule:nonzero;"/>
                        </g>
                        <g id="C1_0_d8144e58764" serif:id="C1_0_d8144e5876" transform="matrix(1,0,0,1,231.566,184.33)">
                            <path d="M0,3C0.796,3 1.559,2.684 2.121,2.121C2.684,1.559 3,0.796 3,0C3,-0.796 2.684,-1.559 2.121,-2.121C1.559,-2.684 0.796,-3 0,-3C-0.796,-3 -1.559,-2.684 -2.121,-2.121C-2.684,-1.559 -3,-0.796 -3,0C-3,0.796 -2.684,1.559 -2.121,2.121C-1.559,2.684 -0.796,3 0,3Z" style="fill:rgb(76,114,176);fill-rule:nonzero;"/>
                        </g>
                        <g id="C1_0_d8144e58765" serif:id="C1_0_d8144e5876" transform="matrix(1,0,0,1,228.574,179.05)">
                            <path d="M0,3C0.796,3 1.559,2.684 2.121,2.121C2.684,1.559 3,0.796 3,0C3,-0.796 2.684,-1.559 2.121,-2.121C1.559,-2.684 0.796,-3 0,-3C-0.796,-3 -1.559,-2.684 -2.121,-2.121C-2.684,-1.559 -3,-0.796 -3,0C-3,0.796 -2.684,1.559 -2.121,2.121C-1.559,2.684 -0.796,3 0,3Z" style="fill:rgb(221,132,82);fill-rule:nonzero;"/>
                        </g>
                        <g id="C1_0_d8144e58766" serif:id="C1_0_d8144e5876" transform="matrix(1,0,0,1,234.775,177.99)">
                            <path d="M0,3C0.796,3 1.559,2.684 2.121,2.121C2.684,1.559 3,0.796 3,0C3,-0.796 2.684,-1.559 2.121,-2.121C1.559,-2.684 0.796,-3 0,-3C-0.796,-3 -1.559,-2.684 -2.121,-2.121C-2.684,-1.559 -3,-0.796 -3,0C-3,0.796 -2.684,1.559 -2.121,2.121C-1.559,2.684 -0.796,3 0,3Z" style="fill:rgb(221,132,82);fill-rule:nonzero;"/>
                        </g>
                        <g id="C1_0_d8144e58767" serif:id="C1_0_d8144e5876" transform="matrix(1,0,0,1,231.566,164.906)">
                            <path d="M0,3C0.796,3 1.559,2.684 2.121,2.121C2.684,1.559 3,0.796 3,0C3,-0.796 2.684,-1.559 2.121,-2.121C1.559,-2.684 0.796,-3 0,-3C-0.796,-3 -1.559,-2.684 -2.121,-2.121C-2.684,-1.559 -3,-0.796 -3,0C-3,0.796 -2.684,1.559 -2.121,2.121C-1.559,2.684 -0.796,3 0,3Z" style="fill:rgb(76,114,176);fill-rule:nonzero;"/>
                        </g>
                        <g id="C1_0_d8144e58768" serif:id="C1_0_d8144e5876" transform="matrix(1,0,0,1,229.919,159.115)">
                            <path d="M0,3C0.796,3 1.559,2.684 2.121,2.121C2.684,1.559 3,0.796 3,0C3,-0.796 2.684,-1.559 2.121,-2.121C1.559,-2.684 0.796,-3 0,-3C-0.796,-3 -1.559,-2.684 -2.121,-2.121C-2.684,-1.559 -3,-0.796 -3,0C-3,0.796 -2.684,1.559 -2.121,2.121C-1.559,2.684 -0.796,3 0,3Z" style="fill:rgb(76,114,176);fill-rule:nonzero;"/>
                        </g>
                        <g id="C1_0_d8144e58769" serif:id="C1_0_d8144e5876" transform="matrix(1,0,0,1,231.566,153.097)">
                            <path d="M0,3C0.796,3 1.559,2.684 2.121,2.121C2.684,1.559 3,0.796 3,0C3,-0.796 2.684,-1.559 2.121,-2.121C1.559,-2.684 0.796,-3 0,-3C-0.796,-3 -1.559,-2.684 -2.121,-2.121C-2.684,-1.559 -3,-0.796 -3,0C-3,0.796 -2.684,1.559 -2.121,2.121C-1.559,2.684 -0.796,3 0,3Z" style="fill:rgb(221,132,82);fill-rule:nonzero;"/>
                        </g>
                        <g id="C1_0_d8144e587610" serif:id="C1_0_d8144e5876" transform="matrix(1,0,0,1,229.19,147.54)">
                            <path d="M0,3C0.796,3 1.559,2.684 2.121,2.121C2.684,1.559 3,0.796 3,0C3,-0.796 2.684,-1.559 2.121,-2.121C1.559,-2.684 0.796,-3 0,-3C-0.796,-3 -1.559,-2.684 -2.121,-2.121C-2.684,-1.559 -3,-0.796 -3,0C-3,0.796 -2.684,1.559 -2.121,2.121C-1.559,2.684 -0.796,3 0,3Z" style="fill:rgb(221,132,82);fill-rule:nonzero;"/>
                        </g>
                        <g id="C1_0_d8144e587611" serif:id="C1_0_d8144e5876" transform="matrix(1,0,0,1,234.69,144.614)">
                            <path d="M0,3C0.796,3 1.559,2.684 2.121,2.121C2.684,1.559 3,0.796 3,0C3,-0.796 2.684,-1.559 2.121,-2.121C1.559,-2.684 0.796,-3 0,-3C-0.796,-3 -1.559,-2.684 -2.121,-2.121C-2.684,-1.559 -3,-0.796 -3,0C-3,0.796 -2.684,1.559 -2.121,2.121C-1.559,2.684 -0.796,3 0,3Z" style="fill:rgb(76,114,176);fill-rule:nonzero;"/>
                        </g>
                        <g id="C1_0_d8144e587612" serif:id="C1_0_d8144e5876" transform="matrix(1,0,0,1,230.242,140.365)">
                            <path d="M0,3C0.796,3 1.559,2.684 2.121,2.121C2.684,1.559 3,0.796 3,0C3,-0.796 2.684,-1.559 2.121,-2.121C1.559,-2.684 0.796,-3 0,-3C-0.796,-3 -1.559,-2.684 -2.121,-2.121C-2.684,-1.559 -3,-0.796 -3,0C-3,0.796 -2.684,1.559 -2.121,2.121C-1.559,2.684 -0.796,3 0,3Z" style="fill:rgb(221,132,82);fill-rule:nonzero;"/>
                        </g>
                        <g id="C1_0_d8144e587613" serif:id="C1_0_d8144e5876" transform="matrix(1,0,0,1,238.074,139.553)">
                            <path d="M0,3C0.796,3 1.559,2.684 2.121,2.121C2.684,1.559 3,0.796 3,0C3,-0.796 2.684,-1.559 2.121,-2.121C1.559,-2.684 0.796,-3 0,-3C-0.796,-3 -1.559,-2.684 -2.121,-2.121C-2.684,-1.559 -3,-0.796 -3,0C-3,0.796 -2.684,1.559 -2.121,2.121C-1.559,2.684 -0.796,3 0,3Z" style="fill:rgb(221,132,82);fill-rule:nonzero;"/>
                        </g>
                        <g id="C1_0_d8144e587614" serif:id="C1_0_d8144e5876" transform="matrix(1,0,0,1,224.311,138.34)">
                            <path d="M0,3C0.796,3 1.559,2.684 2.121,2.121C2.684,1.559 3,0.796 3,0C3,-0.796 2.684,-1.559 2.121,-2.121C1.559,-2.684 0.796,-3 0,-3C-0.796,-3 -1.559,-2.684 -2.121,-2.121C-2.684,-1.559 -3,-0.796 -3,0C-3,0.796 -2.684,1.559 -2.121,2.121C-1.559,2.684 -0.796,3 0,3Z" style="fill:rgb(221,132,82);fill-rule:nonzero;"/>
                        </g>
                        <g id="C1_0_d8144e587615" serif:id="C1_0_d8144e5876" transform="matrix(1,0,0,1,244.009,137.54)">
                            <path d="M0,3C0.796,3 1.559,2.684 2.121,2.121C2.684,1.559 3,0.796 3,0C3,-0.796 2.684,-1.559 2.121,-2.121C1.559,-2.684 0.796,-3 0,-3C-0.796,-3 -1.559,-2.684 -2.121,-2.121C-2.684,-1.559 -3,-0.796 -3,0C-3,0.796 -2.684,1.559 -2.121,2.121C-1.559,2.684 -0.796,3 0,3Z" style="fill:rgb(76,114,176);fill-rule:nonzero;"/>
                        </g>
                        <g id="C1_0_d8144e587616" serif:id="C1_0_d8144e5876" transform="matrix(1,0,0,1,231.566,130.312)">
                            <path d="M0,3C0.796,3 1.559,2.684 2.121,2.121C2.684,1.559 3,0.796 3,0C3,-0.796 2.684,-1.559 2.121,-2.121C1.559,-2.684 0.796,-3 0,-3C-0.796,-3 -1.559,-2.684 -2.121,-2.121C-2.684,-1.559 -3,-0.796 -3,0C-3,0.796 -2.684,1.559 -2.121,2.121C-1.559,2.684 -0.796,3 0,3Z" style="fill:rgb(76,114,176);fill-rule:nonzero;"/>
                        </g>
                        <g id="C1_0_d8144e587617" serif:id="C1_0_d8144e5876" transform="matrix(1,0,0,1,227.321,125.879)">
                            <path d="M0,3C0.796,3 1.559,2.684 2.121,2.121C2.684,1.559 3,0.796 3,0C3,-0.796 2.684,-1.559 2.121,-2.121C1.559,-2.684 0.796,-3 0,-3C-0.796,-3 -1.559,-2.684 -2.121,-2.121C-2.684,-1.559 -3,-0.796 -3,0C-3,0.796 -2.684,1.559 -2.121,2.121C-1.559,2.684 -0.796,3 0,3Z" style="fill:rgb(221,132,82);fill-rule:nonzero;"/>
                        </g>
                        <g id="C1_0_d8144e587618" serif:id="C1_0_d8144e5876" transform="matrix(1,0,0,1,231.817,121.676)">
                            <path d="M0,3C0.796,3 1.559,2.684 2.121,2.121C2.684,1.559 3,0.796 3,0C3,-0.796 2.684,-1.559 2.121,-2.121C1.559,-2.684 0.796,-3 0,-3C-0.796,-3 -1.559,-2.684 -2.121,-2.121C-2.684,-1.559 -3,-0.796 -3,0C-3,0.796 -2.684,1.559 -2.121,2.121C-1.559,2.684 -0.796,3 0,3Z" style="fill:rgb(76,114,176);fill-rule:nonzero;"/>
                        </g>
                        <g id="C1_0_d8144e587619" serif:id="C1_0_d8144e5876" transform="matrix(1,0,0,1,231.566,38.4463)">
                            <path d="M0,3C0.796,3 1.559,2.684 2.121,2.121C2.684,1.559 3,0.796 3,0C3,-0.796 2.684,-1.559 2.121,-2.121C1.559,-2.684 0.796,-3 0,-3C-0.796,-3 -1.559,-2.684 -2.121,-2.121C-2.684,-1.559 -3,-0.796 -3,0C-3,0.796 -2.684,1.559 -2.121,2.121C-1.559,2.684 -0.796,3 0,3Z" style="fill:rgb(76,114,176);fill-rule:nonzero;"/>
                        </g>
                    </g>
                    <g id="LineCollection_1" transform="matrix(1.00228,0,0,1,-0.30026,0)">
                        <path d="M131.923,210.952L281.388,210.952" style="fill:none;stroke:rgb(38,38,38);stroke-width:0.75px;"/>
                    </g>
                    <g id="LineCollection_2" transform="matrix(1.00683,0,0,1,-1.58115,0)">
                        <path d="M231.566,156.416L281.388,156.416" style="fill:none;stroke:rgb(38,38,38);stroke-width:0.75px;"/>
                    </g>
                    <g id="m0eecb08822" transform="matrix(1,0,0,1,0,488.864)">
                        <path d="M82.102,-89.144L261.459,-89.144" style="fill:rgb(38,38,38);fill-rule:nonzero;stroke:rgb(38,38,38);stroke-width:1px;"/>
                    </g>
                    <g id="md574b35875" transform="matrix(1,0,0,1,0,488.864)">
                        <path d="M82.102,-89.144L82.102,-469.664" style="fill:rgb(38,38,38);fill-rule:nonzero;stroke:rgb(38,38,38);stroke-width:1px;"/>
                    </g>
                </g>
                <g id="axes_2" transform="matrix(2.5,0,0,2.5,0,0)">
                    <g id="xtick_3">
                        <g id="md2f2907aa12" serif:id="md2f2907aa1" transform="matrix(1,0,0,1,321.245,399.72)">
                            <path d="M0,0L0,12" style="fill:rgb(38,38,38);fill-rule:nonzero;stroke:rgb(38,38,38);stroke-width:1.25px;"/>
                        </g>
                        <g id="text_11">
                            <g transform="matrix(1,0,0,1,293.891,430.201)">
                                <text x="0px" y="0px" style="font-family:'Karla-Regular', 'Karla';font-size:22px;fill:rgb(38,38,38);">T<tspan x="9.372px " y="0px ">e</tspan>st 1</text>
                            </g>
                            <g transform="matrix(1,0,0,1,288.587,453.347)">
                                <text x="0px" y="0px" style="font-family:'Karla-Regular', 'Karla';font-size:22px;fill:rgb(38,38,38);">minus</text>
                            </g>
                            <g transform="matrix(1,0,0,1,284.453,476.494)">
                                <text x="0px" y="0px" style="font-family:'Karla-Regular', 'Karla';font-size:22px;fill:rgb(38,38,38);">Control</text>
                            </g>
                        </g>
                    </g>
                    <g id="matplotlib.axis_4">
                        <g id="ytick_8">
                            <g id="me461e59b54" transform="matrix(1,0,0,1,361.102,368.39)">
                                <path d="M0,0L12,0" style="fill:rgb(38,38,38);fill-rule:nonzero;stroke:rgb(38,38,38);stroke-width:1.25px;"/>
                            </g>
                            <g id="text_12" transform="matrix(1,0,0,1,376.602,375.881)">
                                <text x="0px" y="0px" style="font-family:'Karla-Regular', 'Karla';font-size:22px;fill:rgb(38,38,38);">−15</text>
                            </g>
                        </g>
                        <g id="ytick_9">
                            <g id="me461e59b541" serif:id="me461e59b54" transform="matrix(1,0,0,1,361.102,315.911)">
                                <path d="M0,0L12,0" style="fill:rgb(38,38,38);fill-rule:nonzero;stroke:rgb(38,38,38);stroke-width:1.25px;"/>
                            </g>
                            <g id="text_13" transform="matrix(1,0,0,1,376.602,323.401)">
                                <text x="0px" y="0px" style="font-family:'Karla-Regular', 'Karla';font-size:22px;fill:rgb(38,38,38);">−10</text>
                            </g>
                        </g>
                        <g id="ytick_10">
                            <g id="me461e59b542" serif:id="me461e59b54" transform="matrix(1,0,0,1,361.102,263.432)">
                                <path d="M0,0L12,0" style="fill:rgb(38,38,38);fill-rule:nonzero;stroke:rgb(38,38,38);stroke-width:1.25px;"/>
                            </g>
                            <g id="text_14" transform="matrix(1,0,0,1,376.602,270.922)">
                                <text x="0px" y="0px" style="font-family:'Karla-Regular', 'Karla';font-size:22px;fill:rgb(38,38,38);">−5</text>
                            </g>
                        </g>
                        <g id="ytick_11">
                            <g id="me461e59b543" serif:id="me461e59b54" transform="matrix(1,0,0,1,361.102,210.952)">
                                <path d="M0,0L12,0" style="fill:rgb(38,38,38);fill-rule:nonzero;stroke:rgb(38,38,38);stroke-width:1.25px;"/>
                            </g>
                            <g id="text_15" transform="matrix(1,0,0,1,376.602,218.443)">
                                <text x="0px" y="0px" style="font-family:'Karla-Regular', 'Karla';font-size:22px;fill:rgb(38,38,38);">0</text>
                            </g>
                        </g>
                        <g id="ytick_12">
                            <g id="me461e59b544" serif:id="me461e59b54" transform="matrix(1,0,0,1,361.102,158.473)">
                                <path d="M0,0L12,0" style="fill:rgb(38,38,38);fill-rule:nonzero;stroke:rgb(38,38,38);stroke-width:1.25px;"/>
                            </g>
                            <g id="text_16" transform="matrix(1,0,0,1,376.602,165.963)">
                                <text x="0px" y="0px" style="font-family:'Karla-Regular', 'Karla';font-size:22px;fill:rgb(38,38,38);">5</text>
                            </g>
                        </g>
                        <g id="ytick_13">
                            <g id="me461e59b545" serif:id="me461e59b54" transform="matrix(1,0,0,1,361.102,105.994)">
                                <path d="M0,0L12,0" style="fill:rgb(38,38,38);fill-rule:nonzero;stroke:rgb(38,38,38);stroke-width:1.25px;"/>
                            </g>
                            <g id="text_17" transform="matrix(1,0,0,1,376.602,113.484)">
                                <text x="0px" y="0px" style="font-family:'Karla-Regular', 'Karla';font-size:22px;fill:rgb(38,38,38);">10</text>
                            </g>
                        </g>
                        <g id="ytick_14">
                            <g id="me461e59b546" serif:id="me461e59b54" transform="matrix(1,0,0,1,361.102,53.5142)">
                                <path d="M0,0L12,0" style="fill:rgb(38,38,38);fill-rule:nonzero;stroke:rgb(38,38,38);stroke-width:1.25px;"/>
                            </g>
                            <g id="text_18" transform="matrix(1,0,0,1,376.602,61.0046)">
                                <text x="0px" y="0px" style="font-family:'Karla-Regular', 'Karla';font-size:22px;fill:rgb(38,38,38);">15</text>
                            </g>
                        </g>
                        <g id="text_19" transform="matrix(-3.82857e-16,-1,1,-3.82857e-16,428.03,209.46)">
                            <text x="-88.644px" y="0px" style="font-family:'Karla-Regular', 'Karla';font-size:24px;fill:rgb(38,38,38);">Mean difference</text>
                        </g>
                    </g>
                    <g id="mc22395efb4" transform="matrix(1,0,0,1,0,488.864)">
                        <path d="M321.267,-258.502L321.245,-258.502L321.245,-259.905L321.245,-261.309L321.245,-262.712L321.245,-264.115L321.245,-265.519L321.245,-266.922L321.245,-268.326L321.245,-269.729L321.245,-271.133L321.245,-272.536L321.245,-273.939L321.245,-275.343L321.245,-276.746L321.245,-278.15L321.245,-279.553L321.245,-280.957L321.245,-282.36L321.245,-283.763L321.245,-285.167L321.245,-286.57L321.245,-287.974L321.245,-289.377L321.245,-290.78L321.245,-292.184L321.245,-293.587L321.245,-294.991L321.245,-296.394L321.245,-297.798L321.245,-299.201L321.245,-300.604L321.245,-302.008L321.245,-303.411L321.245,-304.815L321.245,-306.218L321.245,-307.622L321.245,-309.025L321.245,-310.428L321.245,-311.832L321.245,-313.235L321.245,-314.639L321.245,-316.042L321.245,-317.446L321.245,-318.849L321.245,-320.252L321.245,-321.656L321.245,-323.059L321.245,-324.463L321.245,-325.866L321.245,-327.27L321.245,-328.673L321.245,-330.076L321.245,-331.48L321.245,-332.883L321.245,-334.287L321.245,-335.69L321.245,-337.093L321.245,-338.497L321.245,-339.9L321.245,-341.304L321.245,-342.707L321.245,-344.111L321.245,-345.514L321.245,-346.917L321.245,-348.321L321.245,-349.724L321.245,-351.128L321.245,-352.531L321.245,-353.935L321.245,-355.338L321.245,-356.741L321.245,-358.145L321.245,-359.548L321.245,-360.952L321.245,-362.355L321.245,-363.759L321.245,-365.162L321.245,-366.565L321.245,-367.969L321.245,-369.372L321.245,-370.776L321.245,-372.179L321.245,-373.583L321.245,-374.986L321.245,-376.389L321.245,-377.793L321.245,-379.196L321.245,-380.6L321.245,-382.003L321.245,-383.407L321.245,-384.81L321.245,-386.213L321.245,-387.617L321.245,-389.02L321.245,-390.424L321.245,-391.827L321.245,-393.23L321.245,-394.634L321.245,-396.037L321.245,-397.441L321.291,-397.441L321.304,-396.037L321.32,-394.634L321.342,-393.23L321.373,-391.827L321.408,-390.424L321.442,-389.02L321.471,-387.617L321.5,-386.213L321.546,-384.81L321.63,-383.407L321.766,-382.003L321.952,-380.6L322.177,-379.196L322.423,-377.793L322.68,-376.389L322.943,-374.986L323.201,-373.583L323.441,-372.179L323.66,-370.776L323.882,-369.372L324.161,-367.969L324.552,-366.565L325.083,-365.162L325.743,-363.759L326.491,-362.355L327.273,-360.952L328.044,-359.548L328.783,-358.145L329.498,-356.741L330.212,-355.338L330.949,-353.935L331.721,-352.531L332.531,-351.128L333.387,-349.724L334.294,-348.321L335.238,-346.917L336.168,-345.514L337.017,-344.111L337.749,-342.707L338.388,-341.304L338.993,-339.9L339.6,-338.497L340.185,-337.093L340.68,-335.69L341.023,-334.287L341.173,-332.883L341.108,-331.48L340.821,-330.076L340.354,-328.673L339.807,-327.27L339.297,-325.866L338.883,-324.463L338.519,-323.059L338.095,-321.656L337.513,-320.252L336.761,-318.849L335.906,-317.446L335.035,-316.042L334.203,-314.639L333.423,-313.235L332.682,-311.832L331.958,-310.428L331.221,-309.025L330.43,-307.622L329.56,-306.218L328.618,-304.815L327.652,-303.411L326.726,-302.008L325.886,-300.604L325.156,-299.201L324.539,-297.798L324.03,-296.394L323.612,-294.991L323.259,-293.587L322.946,-292.184L322.657,-290.78L322.398,-289.377L322.182,-287.974L322.014,-286.57L321.885,-285.167L321.779,-283.763L321.684,-282.36L321.598,-280.957L321.522,-279.553L321.458,-278.15L321.406,-276.746L321.366,-275.343L321.334,-273.939L321.308,-272.536L321.286,-271.133L321.27,-269.729L321.258,-268.326L321.252,-266.922L321.25,-265.519L321.251,-264.115L321.255,-262.712L321.26,-261.309L321.265,-259.905L321.267,-258.502Z" style="fill:rgb(128,128,128);fill-opacity:0.8;fill-rule:nonzero;"/>
                    </g>
                    <g id="LineCollection_5" transform="matrix(0.666667,0,0,1,120.367,0)">
                        <path d="M241.53,210.952L361.102,210.952" style="fill:none;stroke:rgb(38,38,38);stroke-width:0.75px;"/>
                    </g>
                    <g id="LineCollection_6" transform="matrix(0.905211,0,0,1,34.2284,0)">
                        <path d="M273.416,156.416L361.102,156.416" style="fill:none;stroke:rgb(38,38,38);stroke-width:0.75px;"/>
                    </g>
                    <g id="m3b8ae3207c" transform="matrix(1,0,0,1,321.245,156.416)">
                        <path d="M0,4.5C1.193,4.5 2.338,4.026 3.182,3.182C4.026,2.338 4.5,1.193 4.5,0C4.5,-1.193 4.026,-2.338 3.182,-3.182C2.338,-4.026 1.193,-4.5 0,-4.5C-1.193,-4.5 -2.338,-4.026 -3.182,-3.182C-4.026,-2.338 -4.5,-1.193 -4.5,0C-4.5,1.193 -4.026,2.338 -3.182,3.182C-2.338,4.026 -1.193,4.5 0,4.5Z" style="fill:rgb(38,38,38);fill-rule:nonzero;stroke:rgb(38,38,38);stroke-width:1px;"/>
                    </g>
                    <path id="line2d_19" d="M321.245,189.35L321.245,117.913" style="fill:none;stroke:rgb(38,38,38);stroke-width:2px;stroke-linecap:round;"/>
                    <g id="legend_1">
                        <g id="m26583b6c7c" transform="matrix(1,0,0,1,442.759,41.0146)">
                            <path d="M0,3.873C1.027,3.873 2.012,3.465 2.739,2.739C3.465,2.012 3.873,1.027 3.873,0C3.873,-1.027 3.465,-2.012 2.739,-2.739C2.012,-3.465 1.027,-3.873 0,-3.873C-1.027,-3.873 -2.012,-3.465 -2.739,-2.739C-3.465,-2.012 -3.873,-1.027 -3.873,0C-3.873,1.027 -3.465,2.012 -2.739,2.739C-2.012,3.465 -1.027,3.873 0,3.873Z" style="fill:rgb(221,132,82);fill-rule:nonzero;stroke:rgb(221,132,82);stroke-width:1px;"/>
                        </g>
                        <g id="text_20" transform="matrix(1,0,0,1,482.359,46.7896)">
                            <text x="0px" y="0px" style="font-family:'Karla-Regular', 'Karla';font-size:22px;fill:rgb(38,38,38);">F<tspan x="10.912px " y="0px ">e</tspan>male</text>
                        </g>
                        <g id="m56e413ab78" transform="matrix(1,0,0,1,442.759,72.5846)">
                            <path d="M0,3.873C1.027,3.873 2.012,3.465 2.739,2.739C3.465,2.012 3.873,1.027 3.873,0C3.873,-1.027 3.465,-2.012 2.739,-2.739C2.012,-3.465 1.027,-3.873 0,-3.873C-1.027,-3.873 -2.012,-3.465 -2.739,-2.739C-3.465,-2.012 -3.873,-1.027 -3.873,0C-3.873,1.027 -3.465,2.012 -2.739,2.739C-2.012,3.465 -1.027,3.873 0,3.873Z" style="fill:rgb(76,114,176);fill-rule:nonzero;stroke:rgb(76,114,176);stroke-width:1px;"/>
                        </g>
                        <g id="text_21" transform="matrix(1,0,0,1,482.359,78.3596)">
                            <text x="0px" y="0px" style="font-family:'Karla-Regular', 'Karla';font-size:22px;fill:rgb(38,38,38);">Male</text>
                        </g>
                    </g>
                    <g id="m7f2c91ba97" transform="matrix(1,0,0,1,0,488.864)">
                        <path d="M297.33,-89.144L361.102,-89.144" style="fill:rgb(38,38,38);fill-rule:nonzero;stroke:rgb(38,38,38);stroke-width:1px;"/>
                    </g>
                    <g id="m3c3d6be045" transform="matrix(1,0,0,1,0,488.864)">
                        <path d="M361.102,-89.144L361.102,-469.664" style="fill:rgb(38,38,38);fill-rule:nonzero;stroke:rgb(38,38,38);stroke-width:1px;"/>
                    </g>
                </g>
            </g>
        </g>
    </g>
</svg>
