<?xml version="1.0" encoding="utf-8"?>
<!-- Generator: Adobe Illustrator 28.0.0, SVG Export Plug-In . SVG Version: 6.00 Build 0)  -->
<svg version="1.1" id="Layer_1" xmlns="http://www.w3.org/2000/svg" xmlns:xlink="http://www.w3.org/1999/xlink" x="0px" y="0px"
	 viewBox="0 0 595.28 841.89" style="enable-background:new 0 0 595.28 841.89; transform: scale(3);" xml:space="preserve">
<style type="text/css">
	.st0{enable-background:new    ;}
	.st1{fill:#4B477C;}
</style>
<g id="Layer_1_00000005951484335895585520000006393211017986689458_">
</g>
<g id="WebApp">
	<g>
		<g class="st0">
			<path class="st1" d="M226.87,427.85h3.64v-17.61c0-0.99,0.83-1.82,1.82-1.82s1.82,0.83,1.82,1.82v19.44
				c0,0.99-0.83,1.82-1.82,1.82h-14.58c-0.99,0-1.82-0.83-1.82-1.82v-19.44c0-0.99,0.83-1.82,1.82-1.82s1.82,0.83,1.82,1.82v17.61
				h3.64v-17.61c0-0.99,0.83-1.82,1.82-1.82s1.82,0.83,1.82,1.82V427.85z"/>
			<path class="st1" d="M258.45,422.39c0,0.99-0.83,1.82-1.82,1.82h-12.76v0.61c0,1.67,1.37,3.04,3.04,3.04h9.72
				c0.99,0,1.82,0.83,1.82,1.82s-0.83,1.82-1.82,1.82h-9.72c-3.68,0-6.68-3-6.68-6.68v-4.86c0-3.68,3-6.68,6.68-6.68h4.86
				c3.68,0,6.68,3,6.68,6.68V422.39z M243.87,420.56h10.93v-0.61c0-1.67-1.37-3.04-3.04-3.04h-4.86c-1.67,0-3.04,1.37-3.04,3.04
				V420.56z"/>
			<path class="st1" d="M268.17,413.28h5.47c5.01,0,9.11,4.1,9.11,9.11c0,5.01-4.1,9.11-9.11,9.11h-7.29
				c-0.99,0-1.82-0.83-1.82-1.82v-21.87c0-0.99,0.83-1.82,1.82-1.82s1.82,0.83,1.82,1.82V413.28z M268.17,416.92v10.93h5.47
				c3.04,0,5.47-2.43,5.47-5.47c0-3.04-2.43-5.47-5.47-5.47H268.17z"/>
			<path class="st1" d="M288.82,422.23c0-0.3,0.19-0.72,0.38-0.99l9.72-12.15c0.3-0.38,0.83-0.65,1.44-0.68h4.86
				c0.99,0,1.82,0.83,1.82,1.82v19.44c0,0.99-0.83,1.82-1.82,1.82c-0.99,0-1.82-0.83-1.82-1.82v-5.47h-10.93v5.47
				c0,0.99-0.84,1.82-1.82,1.82s-1.82-0.83-1.82-1.82V422.23z M294.44,420.56h8.96v-8.5h-2.16L294.44,420.56z"/>
			<path class="st1" d="M314.94,413.28h7.29c5.01,0,9.11,4.1,9.11,9.11c0,5.01-4.1,9.11-9.11,9.11h-5.47v5.47
				c0,0.99-0.83,1.82-1.82,1.82c-0.99,0-1.82-0.83-1.82-1.82V415.1C313.12,414.11,313.96,413.28,314.94,413.28z M316.76,416.92
				v10.93h5.47c3.04,0,5.47-2.43,5.47-5.47c0-3.04-2.43-5.47-5.47-5.47H316.76z"/>
			<path class="st1" d="M339.24,413.28h7.29c5.01,0,9.11,4.1,9.11,9.11c0,5.01-4.1,9.11-9.11,9.11h-5.47v5.47
				c0,0.99-0.83,1.82-1.82,1.82c-0.99,0-1.82-0.83-1.82-1.82V415.1C337.42,414.11,338.25,413.28,339.24,413.28z M341.06,416.92
				v10.93h5.47c3.04,0,5.47-2.43,5.47-5.47c0-3.04-2.43-5.47-5.47-5.47H341.06z"/>
		</g>
	</g>
</g>
</svg>
